<?xml version="1.0" encoding="UTF-8"?>
<svg width="261px" height="264px" viewBox="0 0 261 264" version="1.1" xmlns="http://www.w3.org/2000/svg" xmlns:xlink="http://www.w3.org/1999/xlink">
    <!-- Generator: Sketch 57.1 (83088) - https://sketch.com -->
    <title>Group 26</title>
    <desc>Created with Sketch.</desc>
    <defs>
        <polygon id="path-1" points="0 289 322.27 289 322.27 0.835 0 0.835"></polygon>
        <path d="M17.143,1.928 C13.773,3.571 10.412,8.964 5.635,9.604 L5.635,9.604 C0.859,10.244 -0.19,12.128 0.717,15.358 L0.717,15.358 C1.623,18.588 2.724,17.941 2.724,17.941 L2.724,17.941 C3.877,18.515 6.757,16.457 9.164,15.039 L9.164,15.039 C11.572,13.62 19.79,9.288 22.974,7.845 L22.974,7.845 C26.156,6.402 29.215,5.771 28.076,3.221 L28.076,3.221 C27.392,1.69 24.804,0.939 22.115,0.939999003 L22.115,0.939999003 C20.325,0.939999003 18.491,1.272 17.143,1.928" id="path-3"></path>
        <path d="M7.046,0.324 C1.194,2.215 0.795,3.989 0.688,4.291 L0.688,4.291 C-1.492,10.389 6.833,17.95 10.835,14.645 L10.835,14.645 C14.566,11.565 13.134,0.135 8.181,0.135 L8.181,0.135 C7.821,0.135 7.442,0.195 7.046,0.324" id="path-5"></path>
    </defs>
    <g id="mockup-fixed" stroke="none" stroke-width="1" fill="none" fill-rule="evenodd">
        <g id="Desktop-HD" transform="translate(-587.000000, -1741.000000)">
            <g id="Group-26" transform="translate(561.000000, 1736.000000)">
                <circle id="Oval" fill="#F4F4FF" cx="158.5" cy="133.5" r="128.5"></circle>
                <ellipse id="Oval-Copy" fill="#C6BFDD" cx="225.5" cy="245" rx="44.5" ry="8"></ellipse>
                <g id="Group-133">
                    <mask id="mask-2" fill="white">
                        <use xlink:href="#path-1"></use>
                    </mask>
                    <g id="Clip-6"></g>
                    <polygon id="Fill-21" fill="#DDEBD9" mask="url(#mask-2)" points="143.946 161.524 219.974 161.524 219.974 155.646 143.946 155.646"></polygon>
                    <polygon id="Fill-28" fill="#DDEBD9" mask="url(#mask-2)" points="143.946 193.317 219.974 193.317 219.974 187.439 143.946 187.439"></polygon>
                    <polygon id="Fill-29" fill="#DDEBD9" mask="url(#mask-2)" points="143.946 204.045 219.974 204.045 219.974 198.166 143.946 198.166"></polygon>
                    <polygon id="Fill-32" fill="#549A41" mask="url(#mask-2)" points="131.992 225.501 136.989 225.501 136.989 187.438 131.992 187.438"></polygon>
                    <polygon id="Fill-33" fill="#549A41" mask="url(#mask-2)" points="122.587 225.501 127.584 225.501 127.584 187.438 122.587 187.438"></polygon>
                    <path d="M111.8097,206.4702 C111.8097,210.7992 108.3007,214.3082 103.9717,214.3082 C99.6427,214.3082 96.1337,210.7992 96.1337,206.4702 C96.1337,202.1412 99.6427,198.6322 103.9717,198.6322 C108.3007,198.6322 111.8097,202.1412 111.8097,206.4702" id="Fill-34" fill="#549A41" mask="url(#mask-2)"></path>
                    <path d="M107.6944,206.4702 C107.6944,208.5262 106.0284,210.1932 103.9714,210.1932 C101.9164,210.1932 100.2494,208.5262 100.2494,206.4702 C100.2494,204.4132 101.9164,202.7472 103.9714,202.7472 C106.0284,202.7472 107.6944,204.4132 107.6944,206.4702" id="Fill-35" fill="#DDEBD9" mask="url(#mask-2)"></path>
                    <polygon id="Fill-67" fill="#FFFFFF" mask="url(#mask-2)" points="80.1075 243.5542 56.8835 247.4612 53.0345 224.5832 76.2575 220.6762"></polygon>
                    <polygon id="Fill-72" fill="#FFFFFF" mask="url(#mask-2)" points="67.1349 243.5542 43.9109 247.4612 40.0619 224.5832 63.2849 220.6762"></polygon>
                    <polygon id="Fill-76" fill="#485EB0" mask="url(#mask-2)" points="47.6944 227.6284 46.9294 228.2054 46.0174 227.9094 45.3384 228.9924 46.0564 228.3524 47.0484 228.9174 47.8014 228.0584 48.6904 228.4284"></polygon>
                    <polygon id="Fill-77" fill="#485EB0" mask="url(#mask-2)" points="50.3966 229.3862 49.6316 229.9632 48.7206 229.6682 48.0416 230.7502 48.7596 230.1102 49.7516 230.6752 50.5046 229.8172 51.3936 230.1862"></polygon>
                    <polygon id="Fill-78" fill="#FFFFFF" mask="url(#mask-2)" points="53.7784 243.5542 30.5554 247.4612 26.7064 224.5832 49.9294 220.6762"></polygon>
                    <path d="M212.9103,161.6987 L205.4643,244.1187" id="Stroke-96" stroke="#C26836" stroke-width="5.666" mask="url(#mask-2)"></path>
                    <path d="M210.4532,168.0503 L233.6842,168.0503" id="Stroke-97" stroke="#C26836" stroke-width="5.431" mask="url(#mask-2)"></path>
                    <path d="M210.3644,183.6108 L233.5964,183.6108" id="Stroke-98" stroke="#C26836" stroke-width="5.431" mask="url(#mask-2)"></path>
                    <path d="M207.3712,199.1714 L230.6022,199.1714" id="Stroke-99" stroke="#C26836" stroke-width="5.431" mask="url(#mask-2)"></path>
                    <path d="M207.3712,214.7319 L230.6022,214.7319" id="Stroke-100" stroke="#C26836" stroke-width="5.431" mask="url(#mask-2)"></path>
                    <path d="M205.9171,230.2925 L229.1481,230.2925" id="Stroke-101" stroke="#C26836" stroke-width="5.431" mask="url(#mask-2)"></path>
                    <path d="M233.0343,161.6987 L225.5873,244.1187" id="Stroke-102" stroke="#C26836" stroke-width="5.666" mask="url(#mask-2)"></path>
                    <path d="M220.631,161.0659 L228.328,247.3769" id="Stroke-103" stroke="#FF8847" stroke-width="5.666" mask="url(#mask-2)"></path>
                    <path d="M245.5724,161.0659 L253.2704,247.3769" id="Stroke-104" stroke="#FF8847" stroke-width="5.666" mask="url(#mask-2)"></path>
                    <path d="M205.464,161.0659 L256.152,161.0659" id="Stroke-105" stroke="#FF8847" stroke-width="5.666" mask="url(#mask-2)"></path>
                    <path d="M221.3497,168.8364 L246.6317,168.8364" id="Stroke-106" stroke="#FF8847" stroke-width="5.666" mask="url(#mask-2)"></path>
                    <path d="M223.1017,182.8765 L248.3837,182.8765" id="Stroke-107" stroke="#FF8847" stroke-width="5.666" mask="url(#mask-2)"></path>
                    <path d="M223.1017,199.1714 L248.3837,199.1714" id="Stroke-108" stroke="#FF8847" stroke-width="5.666" mask="url(#mask-2)"></path>
                    <path d="M223.1017,214.7319 L248.3837,214.7319" id="Stroke-109" stroke="#FF8847" stroke-width="5.666" mask="url(#mask-2)"></path>
                    <path d="M226.17,230.2925 L251.452,230.2925" id="Stroke-110" stroke="#FF8847" stroke-width="5.666" mask="url(#mask-2)"></path>
                    <path d="M223.2608,37.0796 C220.9228,37.4596 219.3288,37.7016 219.3288,37.7016 L216.9758,37.1976 C216.9488,37.0686 216.3428,34.1056 214.1768,32.3726 C212.1158,30.7326 209.6318,29.2976 209.3398,29.1186 C209.6528,29.1296 215.0848,29.4366 216.8838,31.2286 C218.6178,32.9696 218.8208,36.4856 218.8468,36.8456 C219.0688,36.4446 221.5738,32.0136 227.5068,29.4486 C234.3848,26.5046 236.8588,29.2916 236.8588,29.2916 C236.8588,29.2916 234.8658,29.0436 229.1578,31.2796 C221.9068,34.1356 220.4248,37.2136 220.4248,37.2136 C220.4248,37.2136 220.4418,37.2006 220.4688,37.2046 C220.6878,37.1806 221.7088,37.0816 223.2608,37.0796" id="Fill-111" fill="#5B1800" mask="url(#mask-2)"></path>
                    <path d="M216.8732,37.1753 L212.1762,36.1693 C214.7742,36.5333 216.4672,37.0453 216.8732,37.1753" id="Fill-112" fill="#5B1800" mask="url(#mask-2)"></path>
                    <path d="M245.152617,85.3042 C245.2015,92.4912 229.8045,111.3252 220.2235,118.5672 C219.0105,119.5132 217.9255,120.2552 217.0235,120.7872 C216.4915,121.1172 215.8765,121.4292 215.2485,121.7092 C212.1435,123.1162 208.1135,124.0152 204.1605,124.5502 C197.1225,125.5072 190.2855,125.2712 189.0995,124.5502 C187.0915,123.3512 186.4925,120.1992 183.5825,113.3162 C180.6725,106.4342 174.1665,101.7102 169.8005,94.4112 C167.3275,90.2762 166.2025,85.7412 165.7295,82.5852 C165.3225,80.1942 165.2955,78.5692 165.2955,78.5692 C165.7535,73.2152 164.3715,54.3232 184.9505,45.6042 C205.5295,36.8852 220.9815,39.6522 227.9755,45.7572 C234.9855,51.8562 245.0985,77.2002 245.152617,85.3042" id="Fill-113" fill="#FFAC73" mask="url(#mask-2)"></path>
                    <path d="M164.6485,83.3452 C164.6485,83.3452 178.7185,113.4252 183.5985,121.3342 C189.7315,131.2742 206.5665,125.3752 217.0235,120.7872 C227.4815,116.1992 248.9625,100.2632 241.3355,88.1552 C233.7075,76.0462 222.0005,42.2392 222.0005,42.2392 L164.6485,83.3452 Z" id="Fill-114" fill="#FFAC73" mask="url(#mask-2)"></path>
                    <path d="M203.6954,90.2163 C205.3274,92.9883 208.0924,94.3863 209.8734,93.3383 C211.6524,92.2903 211.7724,89.1943 210.1404,86.4223 C208.5084,83.6503 205.7434,82.2523 203.9634,83.3003 C202.1834,84.3483 202.0634,87.4443 203.6954,90.2163" id="Fill-115" fill="#FFFFFF" mask="url(#mask-2)"></path>
                    <path d="M204.006,83.3149 C205.734,82.2979 208.364,83.5469 210.01,86.1079 C209.924,86.1549 209.839,86.1969 209.752,86.2479 C208.194,87.1649 207.191,88.3489 207.511,88.8919 C207.83,89.4359 209.353,89.1329 210.911,88.2149 C210.938,88.1999 210.961,88.1829 210.987,88.1679 C211.693,90.3789 211.317,92.4889 209.899,93.3239 C208.105,94.3789 205.331,92.9959 203.704,90.2319 C202.077,87.4669 202.213,84.3719 204.006,83.3149" id="Fill-116" fill="#471100" mask="url(#mask-2)"></path>
                    <path d="M181.7472,102.7446 C183.3792,105.5156 186.0882,106.9466 187.7992,105.9396 C189.5092,104.9326 189.5722,101.8696 187.9402,99.0986 C186.3092,96.3256 183.6002,94.8946 181.8892,95.9016 C180.1792,96.9086 180.1152,99.9726 181.7472,102.7446" id="Fill-117" fill="#FFFFFF" mask="url(#mask-2)"></path>
                    <path d="M181.9308,95.9175 C183.5908,94.9405 186.1668,96.2225 187.8088,98.7835 C187.7258,98.8285 187.6438,98.8685 187.5608,98.9175 C186.0638,99.7995 185.1088,100.9545 185.4288,101.4985 C185.7488,102.0425 187.2228,101.7685 188.7198,100.8865 C188.7448,100.8715 188.7678,100.8545 188.7928,100.8395 C189.5158,103.0415 189.1858,105.1235 187.8238,105.9265 C186.0998,106.9405 183.3828,105.5225 181.7558,102.7595 C180.1288,99.9955 180.2068,96.9325 181.9308,95.9175" id="Fill-118" fill="#471100" mask="url(#mask-2)"></path>
                    <path d="M206.1651,101.4976 C206.1651,101.4976 202.5661,103.9696 199.4231,105.1686 C196.2791,106.3676 193.9091,107.0686 193.9091,107.0686 C193.9091,107.0686 198.6961,109.0806 201.4501,107.4246 C203.4611,106.2156 206.1651,101.4976 206.1651,101.4976" id="Fill-119" fill="#E3784E" mask="url(#mask-2)"></path>
                    <path d="M195.0958,68.8687 C184.9518,70.0997 173.0868,77.3927 167.6688,81.1807 L221.9878,42.2487 C221.9928,42.2517 221.9998,42.2537 222.0068,42.2567 C222.1378,42.6347 233.7508,76.1147 241.3348,88.1547 C248.2098,99.0687 231.4398,113.0877 220.4058,119.1087 C220.4468,119.0607 229.1828,106.1577 228.2678,96.6257 C227.3508,87.0777 208.2488,67.2537 195.0958,68.8687" id="Fill-120" fill="#E3784E" mask="url(#mask-2)"></path>
                    <path d="M192.8614,68.6089 C192.8614,68.6089 198.2604,65.4599 205.8724,67.4659 C213.4824,69.4729 217.6094,76.0559 217.6094,76.0559 C217.6094,76.0559 212.4134,71.6319 207.1574,71.0129 C201.8104,70.3819 197.2044,74.4789 192.8614,68.6089" id="Fill-121" fill="#5B1800" mask="url(#mask-2)"></path>
                    <path d="M175.8165,77.4839 C175.8165,77.4839 171.2985,82.3179 170.5175,87.0349 C169.7365,91.7519 171.3905,95.5499 171.3905,95.5499 C171.3905,95.5499 171.3385,90.5389 173.8745,87.4559 C176.4085,84.3729 177.3055,80.7989 175.8165,77.4839" id="Fill-122" fill="#5B1800" mask="url(#mask-2)"></path>
                    <path d="M199.3126,103.0688 C199.4506,103.3678 200.8986,102.9918 202.5456,102.2288 C204.1946,101.4658 205.4166,100.6058 205.2796,100.3068 C205.1406,100.0078 203.6936,100.3838 202.0446,101.1468 C200.3976,101.9098 199.1736,102.7698 199.3126,103.0688" id="Fill-123" fill="#FCCBA9" mask="url(#mask-2)"></path>
                    <path d="M196.9122,104.396 C197.0352,104.603 197.5632,104.515 198.0912,104.201 C198.6182,103.885 198.9452,103.461 198.8212,103.254 C198.6982,103.047 198.1702,103.134 197.6422,103.45 C197.1152,103.765 196.7882,104.189 196.9122,104.396" id="Fill-124" fill="#FCCBA9" mask="url(#mask-2)"></path>
                    <path d="M248.84,88.4927 C242.848,92.5317 241.927,91.5827 241.927,91.5827 L234.903,83.1907 C234.903,83.1907 235.023,82.8807 235.278,82.3437 C236.748,79.1307 242.447,67.6457 248.998,67.697524 C249.682,67.7047 250.277,67.8437 250.799,68.1057 C251.352,68.3557 251.831,68.7297 252.225,69.1977 L252.238,69.2277 L252.261,69.2367 C255.805,73.4647 253.725,85.1877 248.84,88.4927" id="Fill-125" fill="#E3784E" mask="url(#mask-2)"></path>
                    <path d="M252.2247,69.1978 L252.2387,69.2278 C251.9467,69.1928 249.4307,68.9938 245.7767,72.1348 C241.8907,75.4528 238.5607,82.7328 238.5607,82.7328 L235.2787,82.3438 C236.7477,79.1308 242.4477,67.6458 248.9977,67.6978 C249.6817,67.7048 250.2767,67.8438 250.7987,68.1058 L252.2247,69.1978 Z" id="Fill-126" fill="#FFAC73" mask="url(#mask-2)"></path>
                    <path d="M206.7794,57.9321 C206.4454,58.1331 202.4404,67.7031 198.3934,62.2191 C192.4824,67.4321 187.1494,90.8711 175.0124,85.8231 C167.7394,95.6261 158.3604,94.7901 151.6934,89.6411 C145.0264,84.4931 137.1284,45.2981 175.5234,41.1641 C195.7874,30.5901 213.0244,31.1331 217.7004,36.7611 C226.7034,33.0921 252.6074,48.1931 246.0384,68.4191 C239.8514,74.3291 236.3294,86.3801 236.3294,86.3801 C236.3294,86.3801 234.8104,72.6651 231.2994,68.7771 C227.7884,64.8881 220.6254,49.5891 206.7794,57.9321" id="Fill-127" fill="#5B1800" mask="url(#mask-2)"></path>
                    <path d="M219.0577,48.9253 C220.1227,50.7603 228.6617,62.1813 236.7617,64.0293 C238.5677,64.4413 244.8757,65.4403 246.9087,64.6263 C247.8547,58.8473 245.5387,52.3453 242.0487,48.1763 C234.5297,39.1953 227.2137,37.0993 226.4477,37.1833 C226.4237,37.1803 219.3667,42.7563 219.3667,42.7563 C219.3667,42.7563 217.9787,47.1003 219.0577,48.9253" id="Fill-128" fill="#7C250A" mask="url(#mask-2)"></path>
                    <path d="M194.9054,44.6538 C194.9054,44.6538 169.1854,39.8288 155.3844,55.7668 C141.5834,71.7058 153.7394,88.2208 153.7394,88.2208 C153.7394,88.2208 143.2074,68.5918 157.5264,55.9498 C171.8454,43.3068 194.9054,44.6538 194.9054,44.6538" id="Fill-129" fill="#7C250A" mask="url(#mask-2)"></path>
                    <path d="M192.3321,64.9282 C191.8631,67.0312 191.1751,69.0502 190.3451,71.0102 C189.5291,72.9782 188.5411,74.8672 187.4451,76.7072 C186.8691,77.6102 186.2771,78.5072 185.6401,79.3762 C184.9701,80.2242 184.3031,81.0812 183.5171,81.8472 C182.7551,82.6302 181.9001,83.3492 180.9371,83.9312 C179.9901,84.4842 178.7861,84.9252 177.7171,84.6142 C178.7821,84.3922 179.5571,83.7642 180.2501,83.0402 C180.9501,82.3272 181.5591,81.5142 182.1531,80.6902 C183.3221,79.0242 184.4241,77.2842 185.4911,75.5122 L188.7641,70.1902 C189.8771,68.4142 191.0031,66.6332 192.3321,64.9282" id="Fill-130" fill="#7C250A" mask="url(#mask-2)"></path>
                    <path d="M212.8136,97.9175 C214.0266,100.6315 217.2096,101.8485 219.9226,100.6355 C222.6366,99.4225 223.8536,96.2395 222.6406,93.5255 C221.4276,90.8125 218.2456,89.5955 215.5316,90.8085 C212.8176,92.0215 211.6006,95.2035 212.8136,97.9175" id="Fill-131" fill="#F96E43" mask="url(#mask-2)"></path>
                    <path d="M182.2286,113.6616 C183.1216,115.6576 185.4616,116.5526 187.4576,115.6606 C189.4536,114.7686 190.3476,112.4286 189.4566,110.4326 C188.5636,108.4366 186.2226,107.5416 184.2276,108.4336 C182.2316,109.3256 181.3366,111.6666 182.2286,113.6616" id="Fill-132" fill="#F96E43" mask="url(#mask-2)"></path>
                </g>
                <ellipse id="Oval" fill="#C6BFDD" cx="137" cy="261" rx="55" ry="8"></ellipse>
                <g id="Group-136" transform="translate(196.000000, 102.000000)">
                    <mask id="mask-4" fill="white">
                        <use xlink:href="#path-3"></use>
                    </mask>
                    <g id="Clip-135"></g>
                    <path d="M17.143,1.928 C13.773,3.571 10.412,8.964 5.635,9.604 L5.635,9.604 C0.859,10.244 -0.19,12.128 0.717,15.358 L0.717,15.358 C1.623,18.588 2.724,17.941 2.724,17.941 L2.724,17.941 C3.877,18.515 6.757,16.457 9.164,15.039 L9.164,15.039 C11.572,13.62 19.79,9.288 22.974,7.845 L22.974,7.845 C26.156,6.402 29.215,5.771 28.076,3.221 L28.076,3.221 C27.392,1.69 24.804,0.939 22.115,0.939999003 L22.115,0.939999003 C20.325,0.939999003 18.491,1.272 17.143,1.928" id="Fill-134" mask="url(#mask-4)"></path>
                </g>
                <g id="Group-245" transform="translate(61.000000, 102.000000)">
                    <path d="M147.214,13.3433 C150.683,11.4703 155.658,8.8943 157.974,7.8453 C161.156,6.4033 164.215,5.7713 163.075,3.2213 C162.791,2.5843 162.178,2.0833 161.365,1.7143 C153.283,5.2983 149.2,10.0443 147.214,13.3433" id="Fill-137" fill="#EA6C84"></path>
                    <path d="M157.5499,0.9478 C155.6259,0.8888 153.5999,1.2188 152.1439,1.9278 C148.7729,3.5708 145.4119,8.9638 140.6349,9.6038 C139.6309,9.7378 138.7999,9.9308 138.1099,10.1768 C139.4599,11.0188 142.4209,11.8968 147.2299,8.4898 C151.6149,5.3828 154.8259,2.6778 157.5499,0.9478" id="Fill-139" fill="#FFFFFF"></path>
                    <path d="M174.0724,26.2104 C174.0724,26.2104 184.9774,50.4954 180.3294,54.3354 C175.6804,58.1744 168.1134,53.4184 164.9744,38.3344 C166.0994,49.0284 166.5784,57.3794 161.3174,57.8454 C156.0574,58.3114 154.8774,52.6934 154.3524,43.4314 C153.8274,34.1684 152.9914,31.1314 152.9914,31.1314 L174.0724,26.2104 Z" id="Fill-141" fill="#606060"></path>
                    <path d="M174.0724,26.2104 C174.0724,26.2104 184.9774,50.4954 180.3294,54.3354 C180.0004,54.6064 179.6524,54.8234 179.2974,55.0094 C180.2184,50.7154 176.8594,42.4004 176.3334,37.6254 C175.6234,31.1834 171.1064,34.0494 171.1064,34.0494 C165.6944,36.8814 157.6494,36.3064 153.7274,35.7974 C153.3404,32.4094 152.9914,31.1314 152.9914,31.1314 L174.0724,26.2104 Z" id="Fill-143" fill="#474747"></path>
                    <path d="M152.2267,18.8296 C152.2267,18.8296 149.2647,23.6186 145.2087,25.5226 C141.1537,27.4286 139.9577,29.9626 141.8437,32.7476 C144.1457,36.1476 149.8337,32.2696 151.4557,29.5446 C153.0767,26.8176 155.8617,20.2396 152.2267,18.8296" id="Fill-145" fill="#494949"></path>
                    <path d="M161.09,15.3579 C161.09,15.3579 159.611,17.5879 155.438,16.9639 C151.265,16.3399 156.843,34.2239 156.843,34.2239 C156.843,34.2239 160.866,34.6529 163.379,33.9739 C165.93,33.2869 161.09,15.3579 161.09,15.3579" id="Fill-147" fill="#9ACADE"></path>
                    <path d="M163.921,12.9478 C163.921,12.9478 157.867,13.2658 158.663,15.4838 C159.459,17.7008 159.636,17.9478 160.1,21.4128 C160.563,24.8778 160.097,33.2198 162.132,33.8178 C164.167,34.4158 177.044,33.6698 175.653,28.8318 C174.315,24.1708 173.37,14.6508 168.311,14.5478 C163.458,14.4488 165.465,13.5658 163.921,12.9478" id="Fill-149" fill="#606060"></path>
                    <path d="M156.2862,15.2095 C156.2862,15.2095 156.4322,21.1155 157.2392,24.8515 C158.0472,28.5855 159.9162,33.5635 158.1192,34.3165 C156.3232,35.0695 153.2922,35.2285 152.5962,33.9425 C151.8982,32.6575 150.4352,21.2535 151.4612,19.6445 C152.4852,18.0335 153.6322,18.6885 153.3632,16.4675 C153.3632,16.4675 153.0182,15.0535 153.6132,14.9275 C154.2092,14.8015 156.2642,14.5665 156.2862,15.2095" id="Fill-151" fill="#606060"></path>
                    <path d="M167.7345,18.1245 C167.7345,18.1245 168.1395,23.1425 163.6245,23.7205 C159.1075,24.2975 159.6965,22.4215 156.9725,23.4885 C154.2495,24.5555 154.5705,29.9925 157.9365,30.5285 C161.3025,31.0655 167.5725,32.2075 170.8755,24.5355 C174.1775,16.8645 168.6565,16.2885 167.7345,18.1245" id="Fill-153" fill="#494949"></path>
                    <path d="M167.336,16.9624 C167.336,16.9624 167.74,21.9804 163.225,22.5574 C158.709,23.1344 159.298,21.2594 156.574,22.3254 C153.851,23.3934 154.171,28.8304 157.537,29.3664 C160.903,29.9024 167.173,31.0454 170.476,23.3734 C173.778,15.7024 168.257,15.1264 167.336,16.9624" id="Fill-155" fill="#606060"></path>
                    <path d="M156.5743,22.3257 C157.9663,21.7807 158.4943,22.0047 159.2793,22.2757 C159.0343,24.0017 158.6483,27.2267 158.7823,29.5567 C158.3383,29.4947 157.9173,29.4277 157.5373,29.3667 C154.1713,28.8307 153.8503,23.3927 156.5743,22.3257" id="Fill-157" fill="#FFAC73"></path>
                    <path d="M162.8263,28.6528 C164.1523,28.3948 165.3353,27.8648 166.3653,27.0608 C169.9503,24.2618 170.4283,19.0538 170.4323,19.0018 L170.1283,18.9758 C170.1243,19.0268 169.6553,24.1068 166.1763,26.8218 C164.2503,28.3228 161.7623,28.8398 158.7803,28.3528 L158.7303,28.6518 C160.2163,28.8938 161.5843,28.8938 162.8263,28.6528" id="Fill-159" fill="#FFFFFF"></path>
                    <path d="M162.5323,27.8745 C163.5103,27.6855 164.4113,27.3065 165.2293,26.7395 C168.8123,24.2675 169.5993,18.9805 169.6063,18.9275 L169.3043,18.8845 C169.2983,18.9365 168.5273,24.0935 165.0563,26.4895 C163.3373,27.6745 161.2353,27.9995 158.8063,27.4545 L158.7393,27.7505 C160.1043,28.0595 161.3733,28.0995 162.5323,27.8745" id="Fill-161" fill="#FFFFFF"></path>
                    <path d="M143.0939,26.7866 C144.1399,28.7576 145.7829,31.6706 147.1719,33.3066 C145.1799,34.3056 143.0489,34.5276 141.8439,32.7476 C140.3479,30.5376 140.8219,28.4916 143.0939,26.7866" id="Fill-163" fill="#FFAC73"></path>
                    <path d="M170.9064,52.2007 C176.1644,52.8567 179.7534,49.4047 181.2104,47.6397 C181.6994,50.7717 181.5824,53.2997 180.3294,54.3357 C177.6814,56.5217 174.0904,55.9087 170.9064,52.2007" id="Fill-165" fill="#333333"></path>
                    <path d="M165.3927,52.9038 C164.8877,55.8118 163.6897,57.6348 161.3177,57.8448 C158.2197,58.1198 156.5427,56.2708 155.5767,52.8248 C159.1797,54.4898 163.4247,53.5248 165.3927,52.9038" id="Fill-167" fill="#333333"></path>
                    <polygon id="Fill-169" fill="#FFFFFF" points="144.2452 38.3325 157.6642 102.8615 93.1352 116.2805 79.7152 51.7515"></polygon>
                    <polygon id="Fill-171" fill="#C7D3FF" points="141.2511 42.8979 153.0991 99.8689 96.1281 111.7159 84.2801 54.7459"></polygon>
                    <path d="M142.2716,64.5444 C143.5516,70.6984 139.5996,76.7254 133.4466,78.0044 C127.2926,79.2844 121.2656,75.3334 119.9866,69.1794 C118.7076,63.0244 122.6586,56.9994 128.8116,55.7194 C134.9656,54.4404 140.9926,58.3914 142.2716,64.5444" id="Fill-173" fill="#FF9100"></path>
                    <polygon id="Fill-175" fill="#B0C1FF" points="149.753 83.7817 153.226 100.4787 102.654 110.9957 129.294 70.3677"></polygon>
                    <polygon id="Fill-177" fill="#6989FF" points="146.631 101.8501 96.255 112.3261 91.497 89.4471 102.386 72.8391 120.07 84.4341"></polygon>
                    <path d="M68.4444,145.1909 C68.4444,145.1909 64.5394,161.9319 70.7364,162.7509 C76.9324,163.5679 75.2354,154.8559 75.0914,153.3669 C74.9494,151.8779 75.0714,145.2529 75.0714,145.2529 L68.4444,145.1909 Z" id="Fill-179" fill="#FFAC73"></path>
                    <path d="M68.2726,153.7046 C70.7266,154.1436 73.0656,154.1456 75.1606,153.9226 C75.1296,153.6886 75.1046,153.4986 75.0916,153.3666 C75.0286,152.7006 75.0176,151.0056 75.0256,149.3356 L71.2706,149.4536 C71.2706,149.4536 69.6616,149.5766 67.5536,150.3836 C66.9396,155.3666 66.8256,162.2126 70.7196,162.7466 C67.8196,160.7126 67.2836,153.8126 68.2726,153.7046" id="Fill-181" fill="#E3784E"></path>
                    <path d="M67.4005,157.894 C67.7475,160.465 68.6875,162.48 70.7365,162.75 C74.6535,163.267 75.4155,159.977 75.4105244,157.11 C72.7915,158.227 69.2495,158.078 67.4005,157.894" id="Fill-183" fill="#333333"></path>
                    <path d="M79.8019,141.9575 C79.8019,141.9575 90.3819,155.5075 94.9089,151.1965 C99.4359,146.8875 91.5889,142.7385 90.3399,141.9155 C89.0909,141.0925 84.0119,136.8385 84.0119,136.8385 L79.8019,141.9575 Z" id="Fill-185" fill="#FFAC73"></path>
                    <path d="M86.3214,147.436 C88.2044,145.801 89.6744,143.983 90.8144,142.21 C90.6144,142.088 90.4504,141.989 90.3404,141.915 C89.7814,141.546 88.4554,140.491 87.1604,139.437 L84.8944,142.434 C84.8944,142.434 83.9794,143.763 83.2854,145.91 C86.7774,149.517 92.0354,153.904 94.8954,151.207 C91.4914,152.188 85.7844,148.274 86.3214,147.436" id="Fill-187" fill="#E3784E"></path>
                    <path d="M89.0353,150.7446 C91.2543,152.0896 93.4123,152.6216 94.9093,151.1966 C97.7703,148.4736 95.6873,145.8136 93.4523,144.0176 C92.6783,146.7586 90.3383,149.4216 89.0353,150.7446" id="Fill-189" fill="#333333"></path>
                    <path d="M64.2032,127.4185 L71.8972,123.6195 L89.6232,140.8005 C89.6232,140.8005 82.8142,151.0345 67.5662,151.021512 C63.1732,138.9835 65.2412,130.4345 64.2032,127.4185" id="Fill-191" fill="#9ACADE"></path>
                    <path d="M73.0099,124.6978 L71.1929,123.9678 L64.2029,127.4188 C64.5319,128.3738 64.3019,130.1348 64.5619,132.4698 C66.0149,132.0208 68.7399,131.1298 69.6479,130.3508 C71.2889,128.9428 67.7399,133.8628 74.7729,138.0088 C81.8039,142.1548 83.4209,139.1608 85.4729,140.1828 C86.5849,140.7378 87.9649,141.6938 88.9979,142.4558 C89.4519,141.4578 89.6229,140.8008 89.6229,140.8008 L73.0099,124.6978 Z" id="Fill-193" fill="#66A3B5"></path>
                    <path d="M84.4718,74.9028 C84.4718,74.9028 97.0888,98.0688 98.6628,101.5538 C100.2388,105.0398 95.7728,115.6878 84.0638,122.3678 C72.3548,129.0478 46.8958,138.5198 44.4658,123.7988 C42.0348,109.0788 33.4258,81.8868 43.5878,74.1858 C53.7508,66.4848 69.5018,55.6028 84.4718,74.9028" id="Fill-195" fill="#FFAC73"></path>
                    <path d="M92.8927,115.3501 C91.2557,111.7771 85.8737,111.9951 84.6197,116.4121 C82.8127,122.7721 72.2777,125.8201 72.2777,125.8201 C71.1577,126.2071 71.2257,127.1791 71.7057,128.0791 C76.3687,126.3561 80.7627,124.2511 84.0637,122.3681 C87.6907,120.2991 90.6207,117.8501 92.8927,115.3501" id="Fill-197" fill="#E3784E"></path>
                    <path d="M25.6964,142.2104 C31.5104,141.7054 39.0664,143.6884 38.6964,149.8464 C38.4334,154.0354 36.1604,157.4724 36.1604,157.4724 C36.1604,157.4724 51.9164,148.1274 48.0444,143.4374 C47.2514,142.4684 46.1194,141.6404 44.8004,140.8864 C39.7934,137.9954 32.0434,136.1834 29.0344,131.7934 C20.2874,119.0364 14.8134,92.0994 16.6504,88.7984 C18.4874,85.4964 25.1604,77.9504 25.1604,77.9504 L27.2714,73.5874 C27.2714,73.5874 26.2444,73.4174 24.5504,73.3934 L24.5304,73.3894 C19.5754,73.2874 9.0654,74.3324 2.1484,83.9414 C-6.0086,95.2754 22.1034,124.6624 21.4824,132.3974 C20.8624,140.1304 19.8954,142.7074 25.6964,142.2104" id="Fill-199" fill="#5B1800"></path>
                    <path d="M27.34,135.8354 C29.576,138.4324 41.351,140.4264 44.8,140.8864 C39.793,137.9954 32.043,136.1834 29.034,131.7934 C20.287,119.0364 14.814,92.0994 16.651,88.7984 C18.487,85.4964 25.16,77.9504 25.16,77.9504 L27.272,73.5874 C27.272,73.5874 26.244,73.4174 24.551,73.3934 L24.53,73.3894 C24.53,73.3894 17.986,83.3254 8.357,89.5484 C3.007,93.0054 8.916,106.0934 14.685,114.2944 C20.466,122.4864 21.353,128.8834 27.34,135.8354" id="Fill-201" fill="#471100"></path>
                    <path d="M53.1417,82.272 C58.9927,74.893 70.5817,69.132 75.8117,66.898 C63.6627,59.67 51.8007,67.962 43.5877,74.186 C33.4257,81.887 42.0357,109.079 44.4657,123.799 C46.3887,135.45 62.7347,131.944 75.2747,126.665 C76.6967,125.877 78.0647,125.2 79.3447,124.697 C79.3447,124.697 62.9907,127.95 56.1277,122.786 C49.2667,117.622 45.7567,91.56 53.1417,82.272" id="Fill-203" fill="#E3784E"></path>
                    <path d="M53.9884,80.4448 C53.9884,80.4448 49.0574,83.0948 47.0314,89.8438 C45.0054,96.5928 48.1014,102.8238 48.1014,102.8238 C48.1014,102.8238 47.1544,96.7878 49.1384,92.4848 C51.1584,88.1068 56.4394,86.5068 53.9884,80.4448" id="Fill-205" fill="#471100"></path>
                    <path d="M67.5538,72.7739 C67.5538,72.7739 72.4118,69.3869 76.6928,69.2959 C80.9728,69.2049 84.1278,71.1559 84.1278,71.1559 C84.1278,71.1559 79.6938,70.4699 76.6378,72.3239 C73.5828,74.1769 70.3008,74.5159 67.5538,72.7739" id="Fill-207" fill="#471100"></path>
                    <path d="M71.7267,98.2134 C71.7267,98.2134 74.6297,97.1424 76.6117,95.8134 C78.5917,94.4844 79.9667,93.4004 79.9667,93.4004 C79.9667,93.4004 79.1727,96.9934 77.0867,97.9094 C75.5647,98.5794 71.7267,98.2134 71.7267,98.2134" id="Fill-209" fill="#E3784E"></path>
                    <path d="M75.4571,94.8843 C75.5701,95.0873 74.7521,95.7613 73.6281,96.3883 C72.5041,97.0153 71.5001,97.3583 71.3871,97.1543 C71.2721,96.9503 72.0921,96.2773 73.2161,95.6503 C74.3401,95.0233 75.3431,94.6803 75.4571,94.8843" id="Fill-211" fill="#FCCBA9"></path>
                    <path d="M77.2189,94.061 C77.2859,94.218 77.0159,94.485 76.6149,94.656 C76.2149,94.827 75.8349,94.837 75.7679,94.68 C75.7009,94.523 75.9709,94.256 76.3719,94.085 C76.7729,93.915 77.1519,93.904 77.2189,94.061" id="Fill-213" fill="#FCCBA9"></path>
                    <path d="M46.6437,129.3569 C43.8567,124.0689 41.6107,102.3949 45.9777,89.4129 C50.3577,76.4219 53.8617,70.1559 53.8617,70.1559 C53.8617,70.1559 80.4997,67.9659 84.4717,74.9029 C88.4317,81.8469 95.6677,95.6279 106.8707,108.0319 C117.7887,120.1019 118.6077,130.4319 118.690036,130.9229 C118.6947,130.3729 118.6997,121.4749 114.2817,113.5699 C109.7357,105.4229 102.0277,98.1149 95.0847,88.5479 C88.1227,78.9789 84.7987,51.6419 65.2407,50.0159 C52.3887,48.9489 41.9607,61.4379 41.9607,61.4379 C41.9607,61.4379 40.3867,62.5179 37.9517,64.3879 C37.8277,64.4729 37.7037,64.5579 37.5877,64.6559 C33.7197,67.6539 27.9627,72.4949 22.8737,78.1519 C16.7797,84.9189 11.6797,92.8989 12.0017,100.3859 C12.0427,101.2699 12.2077,102.1229 12.3447,103.0129 C12.6177,104.7399 13.0647,106.4019 13.6767,107.9869 C20.8757,127.0719 49.2127,134.2479 46.6437,129.3569" id="Fill-215" fill="#5B1800"></path>
                    <path d="M54.5128,70.1138 C54.5128,70.1138 49.7808,86.9618 49.1738,102.4588 C48.5678,117.9568 63.0118,147.3738 63.0118,147.3738 C63.0118,147.3738 47.0448,122.6178 45.7708,100.7208 C44.9308,86.3138 50.1918,73.4698 50.1918,73.4698 L53.9358,69.0138 L54.5128,70.1138 Z" id="Fill-217" fill="#5B1800"></path>
                    <path d="M55.6642,66.5112 C55.6642,66.5112 72.3102,62.6172 80.5622,64.8152 C88.8142,67.0122 92.7322,87.9302 96.7272,94.9542 C100.7222,101.9802 102.7132,103.6212 102.7132,103.6212 C102.7132,103.6212 97.3762,99.2112 90.4312,87.4232 C83.4862,75.6362 82.4622,70.6532 73.6492,68.4002 C64.8372,66.1482 55.6642,66.5112 55.6642,66.5112" id="Fill-219" fill="#7C250A"></path>
                    <path d="M42.9942,132.4839 C48.8792,129.7969 48.5852,128.6499 48.5852,128.6499 L45.4622,119.3639 C45.4622,119.3639 45.1702,119.3089 44.6402,119.2539 C41.4992,118.8739 30.0662,117.8549 27.0422,122.8799 C26.7272,123.4059 26.5562,123.9249 26.5122,124.4469 C26.4442,124.9859 26.5052,125.5269 26.6792,126.0459 L26.6952,126.0709 L26.6912,126.0909 C28.2622,130.7739 38.1852,134.6689 42.9942,132.4839" id="Fill-221" fill="#E3784E"></path>
                    <path d="M26.6788,126.0454 L26.6958,126.0704 C26.8058,125.8314 27.8298,123.8164 31.9358,122.4954 C36.2868,121.0804 43.4038,121.9414 43.4038,121.9414 L44.6398,119.2534 C41.4988,118.8734 30.0668,117.8554 27.0418,122.8804 C26.7278,123.4054 26.5558,123.9254 26.5118,124.4464 L26.6788,126.0454 Z" id="Fill-223" fill="#FFAC73"></path>
                    <path d="M13.6769,107.9868 C18.4059,106.6948 31.9689,101.9158 38.2349,88.4328 C45.8839,71.9438 41.9609,61.4378 41.9609,61.4378 C41.9609,61.4378 40.3869,62.5178 37.9509,64.3878 C37.8269,64.4728 37.7029,64.5578 37.5879,64.6558 C33.7199,67.6538 27.9629,72.4948 22.8739,78.1518 C16.7799,84.9188 11.6799,92.8988 12.0019,100.3858 C12.0429,101.2698 12.2079,102.1228 12.3449,103.0128 C12.6169,104.7398 13.0649,106.4018 13.6769,107.9868" id="Fill-225" fill="#7C250A"></path>
                    <path d="M27.7462,73.1353 L23.6142,73.3853 C23.6142,73.3853 19.4342,79.2573 17.6282,81.1793 C15.8202,83.1023 14.3662,84.9223 14.3662,84.9223 L16.5892,86.3203 L27.7462,73.1353 Z" id="Fill-227" fill="#EFC16F"></path>
                    <path d="M62.212,94.2417 C63.664,97.0157 63.398,100.0197 61.616,100.9527 C59.836,101.8857 57.215,100.3917 55.763,97.6187 C54.311,94.8447 54.577,91.8407 56.358,90.9077 C58.139,89.9747 60.76,91.4687 62.212,94.2417" id="Fill-229" fill="#FFFFFF"></path>
                    <path d="M56.3487,90.9517 C54.6197,91.8557 54.2997,94.6727 55.5697,97.3487 C55.6537,97.3017 55.7317,97.2527 55.8177,97.2077 C57.3767,96.3907 58.8707,96.1707 59.1567,96.7147 C59.4417,97.2587 58.4087,98.3607 56.8487,99.1777 C56.8227,99.1907 56.7957,99.2017 56.7697,99.2157 C58.2357,100.9357 60.1727,101.7087 61.5907,100.9667 C63.3857,100.0257 63.6667,97.0227 62.2197,94.2577 C60.7717,91.4917 58.1427,90.0117 56.3487,90.9517" id="Fill-231" fill="#471100"></path>
                    <path d="M55.4855,92.2974 C55.4855,92.2974 53.6545,93.7324 52.4355,92.8254 C53.5245,94.9224 55.0035,94.6134 55.5645,94.3274 C56.1255,94.0414 55.4855,92.2974 55.4855,92.2974" id="Fill-233" fill="#471100"></path>
                    <path d="M79.7931,79.6226 C79.7931,79.6226 81.9771,78.8196 81.8471,77.3076 C83.0581,79.3356 82.0181,80.4306 81.4801,80.7576 C80.9401,81.0846 79.7931,79.6226 79.7931,79.6226" id="Fill-235" fill="#471100"></path>
                    <path d="M83.8487,82.5415 C85.3007,85.3145 85.0907,88.2905 83.3787,89.1865 C81.6677,90.0825 79.1037,88.5605 77.6517,85.7865 C76.1997,83.0125 76.4097,80.0375 78.1197,79.1415 C79.8317,78.2455 82.3967,79.7675 83.8487,82.5415" id="Fill-237" fill="#FFFFFF"></path>
                    <path d="M78.1124,79.1841 C76.4514,80.0541 76.1854,82.8411 77.4594,85.5161 C77.5394,85.4701 77.6144,85.4231 77.6974,85.3791 C79.1964,84.5951 80.6414,84.4001 80.9264,84.9441 C81.2114,85.4881 80.2274,86.5651 78.7284,87.3491 C78.7034,87.3631 78.6774,87.3721 78.6524,87.3861 C80.1004,89.1161 81.9914,89.9131 83.3544,89.1991 C85.0804,88.2961 85.3044,85.3221 83.8564,82.5561 C82.4094,79.7911 79.8374,78.2821 78.1124,79.1841" id="Fill-239" fill="#471100"></path>
                    <path d="M63.711,107.3325 C65.183,109.6295 64.514,112.6845 62.217,114.1545 C59.921,115.6265 56.866,114.9575 55.395,112.6605 C53.924,110.3645 54.593,107.3105 56.889,105.8385 C59.186,104.3675 62.24,105.0365 63.711,107.3325" id="Fill-241" fill="#F96E43"></path>
                    <path d="M92.0216,92.022 C93.2806,93.987 92.7086,96.599 90.7436,97.858 C88.7786,99.117 86.1666,98.544 84.9076,96.58 C83.6486,94.615 84.2206,92.002 86.1856,90.744 C88.1506,89.485 90.7626,90.057 92.0216,92.022" id="Fill-243" fill="#F96E43"></path>
                </g>
                <g id="Group-248" transform="translate(134.000000, 203.000000)">
                    <mask id="mask-6" fill="white">
                        <use xlink:href="#path-5"></use>
                    </mask>
                    <g id="Clip-247"></g>
                    <path d="M7.046,0.324 C1.194,2.215 0.795,3.989 0.688,4.291 L0.688,4.291 C-1.492,10.389 6.833,17.95 10.835,14.645 L10.835,14.645 C14.566,11.565 13.134,0.135 8.181,0.135 L8.181,0.135 C7.821,0.135 7.442,0.195 7.046,0.324" id="Fill-246" mask="url(#mask-6)"></path>
                </g>
                <g id="Group-261" transform="translate(134.000000, 203.000000)">
                    <path d="M12.9034,7.6626 C7.4494,8.2086 4.4014,10.5616 2.8524,12.3556 C5.2014,15.0116 8.6554,16.4446 10.8354,14.6446 C12.4294,13.3286 13.0674,10.4866 12.9034,7.6626" id="Fill-249" fill="#EA6C84"></path>
                    <path d="M8.9073,0.2407 C8.3393,0.1017 7.7213,0.1047 7.0463,0.3227 C3.1083,1.5957 1.6613,2.8037 1.0893,3.5577 C1.6063,4.3597 2.5303,5.0887 4.1713,4.5957 C7.1103,3.7157 9.4263,2.7277 8.9073,0.2407" id="Fill-251" fill="#FFFFFF"></path>
                    <path d="M1.089,3.5581 C1.202,3.7341 1.345,3.9021 1.501,4.0581 C2.163,3.5111 4.957,1.4191 8.948,0.7871 C8.942,0.6091 8.948,0.4371 8.907,0.2411 C8.339,0.1021 7.722,0.1051 7.046,0.3231 C3.109,1.5961 1.661,2.8041 1.089,3.5581" id="Fill-253" fill="#CCCCCC"></path>
                    <path d="M10.8351,14.645 C11.0121,14.499 11.1721,14.329 11.3241,14.148 C7.9331,14.298 5.1811,12.21 4.0431,11.18 C3.5811,11.582 3.1761,11.982 2.8531,12.356 C5.2011,15.011 8.6551,16.445 10.8351,14.645" id="Fill-255" fill="#D65473"></path>
                    <path d="M1.2316,26.27 C1.2316,26.27 11.7666,23.222 13.5726,16.863 C15.3786,10.504 25.7436,12.839 21.1686,22.666 C16.5926,32.493 2.8936,30.841 1.7846,29.914 C0.6746,28.985 -0.5514,26.887 1.2316,26.27" id="Fill-257" fill="#FFAC73"></path>
                    <path d="M20.7296,14.3062 C21.6456,15.8722 21.7756,18.3092 20.2556,21.5742 C15.6806,31.4012 1.9816,29.7492 0.8726,28.8212 C0.8416,28.7962 0.8116,28.7672 0.7816,28.7402 C1.0586,29.1932 1.4266,29.6142 1.7846,29.9132 C2.8936,30.8412 16.5926,32.4932 21.1676,22.6652 C23.1046,18.5062 22.3646,15.6902 20.7296,14.3062" id="Fill-259" fill="#E3784E"></path>
                </g>
            </g>
        </g>
    </g>
</svg>