<?xml version="1.0" encoding="UTF-8"?>
<svg width="289px" height="265px" viewBox="0 0 289 265" version="1.1" xmlns="http://www.w3.org/2000/svg" xmlns:xlink="http://www.w3.org/1999/xlink">
    <!-- Generator: Sketch 57.1 (83088) - https://sketch.com -->
    <title>Group 27</title>
    <desc>Created with Sketch.</desc>
    <defs>
        <polygon id="path-1" points="0.991985363 0.24 14.8593233 0.24 14.8593233 27 0.991985363 27"></polygon>
        <polygon id="path-3" points="0.0395 0.456 11.8587297 0.456 11.8587297 10 0.0395 10"></polygon>
        <polygon id="path-5" points="0 0.49 107.692406 0.49 107.692406 83.1578 0 83.1578"></polygon>
    </defs>
    <g id="mockup-fixed" stroke="none" stroke-width="1" fill="none" fill-rule="evenodd">
        <g id="Desktop-HD" transform="translate(-955.000000, -1741.000000)">
            <g id="Group-27" transform="translate(955.000000, 1741.000000)">
                <circle id="Oval" fill="#F4F4FF" cx="142.5" cy="128.5" r="128.5"></circle>
                <g id="money-loss" transform="translate(0.000000, 42.000000)">
                    <g id="Path">
                        <path d="M2.23274587,0.506277207 L44.3790758,-4.26325641e-14 C46.10235,-0.0205125659 47.7153871,0.848123798 48.6485294,2.29903289 L61.8293129,22.7996863 L80.8329995,50.6616749 L64.2509541,77.1509079 L0.53390257,4.21826584 C-0.692410832,2.75960107 0.327729374,0.528947661 2.23274587,0.506277207 Z" fill="#FE646F" fill-rule="nonzero"></path>
                        <path d="M138.752771,74.3517033 L226.592682,168.572499 L213.019216,181.330595 C210.16914,184.009289 211.306668,188.775453 215.058901,189.874374 L282.064593,209.502811 C285.94196,210.63872 289.516622,206.985198 288.303418,203.127641 L266.696944,134.440936 C265.554053,130.807698 260.962826,129.694459 258.28615,132.401789 L247.429284,143.382641 L133.853476,28.3455954 L113.71107,50.6610783 L138.752771,74.3517033 Z" fill="#FE646F" fill-rule="nonzero"></path>
                        <polygon id="Path-2" fill="#DE404C" fill-rule="evenodd" points="80.0684902 51.0082943 134.293232 28.3378397 114.331377 51.0082943 61.8942634 77.2582943"></polygon>
                    </g>
                </g>
                <ellipse id="Oval-Copy-2" fill="#C6BFDD" cx="153" cy="257" rx="55" ry="8"></ellipse>
                <g id="cost" transform="translate(41.000000, 171.000000)">
                    <g>
                        <g id="Group" transform="translate(0.140165, 27.430364)" fill="#FFC50D" fill-rule="nonzero">
                            <path d="M35.1584864,55.1825448 L3.49192923,55.1825448 C1.60732355,55.1825448 0.0792235254,53.6615032 0.0792235254,51.7837298 L0.0792235254,41.4218228 L38.5711921,41.4218228 L38.5711921,51.7837298 C38.5711921,53.6615032 37.043092,55.1825448 35.1584864,55.1825448 Z" id="Path"></path>
                            <polygon id="Path" points="0.0792235254 27.6595825 38.5711921 27.6595825 38.5711921 41.4218228 0.0792235254 41.4218228"></polygon>
                            <polygon id="Path" points="0.0792235254 13.8988606 38.5711921 13.8988606 38.5711921 27.6595825 0.0792235254 27.6595825"></polygon>
                            <path d="M38.5711921,13.8988606 L0.0792235254,13.8988606 L0.0792235254,3.53695319 C0.0792235254,1.65918018 1.60732355,0.13813862 3.49192923,0.13813862 L35.1584864,0.13813862 C37.043092,0.13813862 38.5711921,1.65918018 38.5711921,3.53695319 L38.5711921,13.8988606 Z" id="Path"></path>
                        </g>
                        <path d="M28.2949868,68.8521866 L28.2949868,74.7177608 C28.2949868,76.7109022 26.6739516,78.3260603 24.6735577,78.3260603 L0.219388224,78.3260603 L0.219388224,78.6660936 C0.219388224,80.8459499 1.9942998,82.6129085 4.18056449,82.6129085 L34.7501805,82.6129085 C36.9379686,82.6129085 38.7098333,80.8459499 38.7098333,78.6660936 L38.7098333,68.8521866 L28.2949868,68.8521866 Z" id="Path" fill="#E09525" fill-rule="nonzero"></path>
                        <path d="M28.2949868,55.0899463 L28.2949868,60.9555205 C28.2949868,62.9486623 26.6739516,64.5653384 24.6735577,64.5653384 L0.219388224,64.5653384 L0.219388224,68.8521866 L38.7113568,68.8521866 L38.7113568,55.0899463 L28.2949868,55.0899463 Z" id="Path" fill="#E09525" fill-rule="nonzero"></path>
                        <path d="M28.2949868,41.3292244 L28.2949868,47.1947985 C28.2949868,49.18794 26.6739516,50.8046164 24.6735577,50.8046164 L0.219388224,50.8046164 L0.219388224,55.0899463 L38.7113568,55.0899463 L38.7113568,41.3292244 L28.2949868,41.3292244 Z" id="Path" fill="#E09525" fill-rule="nonzero"></path>
                        <path d="M112.279541,82.6129085 L80.6129841,82.6129085 C78.7283785,82.6129085 77.2002784,81.091867 77.2002784,79.2140936 L77.2002784,68.8521866 L115.692247,68.8521866 L115.692247,79.2140936 C115.692247,81.091867 114.164147,82.6129085 112.279541,82.6129085 L112.279541,82.6129085 Z" id="Path" fill="#FFC50D" fill-rule="nonzero"></path>
                        <polygon id="Path" fill="#FFC50D" fill-rule="nonzero" points="77.2002784 55.0899463 115.692247 55.0899463 115.692247 68.8521866 77.2002784 68.8521866"></polygon>
                        <path d="M105.275877,68.8521866 L105.275877,74.7177608 C105.275877,76.7109022 103.654842,78.3260603 101.654448,78.3260603 L77.2002784,78.3260603 L77.2002784,78.6660936 C77.2002784,80.8459499 78.97519,82.6129085 81.1614547,82.6129085 L111.731071,82.6129085 C113.918859,82.6129085 115.690724,80.8459499 115.690724,78.6660936 L115.690724,68.8521866 L105.275877,68.8521866 Z" id="Path" fill="#E09525" fill-rule="nonzero"></path>
                        <path d="M105.275877,55.0899463 L105.275877,60.9555205 C105.275877,62.9486623 103.654842,64.5653384 101.654448,64.5653384 L77.2002784,64.5653384 L77.2002784,68.8521866 L115.692247,68.8521866 L115.692247,55.0899463 L105.275877,55.0899463 Z" id="Path" fill="#E09525" fill-rule="nonzero"></path>
                        <path d="M34.7501805,27.5685024 L28.2949868,27.5685024 L28.2949868,33.4325583 C28.2949868,35.427218 26.6739516,37.0423761 24.6735577,37.0423761 L0.219388224,37.0423761 L0.219388224,41.3292244 L38.7113568,41.3292244 L38.7113568,31.5153173 C38.7113568,29.3354611 36.9379686,27.5685024 34.7501805,27.5685024 L34.7501805,27.5685024 Z" id="Path" fill="#E09525" fill-rule="nonzero"></path>
                        <path d="M115.692247,55.0899463 L77.2002784,55.0899463 L77.2002784,44.7280393 C77.2002784,42.8502663 78.7283785,41.3292244 80.6129841,41.3292244 L112.279541,41.3292244 C114.164147,41.3292244 115.692247,42.8502663 115.692247,44.7280393 L115.692247,55.0899463 Z" id="Path" fill="#FFC50D" fill-rule="nonzero"></path>
                        <path d="M111.731071,41.3292244 L105.275877,41.3292244 L105.275877,47.1947985 C105.275877,49.18794 103.654842,50.8046164 101.654448,50.8046164 L77.2002784,50.8046164 L77.2002784,55.0899463 L115.692247,55.0899463 L115.692247,45.2760393 C115.692247,43.096183 113.918859,41.3292244 111.731071,41.3292244 L111.731071,41.3292244 Z" id="Path" fill="#E09525" fill-rule="nonzero"></path>
                        <path d="M73.7890962,82.6129085 L42.122539,82.6129085 C40.2379334,82.6129085 38.7098333,81.091867 38.7098333,79.2140936 L38.7098333,68.8521866 L77.2002784,68.8521866 L77.2002784,79.2140936 C77.2002784,81.091867 75.6737018,82.6129085 73.7890962,82.6129085 L73.7890962,82.6129085 Z" id="Path" fill="#FFC50D" fill-rule="nonzero"></path>
                        <polygon id="Path" fill="#FFC50D" fill-rule="nonzero" points="38.7113568 55.0899463 77.2018019 55.0899463 77.2018019 68.8521866 38.7113568 68.8521866"></polygon>
                        <polygon id="Path" fill="#FFC50D" fill-rule="nonzero" points="38.7113568 41.3292244 77.2018019 41.3292244 77.2018019 55.0899463 38.7113568 55.0899463"></polygon>
                        <path d="M66.7869553,68.8521866 L66.7869553,74.7177608 C66.7869553,76.7109022 65.1643967,78.3260603 63.1640028,78.3260603 L38.7113568,78.3260603 L38.7113568,78.6660936 C38.7113568,80.8459499 40.4847449,82.6129085 42.6710096,82.6129085 L73.2406256,82.6129085 C75.4284137,82.6129085 77.2002784,80.8459499 77.2002784,78.6660936 L77.2002784,68.8521866 L66.7869553,68.8521866 Z" id="Path" fill="#E09525" fill-rule="nonzero"></path>
                        <path d="M66.7869553,55.0899463 L66.7869553,60.9555205 C66.7869553,62.9486623 65.1643967,64.5653384 63.1640028,64.5653384 L38.7113568,64.5653384 L38.7113568,68.8521866 L77.2018019,68.8521866 L77.2018019,55.0899463 L66.7869553,55.0899463 Z" id="Path" fill="#E09525" fill-rule="nonzero"></path>
                        <path d="M66.7869553,41.3292244 L66.7869553,47.1947985 C66.7869553,49.18794 65.1643967,50.8046164 63.1640028,50.8046164 L38.7113568,50.8046164 L38.7113568,55.0899463 L77.2018019,55.0899463 L77.2018019,41.3292244 L66.7869553,41.3292244 Z" id="Path" fill="#E09525" fill-rule="nonzero"></path>
                        <polygon id="Path" fill="#FFC50D" fill-rule="nonzero" points="38.7113568 27.5685024 77.2018019 27.5685024 77.2018019 41.3292244 38.7113568 41.3292244"></polygon>
                        <path d="M66.7869553,27.5685024 L66.7869553,33.4325583 C66.7869553,35.427218 65.1643967,37.0423761 63.1640028,37.0423761 L38.7113568,37.0423761 L38.7113568,41.3292244 L77.2018019,41.3292244 L77.2018019,27.5685024 L66.7869553,27.5685024 Z" id="Path" fill="#E09525" fill-rule="nonzero"></path>
                        <polygon id="Path" fill="#FFC50D" fill-rule="nonzero" points="38.7113568 13.8062621 77.2018019 13.8062621 77.2018019 27.5685024 38.7113568 27.5685024"></polygon>
                        <path d="M77.2002784,13.8062621 L38.7098333,13.8062621 L38.7098333,3.44435513 C38.7098333,1.56658173 40.2379334,0.0455401723 42.122539,0.0455401723 L73.7890962,0.0455401723 C75.6737018,0.0455401723 77.2002784,1.56658173 77.2002784,3.44435513 L77.2002784,13.8062621 Z" id="Path" fill="#FFC50D" fill-rule="nonzero"></path>
                        <path d="M66.7869553,13.8062621 L66.7869553,19.6718363 C66.7869553,21.6649778 65.1643967,23.2816542 63.1640028,23.2816542 L38.7113568,23.2816542 L38.7113568,27.5685024 L77.2018019,27.5685024 L77.2018019,13.8062621 L66.7869553,13.8062621 Z" id="Path" fill="#E09525" fill-rule="nonzero"></path>
                        <path d="M73.2406256,0.0455401723 L66.7869553,0.0455401723 L66.7869553,5.91111436 C66.7869553,7.90425581 65.1643967,9.51941392 63.1640028,9.51941392 L38.7113568,9.51941392 L38.7113568,13.8062621 L77.2018019,13.8062621 L77.2018019,3.9923551 C77.2002784,1.81249886 75.4284137,0.0455401723 73.2406256,0.0455401723 Z" id="Path" fill="#E09525" fill-rule="nonzero"></path>
                    </g>
                </g>
                <g id="Group-58" transform="translate(96.000000, 118.000000)">
                    <path d="M65.1313,106.1544 C65.1313,106.1544 42.1993,103.2814 47.5503,93.5494 C49.5683,90.8214 52.9443,90.1844 54.2203,93.3434 C55.4963,96.5044 60.3873,99.6864 63.2293,100.1404 C66.0713,100.5944 68.2523,104.1154 65.1313,106.1544" id="Fill-1" fill="#FFAC73"></path>
                    <path d="M47.4955,99.3527 C47.4955,99.3527 49.6365,95.4367 54.4945,93.9237 C57.2435,96.7477 62.1285,100.6327 65.0885,100.0987 C66.6825,99.8117 67.1915,102.0687 67.3215,104.2127 C67.4355,106.0867 65.7315,107.5407 63.9025,107.1137 C59.0805,105.9917 50.4585,103.4777 47.4955,99.3527" id="Fill-3" fill="#66A3B5"></path>
                    <path d="M46.477,114.8576 C46.477,114.8576 38.175,139.0216 47.213,141.1666 C56.251,143.3116 55.058,130.1736 55.072,127.9516 C55.085,125.7276 56.267,115.9516 56.267,115.9516 L46.477,114.8576 Z" id="Fill-5" fill="#606060"></path>
                    <path d="M43.015,133.4826 C43.139,137.3366 44.225,140.4576 47.213,141.1666 C52.926,142.5226 54.55,137.7736 54.976,133.5326 C50.935,134.7896 45.72,134.0336 43.015,133.4826" id="Fill-7" fill="#333333"></path>
                    <g id="Group-11" transform="translate(55.000000, 114.510000)">
                        <mask id="mask-2" fill="white">
                            <use xlink:href="#path-1"></use>
                        </mask>
                        <g id="Clip-10"></g>
                        <path d="M1.0268,1.995 C1.0268,1.995 -0.0122,27.523 9.2618,26.992 C18.5368,26.46 13.6318,14.214 13.0088,12.08 C12.3858,9.945 10.7188,0.24 10.7188,0.24 L1.0268,1.995 Z" id="Fill-9" fill="#606060" mask="url(#mask-2)"></path>
                    </g>
                    <g id="Group-14" transform="translate(58.000000, 131.510000)">
                        <mask id="mask-4" fill="white">
                            <use xlink:href="#path-3"></use>
                        </mask>
                        <g id="Clip-13"></g>
                        <path d="M0.0395,3.831 C1.2625,7.488 3.1955,10.168 6.2625,9.992 C12.1245,9.656 12.3205,4.641 11.5155,0.456 C8.0025,2.816 2.7895,3.584 0.0395,3.831" id="Fill-12" fill="#333333" mask="url(#mask-4)"></path>
                    </g>
                    <path d="M49.5326,99.2082 C49.5326,99.2082 45.7306,114.8972 45.7306,117.0402 C49.8356,118.5172 60.7066,120.2222 66.2526,117.0402 C65.6976,110.8632 64.0036,99.5402 64.0036,99.5402 L49.5326,99.2082 Z" id="Fill-15" fill="#9ACADE"></path>
                    <path d="M48.2133,106.1544 C48.2133,106.1544 48.0443,106.3574 47.7773,106.6774 C46.7803,111.0444 45.7303,115.9134 45.7303,117.0404 C47.1203,117.5404 49.2933,118.0624 51.7663,118.4164 C43.9803,116.7914 48.2133,106.1544 48.2133,106.1544" id="Fill-17" fill="#66A3B5"></path>
                    <path d="M53.4662,108.5802 C53.4662,108.5802 30.4372,110.5102 33.6592,99.8812 C35.0702,96.7952 38.2422,95.4742 40.1442,98.3022 C42.0452,101.1292 47.4872,103.2312 50.3622,103.0892 C53.2372,102.9462 56.0992,105.9392 53.4662,108.5802" id="Fill-19" fill="#FFAC73"></path>
                    <path d="M34.8061,105.5705 C34.8061,105.5705 36.0911,101.2975 40.5321,98.8125 C43.8051,101.0075 49.3871,103.7985 52.1731,102.6645 C54.9591,101.5305 55.8991,109.7575 55.8991,109.7575 C55.8991,109.7575 40.1241,110.4245 34.8061,105.5705" id="Fill-21" fill="#9ACADE"></path>
                    <path d="M48.2582,108.3664 C45.9322,108.7414 39.6432,107.6464 35.5872,103.8314 C35.0282,104.8484 34.8062,105.5704 34.8062,105.5704 C37.5602,108.0844 43.1162,109.1154 47.8362,109.5274 C47.9462,109.2224 48.0792,108.8554 48.2582,108.3664" id="Fill-23" fill="#66A3B5"></path>
                    <path d="M94.8861,86.6554 C90.9181,92.8124 67.2771,100.2864 55.0641,101.1184 C53.5001,101.2484 52.1611,101.2764 51.0951,101.2264 C50.4561,101.2114 49.7581,101.1344 49.0661,101.0224 C45.6331,100.4894 41.6941,99.0094 38.0231,97.2594 C31.4861,94.1484 25.7861,90.1324 25.1761,88.8554 C24.1341,86.7134 25.3811,83.6894 26.7391,76.1954 C28.0971,68.7004 25.1831,61.0414 25.5321,52.3804 C25.7301,47.4714 27.3001,42.9754 28.6571,40.0214 C29.6451,37.7544 30.5281,36.3524 30.5281,36.3524 C33.9061,32.0424 43.2681,15.1554 65.6871,19.2014 C88.1051,23.2464 99.7401,34.2284 102.3001,43.3394 C104.8771,52.4524 99.3621,79.7124 94.8861,86.6554" id="Fill-25" fill="#FFAC73"></path>
                    <path d="M17.5121,87.3439 C24.7471,88.7219 25.2291,87.4619 25.2291,87.4619 L28.4391,76.7809 C28.4391,76.7809 28.2031,76.5379 27.7471,76.1379 C25.0801,73.7179 15.1301,65.2469 9.0141,67.9259 C8.3761,68.2069 7.8741,68.5749 7.4911,69.0319 C7.0731,69.4879 6.7741,70.0309 6.5931,70.6269 L6.5931,70.6609 L6.5751,70.6779 C4.9521,76.0609 11.6081,86.2089 17.5121,87.3439" id="Fill-27" fill="#FFAC73"></path>
                    <path d="M13.0346,68.1369 L13.0296,68.1699 C13.3066,68.0589 15.7326,67.1999 20.1576,69.3309 C24.8576,71.5749 30.0536,77.8669 30.0536,77.8669 L33.1816,76.6179 C30.8886,73.8419 22.2546,64.0339 15.8166,65.8099 C15.1456,65.9969 14.5966,66.2899 14.1516,66.6869 L13.0346,68.1369 Z" id="Fill-29" fill="#FFAC73"></path>
                    <path d="M52.6957,82.421 C52.6957,82.421 47.7287,82.533 43.9867,81.718 C40.2457,80.901 37.5517,80.093 37.5517,80.093 C37.5517,80.093 40.8577,84.99 44.5117,85.129 C47.1817,85.231 52.6957,82.421 52.6957,82.421" id="Fill-31" fill="#E3784E"></path>
                    <path d="M78.0141,87.8488 C73.4681,96.5048 55.0561,101.1208 55.0561,101.1208 C67.2691,100.2928 89.6871,93.7008 93.6611,87.5368 C98.1381,80.5898 104.8791,52.4518 102.2971,43.3368 C99.7491,34.2258 88.1001,23.2498 65.6851,19.2018 C43.2691,15.1528 33.9101,32.0348 30.5301,36.3598 C30.5301,36.3598 29.6511,37.7488 28.6531,40.0238 C33.5661,39.6698 50.6531,39.4228 61.3591,44.7058 C73.4811,50.6678 82.5601,79.1938 78.0141,87.8488" id="Fill-33" fill="#E3784E"></path>
                    <path d="M59.599,43.2384 C59.599,43.2384 65.961,43.5644 71.334,49.5224 C76.706,55.4804 76.553,63.3984 76.553,63.3984 C76.553,63.3984 74.589,56.7264 70.452,53.2654 C66.242,49.7444 60.028,50.6694 59.599,43.2384" id="Fill-35" fill="#5B1800"></path>
                    <path d="M40.1078,41.298 C40.1078,41.298 33.5578,42.901 30.2588,46.488 C26.9608,50.075 26.2528,54.238 26.2528,54.238 C26.2528,54.238 29.0038,49.935 32.8868,48.72 C36.7688,47.505 39.5278,44.957 40.1078,41.298" id="Fill-37" fill="#5B1800"></path>
                    <path d="M45.1908,79.6486 C45.1358,80.0196 46.7498,80.5636 48.7938,80.8636 C50.8368,81.1646 52.5398,81.1066 52.5928,80.7366 C52.6478,80.3656 51.0348,79.8216 48.9908,79.5206 C46.9468,79.2206 45.2448,79.2776 45.1908,79.6486" id="Fill-39" fill="#FCCBA9"></path>
                    <path d="M42.0775,79.4171 C42.0655,79.6911 42.6235,79.9381 43.3215,79.9661 C44.0205,79.9941 44.5965,79.7941 44.6065,79.5201 C44.6185,79.2451 44.0605,79.0001 43.3625,78.9711 C42.6635,78.9421 42.0885,79.1431 42.0775,79.4171" id="Fill-41" fill="#FCCBA9"></path>
                    <path d="M23.1811,50.0314 C23.1811,50.0314 26.5161,39.9284 33.3221,35.8324 C40.1281,31.7354 51.1321,31.8624 51.1321,31.8624 C51.1321,31.8624 49.0901,31.8064 43.6601,33.8424 C38.2291,35.8774 35.0441,39.9004 35.0441,39.9004 C35.0441,39.9004 41.0301,36.9904 52.4951,35.1084 C64.1141,33.1704 74.1051,33.7834 74.1051,33.7834 C74.1051,33.7834 77.2921,52.1494 83.4291,62.8184 C89.5671,73.4874 87.7441,80.7344 87.7441,80.7344 L92.3691,80.3544 C92.3691,80.3544 97.7681,76.0154 102.1611,69.5434 C105.8191,64.1824 108.7731,57.3354 107.3641,50.2634 C104.3781,35.1714 89.7071,27.4644 88.7961,27.0024 C88.7721,26.9814 88.7491,26.9834 88.7491,26.9834 C88.7491,26.9834 92.0131,25.0134 100.5331,26.7774 C107.2301,28.1754 108.9381,29.6254 108.9381,29.6254 C108.9381,29.6254 108.3311,25.5104 100.1081,24.0574 C92.9981,22.8284 87.9511,25.4364 87.5001,25.6754 C87.6961,25.3234 89.6551,21.9164 89.0981,19.2304 C88.5121,16.4574 83.6261,12.8504 83.3411,12.6494 C83.5041,12.9954 84.9481,15.8534 85.8701,18.6434 C86.8571,21.6534 85.5321,24.8744 85.5321,24.8744 C85.5321,24.8744 71.8641,7.2604 46.8201,10.6594 C20.4221,14.2144 23.1811,50.0314 23.1811,50.0314" id="Fill-43" fill="#5B1800"></path>
                    <path d="M81.9281,34.1701 C81.7791,36.9821 84.7091,55.6431 92.3581,63.5741 C94.0631,65.3441 99.3161,68.9701 102.1611,69.5431 C105.8191,64.1831 108.7731,57.3351 107.3641,50.2641 C104.3781,35.1711 89.7071,27.4641 88.7961,27.0021 C88.7721,26.9821 88.7491,26.9830917 88.7491,26.9830917 C88.7491,26.9830917 82.0561,31.3611 81.9281,34.1701" id="Fill-45" fill="#7C250A"></path>
                    <path d="M83.3676,27.4249 C83.3676,27.4249 64.1216,8.9579 43.4566,14.8529 C22.7916,20.7469 23.9456,41.6169 23.9456,41.6169 C23.9456,41.6169 25.9136,18.9979 45.1816,16.2039 C64.4506,13.4089 83.3676,27.4249 83.3676,27.4249" id="Fill-47" fill="#7C250A"></path>
                    <path d="M96.2523,91.4318 C88.8883,91.5338 88.6323,90.2098 88.6323,90.2098 L87.3233,79.1338 C87.3233,79.1338 87.5983,78.9358 88.1163,78.6198 C91.1623,76.6998 102.4313,70.0838 107.9903,73.7828 C108.5693,74.1698 108.9993,74.6198 109.2983,75.1358 C109.6303,75.6578 109.8313,76.2438 109.9053,76.8628 L109.8993,76.8968 L109.9143,76.9158 C110.5783,82.4988 102.2633,91.3388 96.2523,91.4318" id="Fill-49" fill="#E3784E"></path>
                    <path d="M109.9057,76.8624 L109.8997,76.8964 C109.6717,76.7044 107.6357,75.1304 102.7667,75.7694 C97.5997,76.4314 90.6977,80.7844 90.6977,80.7844 L88.1167,78.6204 C91.1627,76.6994 102.4307,70.0844 107.9907,73.7824 C108.5697,74.1704 108.9997,74.6204 109.2987,75.1354 L109.9057,76.8624 Z" id="Fill-51" fill="#FFAC73"></path>
                    <path d="M82.7279,21.7912 C82.7279,21.7912 31.9469,-14.5358 14.4499,38.9232 C10.9589,50.2762 6.1439,71.7972 34.8689,95.6572 C49.4979,103.8432 70.2859,104.7372 83.3679,95.3362 C96.4499,85.9352 99.0219,76.9992 102.5509,69.3722 C106.0799,61.7452 116.9019,34.4772 82.7279,21.7912" id="Fill-53" fill="#5B1800"></path>
                    <g id="Group-57" transform="translate(0.000000, 0.510000)">
                        <mask id="mask-6" fill="white">
                            <use xlink:href="#path-5"></use>
                        </mask>
                        <g id="Clip-56"></g>
                        <path d="M69.5717,39.5448 C69.1467,39.5288 59.7767,45.8728 59.3567,38.4508 C50.8487,39.6808 31.9837,57.8928 23.9207,46.0348 C11.4267,50.6418 3.3637,44.2778 0.3527,35.5978 C-2.6573,26.9168 13.5357,-13.5782 51.0527,5.5758 C75.8637,8.0238 91.2747,18.8108 92.1827,26.7398 C102.5917,28.7668 117.2207,58.0198 99.1467,72.5608 C89.9697,74.2608 79.5587,83.1578 79.5587,83.1578 C79.5587,83.1578 86.3617,69.7318 85.4787,64.0858 C84.5947,58.4398 87.1927,40.1958 69.5717,39.5448" id="Fill-55" fill="#5B1800" mask="url(#mask-6)"></path>
                    </g>
                </g>
            </g>
        </g>
    </g>
</svg>