<?xml version="1.0" encoding="UTF-8"?>
<svg width="150px" height="150px" viewBox="0 0 150 150" version="1.1" xmlns="http://www.w3.org/2000/svg" xmlns:xlink="http://www.w3.org/1999/xlink">
    <!-- Generator: Sketch 57.1 (83088) - https://sketch.com -->
    <title>Group 21</title>
    <desc>Created with Sketch.</desc>
    <g id="mockup-fixed" stroke="none" stroke-width="1" fill="none" fill-rule="evenodd">
        <g id="Desktop-HD" transform="translate(-877.000000, -1293.000000)">
            <g id="Group-21" transform="translate(877.000000, 1293.000000)">
                <rect id="Rectangle-Copy-3" fill="#E0EEFF" x="0" y="0" width="150" height="150" rx="75"></rect>
                <g id="achievement" transform="translate(39.000000, 22.000000)">
                    <g>
                        <polygon id="Path" fill="#54549A" fill-rule="nonzero" points="22.2173112 0 49.6766672 0 41.6717803 10.2 30.2221981 10.2"></polygon>
                        <path d="M42.8117246,23.8000684 L53.8537695,11.0393964 C54.2952855,10.5291911 54.392042,9.80903421 54.1003223,9.20216499 L49.6766672,0 L35.9469892,15.8666439 L35.9469892,25.0039557 L42.8117246,25.0039557 L42.8117246,23.8000684 Z" id="Path" fill="#D9D9F8" fill-rule="nonzero"></path>
                        <path d="M42.8117246,23.8000684 L22.2173112,0 L17.7936561,9.20195976 C17.5019364,9.80882897 17.5984857,10.5287807 18.0400017,11.0391911 L29.0820466,23.7998632 L29.0820466,25.0039557 L42.8117246,25.0039557 L42.8117246,23.8000684 Z" id="Path" fill="#AFAFD5" fill-rule="nonzero"></path>
                        <polygon id="Path" fill="#FFA438" fill-rule="nonzero" points="32.5145179 27.8088531 39.3792533 27.8088531 39.3792533 40.1910785 32.5145179 40.1910785"></polygon>
                        <ellipse id="Oval" fill="#FFC55E" fill-rule="nonzero" cx="35.9469892" cy="57.7999316" rx="20.5944134" ry="20.4"></ellipse>
                        <circle id="Oval" fill="#FFA438" fill-rule="nonzero" transform="translate(35.935186, 57.799322) rotate(-45.000000) translate(-35.935186, -57.799322) " cx="35.9351859" cy="57.7993223" r="13.6629666"></circle>
                        <ellipse id="Oval" fill="#FFC55E" fill-rule="nonzero" transform="translate(35.932439, 57.793935) rotate(-80.792031) translate(-35.932439, -57.793935) " cx="35.9324386" cy="57.7939347" rx="6.80081319" ry="6.86229111"></ellipse>
                        <path d="M44.5866978,30.6 L27.3072806,30.6 C26.3919273,30.6 25.6497825,29.8648612 25.6497825,28.9581489 L25.6497825,25.4419195 C25.6497825,24.5352072 26.3919273,23.8000684 27.3072806,23.8000684 L44.5866978,23.8000684 C45.5020511,23.8000684 46.2441959,24.5352072 46.2441959,25.4419195 L46.2441959,28.9581489 C46.2441959,29.8648612 45.5020511,30.6 44.5866978,30.6 Z" id="Path" fill="#FFC55E" fill-rule="nonzero"></path>
                        <g id="Group" transform="translate(59.255556, 40.225352)" fill="#FFA438" fill-rule="nonzero">
                            <path d="M10.9786456,19.1140201 L4.113703,19.1140201 C3.25532619,19.1140201 2.55979857,18.4250584 2.55979857,17.5747847 C2.55979857,16.7245111 3.25532619,16.0355493 4.113703,16.0355493 L10.9786456,16.0355493 C11.8370224,16.0355493 12.53255,16.7245111 12.53255,17.5747847 C12.53255,18.4248531 11.8370224,19.1140201 10.9786456,19.1140201 Z" id="Path"></path>
                            <path d="M1.68691865,7.91803219 C1.2893263,7.91803219 0.89152677,7.76780282 0.587997437,7.46734406 C-0.0188540404,6.8660161 -0.0188540404,5.89157746 0.587997437,5.29045473 L5.4421877,0.482088531 C6.04924636,-0.118828974 7.03297146,-0.118828974 7.63982294,0.482088531 C8.24667442,1.0834165 8.24667442,2.05785513 7.63982294,2.65897787 L2.78563268,7.46734406 C2.48210335,7.76780282 2.08430381,7.91803219 1.68691865,7.91803219 L1.68691865,7.91803219 Z" id="Path"></path>
                            <path d="M6.54090172,35.1179638 C6.14330938,35.1179638 5.74550984,34.9677344 5.44198051,34.6672757 L0.58779025,29.8589095 C-0.0190612277,29.2575815 -0.0190612277,28.2831429 0.58779025,27.6820201 C1.19484891,27.0811026 2.17857401,27.0811026 2.78542549,27.6820201 L7.63961575,32.4903863 C8.24646723,33.0917143 8.24646723,34.0661529 7.63961575,34.6674809 C7.33629361,34.9677344 6.93849407,35.1179638 6.54090172,35.1179638 L6.54090172,35.1179638 Z" id="Path"></path>
                        </g>
                        <g id="Group" transform="translate(0.000000, 40.225352)" fill="#FFA438" fill-rule="nonzero">
                            <path d="M8.52471971,19.1140201 L1.65977712,19.1140201 C0.8016075,19.1140201 0.105872689,18.4250584 0.105872689,17.5747847 C0.105872689,16.7245111 0.8016075,16.0355493 1.65977712,16.0355493 L8.52471971,16.0355493 C9.38309652,16.0355493 10.0786241,16.7245111 10.0786241,17.5747847 C10.0786241,18.4248531 9.38288934,19.1140201 8.52471971,19.1140201 Z" id="Path"></path>
                            <path d="M6.09752099,35.1179638 C5.69992864,35.1179638 5.30212911,34.9677344 4.99859978,34.6672757 C4.3917483,34.0659477 4.3917483,33.0915091 4.99859978,32.4901811 L9.85279004,27.6818149 C10.4598487,27.0808974 11.4435738,27.0808974 12.0504253,27.6818149 C12.6572768,28.2831429 12.6572768,29.2575815 12.0504253,29.8587042 L7.19623502,34.6670704 C6.89291287,34.9677344 6.49511334,35.1179638 6.09752099,35.1179638 L6.09752099,35.1179638 Z" id="Path"></path>
                            <path d="M10.9515041,7.91803219 C10.5539117,7.91803219 10.1561122,7.76780282 9.85258285,7.46734406 L4.99839259,2.65897787 C4.39154111,2.0576499 4.39154111,1.08321127 4.99839259,0.482088531 C5.60545126,-0.118828974 6.58917635,-0.118828974 7.19602783,0.482088531 L12.0502181,5.29045473 C12.6570696,5.8917827 12.6570696,6.86622133 12.0502181,7.46734406 C11.7468959,7.76780282 11.3490964,7.91803219 10.9515041,7.91803219 Z" id="Path"></path>
                        </g>
                        <path d="M68.6135825,102 L3.28039585,102 C2.36504255,102 1.62289779,101.264861 1.62289779,100.358149 L1.62289779,86.6419195 C1.62289779,85.7352072 2.36504255,85.0000684 3.28039585,85.0000684 L68.6133754,85.0000684 C69.5287287,85.0000684 70.2708735,85.7352072 70.2708735,86.6419195 L70.2708735,100.358149 C70.2708735,101.264861 69.5289358,102 68.6135825,102 Z" id="Path" fill="#FFFFFF" fill-rule="nonzero"></path>
                        <path d="M1.62289779,100.358149 C1.62289779,101.264861 2.36504255,102 3.28039585,102 L43.0391061,102 L43.0391061,85.0000684 L3.28039585,85.0000684 C2.36504255,85.0000684 1.62289779,85.735002 1.62289779,86.6419195 L1.62289779,100.358149 Z" id="Path" fill="#65E1A3" fill-rule="nonzero"></path>
                        <g id="Group" transform="translate(29.006216, 23.601610)" fill="#FFA438" fill-rule="nonzero">
                            <path d="M15.5804818,0.198458753 L10.8151748,0.198458753 C11.7305282,0.198458753 12.4726729,0.933597586 12.4726729,1.84030986 L12.4726729,5.35653924 C12.4726729,6.26325151 11.7305282,6.99839034 10.8151748,6.99839034 L15.5804818,6.99839034 C16.4958351,6.99839034 17.2379798,6.26325151 17.2379798,5.35653924 L17.2379798,1.84030986 C17.2379798,0.933392354 16.4958351,0.198458753 15.5804818,0.198458753 Z" id="Path"></path>
                            <path d="M6.94077313,13.7983219 C6.1348147,13.7983219 5.34004438,13.8457304 4.55811967,13.935006 C14.809538,15.1050302 22.7698796,23.7300845 22.7698796,34.1983219 C22.7698796,44.6665594 14.809538,53.2916137 4.55811967,54.4616378 C5.34004438,54.5509135 6.1348147,54.5983219 6.94077313,54.5983219 C18.314732,54.5983219 27.5351865,45.4649095 27.5351865,34.1983219 C27.5351865,22.9317344 18.314732,13.7983219 6.94077313,13.7983219 L6.94077313,13.7983219 Z" id="Path"></path>
                            <path d="M8.49467756,27.575505 C7.99514908,27.4609859 7.47552344,27.3983903 6.94077313,27.3983903 C6.40602282,27.3983903 5.88639718,27.4609859 5.3868687,27.575505 L5.3868687,32.6592918 L0.254840327,32.6592918 C0.139229837,33.1541046 0.0760377235,33.6688249 0.0760377235,34.1985272 C0.0760377235,34.7282294 0.139229837,35.2429497 0.254840327,35.7377626 L5.3868687,35.7377626 L5.3868687,40.8213441 C5.88639718,40.9358632 6.40602282,40.9984588 6.94077313,40.9984588 C7.47552344,40.9984588 7.99514908,40.9358632 8.49467756,40.8213441 L8.49467756,35.7377626 L13.6267059,35.7377626 C13.7423164,35.2429497 13.8055085,34.7282294 13.8055085,34.1985272 C13.8055085,33.6688249 13.7423164,33.1541046 13.6267059,32.6592918 L8.49467756,32.6592918 L8.49467756,27.575505 Z" id="Path"></path>
                        </g>
                    </g>
                </g>
            </g>
        </g>
    </g>
</svg>