<?xml version="1.0" encoding="UTF-8"?>
<svg width="150px" height="150px" viewBox="0 0 150 150" version="1.1" xmlns="http://www.w3.org/2000/svg" xmlns:xlink="http://www.w3.org/1999/xlink">
    <!-- Generator: Sketch 57.1 (83088) - https://sketch.com -->
    <title>Group 13</title>
    <desc>Created with Sketch.</desc>
    <g id="mockup-fixed" stroke="none" stroke-width="1" fill="none" fill-rule="evenodd">
        <g id="Desktop-HD" transform="translate(-197.000000, -1293.000000)">
            <g id="Group-13" transform="translate(197.000000, 1293.000000)">
                <rect id="Rectangle" fill="#E0EEFF" x="0" y="0" width="150" height="150" rx="75"></rect>
                <g id="completed-task" transform="translate(40.000000, 31.000000)">
                    <g>
                        <g fill-rule="nonzero">
                            <path d="M5.41277473,2.71875 L64.9532967,2.71875 C67.9424804,2.71875 70.3660714,5.15341187 70.3660714,8.15625 L70.3660714,81.5625 C70.3660714,84.5653381 67.9424804,87 64.9532967,87 L5.41277473,87 C2.42359103,87 0,84.5653381 0,81.5625 L0,8.15625 C0,5.15341187 2.42359103,2.71875 5.41277473,2.71875 Z" id="Path" fill="#54549A"></path>
                            <polygon id="Path" fill="#EFEFEF" points="5.41277473 63.6569824 5.41277473 8.15625 64.9532967 8.15625 64.9532967 81.5625 23.2368727 81.5625"></polygon>
                            <polygon id="Path" fill="#AFAFD5" points="23.2368727 63.6569824 23.2368727 81.5625 5.41277473 63.6569824"></polygon>
                            <path d="M21.6510989,10.875 L21.6510989,0 L48.7149725,0 L48.7149725,10.875 C48.7149725,13.8778381 46.2913815,16.3125 43.3021978,16.3125 L27.0638736,16.3125 C24.0746899,16.3125 21.6510989,13.8778381 21.6510989,10.875 Z" id="Path" fill="#FF9700"></path>
                            <g id="Group" transform="translate(16.238324, 21.750000)" fill="#77959E">
                                <path d="M13.5319368,0 L35.1830357,0 C36.6776276,0 37.8894231,1.21733085 37.8894231,2.71875 C37.8894231,4.22016915 36.6776276,5.4375 35.1830357,5.4375 L13.5319368,5.4375 C12.0373449,5.4375 10.8255495,4.22016915 10.8255495,2.71875 C10.8255495,1.21733085 12.0373449,0 13.5319368,0 Z" id="Path"></path>
                                <path d="M13.5319368,11.1689189 L35.1830357,11.1689189 C36.6776276,11.1689189 37.8894231,12.3862498 37.8894231,13.8876689 C37.8894231,15.3890881 36.6776276,16.6064189 35.1830357,16.6064189 L13.5319368,16.6064189 C12.0373449,16.6064189 10.8255495,15.3890881 10.8255495,13.8876689 C10.8255495,12.3862498 12.0373449,11.1689189 13.5319368,11.1689189 Z" id="Path-Copy"></path>
                                <polygon id="Path" points="0 0 5.41277473 0 5.41277473 5.4375 0 5.4375"></polygon>
                                <polygon id="Path" points="0 10.875 5.41277473 10.875 5.41277473 16.3125 0 16.3125"></polygon>
                                <polygon id="Path" points="0 21.75 5.41277473 21.75 5.41277473 27.1875 0 27.1875"></polygon>
                                <polygon id="Path" points="0 32.625 5.41277473 32.625 5.41277473 38.0625 0 38.0625"></polygon>
                                <path d="M13.5319368,22.1418919 L29.770261,22.1418919 C31.2648529,22.1418919 32.4766484,23.3592227 32.4766484,24.8606419 C32.4766484,26.362061 31.2648529,27.5793919 29.770261,27.5793919 L13.5319368,27.5793919 C12.0373449,27.5793919 10.8255495,26.362061 10.8255495,24.8606419 C10.8255495,23.3592227 12.0373449,22.1418919 13.5319368,22.1418919 Z" id="Path"></path>
                                <path d="M13.5319368,33.0168919 L18.9447115,33.0168919 C20.4393035,33.0168919 21.6510989,34.2342227 21.6510989,35.7356419 C21.6510989,37.237061 20.4393035,38.4543919 18.9447115,38.4543919 L13.5319368,38.4543919 C12.0373449,38.4543919 10.8255495,37.237061 10.8255495,35.7356419 C10.8255495,34.2342227 12.0373449,33.0168919 13.5319368,33.0168919 Z" id="Path"></path>
                            </g>
                        </g>
                    </g>
                </g>
            </g>
        </g>
    </g>
</svg>