<?xml version="1.0" encoding="UTF-8"?>
<svg width="150px" height="150px" viewBox="0 0 150 150" version="1.1" xmlns="http://www.w3.org/2000/svg" xmlns:xlink="http://www.w3.org/1999/xlink">
    <!-- Generator: Sketch 57.1 (83088) - https://sketch.com -->
    <title>Group 15</title>
    <desc>Created with Sketch.</desc>
    <g id="mockup-fixed" stroke="none" stroke-width="1" fill="none" fill-rule="evenodd">
        <g id="Desktop-HD" transform="translate(-421.000000, -1293.000000)">
            <g id="Group-15" transform="translate(421.000000, 1293.000000)">
                <rect id="Rectangle-Copy" fill="#E0EEFF" x="0" y="0" width="150" height="150" rx="75"></rect>
                <g id="online-learning" transform="translate(29.000000, 42.000000)" fill-rule="nonzero">
                    <g>
                        <path d="M89.2036539,65.5689296 L3.73197586,65.5689296 C1.69832596,65.5689296 0.0497746479,63.9203783 0.0497746479,61.8867284 L0.0497746479,3.68220121 C0.0497746479,1.64855131 1.69832596,0 3.73197586,0 L89.2036539,0 C91.2373038,0 92.8858551,1.64855131 92.8858551,3.68220121 L92.8858551,61.8867284 C92.8858551,63.9203783 91.2373038,65.5689296 89.2036539,65.5689296 Z" id="Path" fill="#54549A"></path>
                        <path d="M10.8375875,59.5263622 L10.8375875,6.0425674 C10.8375875,5.3923159 11.3647123,4.86519115 12.0149638,4.86519115 L78.9122777,4.86519115 C79.5625292,4.86519115 80.0896539,5.3923159 80.0896539,6.0425674 L80.0896539,59.5263622 C80.0896539,60.1766137 79.5625292,60.7037384 78.9122777,60.7037384 L12.0149638,60.7037384 C11.3647123,60.7037384 10.8375875,60.1766137 10.8375875,59.5263622 Z" id="Path" fill="#FFFFFF"></path>
                        <path d="M63.0122716,56.0273541 C37.8719577,56.0273541 17.491672,35.6470684 17.491672,10.5067545 L17.491672,4.86519115 L12.0149638,4.86519115 C11.3647123,4.86519115 10.8375875,5.3923159 10.8375875,6.0425674 L10.8375875,59.5263622 C10.8375875,60.1766137 11.3647123,60.7037384 12.0149638,60.7037384 L78.9124648,60.7037384 C79.5627163,60.7037384 80.089841,60.1766137 80.089841,59.5263622 L80.089841,56.0273541 L63.0122716,56.0273541 Z" id="Path" fill="#F2F2F2"></path>
                        <path d="M38.8259095,50.4741127 L74.3955091,50.4741127 C74.8258913,50.4741127 75.1746881,50.1253159 75.1746881,49.6951207 L75.1746881,46.8416861 C75.1746881,46.4114909 74.8258913,46.0626942 74.3955091,46.0626942 L38.8259095,46.0626942 L29.1230342,46.0626942 L16.386338,46.0626942 C15.9561429,46.0626942 15.607159,46.4114909 15.607159,46.8416861 L15.607159,49.6951207 C15.607159,50.1253159 15.9559557,50.4741127 16.386338,50.4741127 L29.1230342,50.4741127 L38.8259095,50.4741127 Z" id="Path" fill="#FF9700"></path>
                        <path d="M24.8302515,32.5535553 L24.8302515,14.3438934 C24.8302515,11.7960302 26.8957123,9.73038229 29.4437626,9.73038229 L61.4834789,9.73038229 C64.0313421,9.73038229 66.0969899,11.7958431 66.0969899,14.3438934 L66.0969899,32.5535553 C66.0969899,35.1016056 64.0315292,37.1670664 61.4834789,37.1670664 L29.4437626,37.1670664 C26.8957123,37.1670664 24.8302515,35.1016056 24.8302515,32.5535553 Z" id="Path" fill="#FE646F"></path>
                        <path d="M51.8047425,32.7120483 C40.2482294,32.7120483 30.8797425,23.3435614 30.8797425,11.7870483 L30.8797425,9.88887525 C30.8797425,9.83573239 30.8819879,9.78315091 30.883672,9.73056942 L29.4435755,9.73056942 C26.8957123,9.73056942 24.8300644,11.7960302 24.8300644,14.3440805 L24.8300644,32.5537425 C24.8300644,35.1016056 26.8955252,37.1672535 29.4435755,37.1672535 L61.4832918,37.1672535 C63.9781992,37.1672535 66.0090423,35.1867465 66.0926861,32.7122354 L51.8047425,32.7122354 L51.8047425,32.7120483 Z" id="Path" fill="#FB2B3A"></path>
                        <path d="M41.2906901,28.4834487 L41.2906901,17.9577948 C41.2906901,17.0272334 42.3133159,16.4593159 43.1033481,16.9508873 L51.5583018,22.2137143 C52.3039859,22.6777787 52.3039859,23.7632777 51.5583018,24.2273421 L43.1033481,29.490169 C42.3133159,29.9819276 41.2906901,29.4140101 41.2906901,28.4834487 L41.2906901,28.4834487 Z" id="Path" fill="#FFFFFF"></path>
                        <circle id="Oval" fill="#FE646F" cx="33.9745654" cy="48.2683099" r="5.32962978"></circle>
                        <circle id="Oval" fill="#FFFFFF" cx="33.9745654" cy="48.2683099" r="2.42492354"></circle>
                        <circle id="Oval" fill="#D9D9F8" cx="86.5719598" cy="32.7844648" r="1.87122736"></circle>
                        <path d="M5.73587324,41.8937867 C4.96062374,41.8937867 4.33245272,41.2656157 4.33245272,40.4903662 L4.33245272,31.0045533 C4.33245272,30.2293038 4.96062374,29.6011328 5.73587324,29.6011328 C6.51112274,29.6011328 7.13929376,30.2293038 7.13929376,31.0045533 L7.13929376,40.4903662 C7.13929376,41.2656157 6.51112274,41.8937867 5.73587324,41.8937867 L5.73587324,41.8937867 Z" id="Path" fill="#D9D9F8"></path>
                        <path d="M5.73587324,28.1080805 C4.96062374,28.1080805 4.33245272,27.4799095 4.33245272,26.70466 L4.33245272,24.3966881 C4.33245272,23.6214386 4.96062374,22.9932676 5.73587324,22.9932676 C6.51112274,22.9932676 7.13929376,23.6214386 7.13929376,24.3966881 L7.13929376,26.70466 C7.13929376,27.4799095 6.51112274,28.1080805 5.73587324,28.1080805 Z" id="Path" fill="#D9D9F8"></path>
                        <path d="M79.5904105,77.1516398 L79.5904105,77.1441549 L79.3508934,77.1441549 C79.4313561,77.1441549 79.5118189,77.1462133 79.5904105,77.1516398 Z" id="Path" fill="#FFBD86"></path>
                    </g>
                </g>
            </g>
        </g>
    </g>
</svg>