<?xml version="1.0" encoding="UTF-8"?>
<svg width="150px" height="150px" viewBox="0 0 150 150" version="1.1" xmlns="http://www.w3.org/2000/svg" xmlns:xlink="http://www.w3.org/1999/xlink">
    <!-- Generator: Sketch 57.1 (83088) - https://sketch.com -->
    <title>Group 23</title>
    <desc>Created with Sketch.</desc>
    <g id="mockup-fixed" stroke="none" stroke-width="1" fill="none" fill-rule="evenodd">
        <g id="Desktop-HD" transform="translate(-1101.000000, -1291.000000)">
            <g id="Group-23" transform="translate(1101.000000, 1291.000000)">
                <rect id="Rectangle-Copy-4" fill="#E0EEFF" x="0" y="0" width="150" height="150" rx="75"></rect>
                <g id="comments" transform="translate(34.000000, 40.000000)" fill-rule="nonzero">
                    <g>
                        <path d="M71.1724766,0.161407115 L25.5164141,0.161407115 C19.5613242,0.161407115 14.6888906,5.0916166 14.6888906,11.1173202 L14.6888906,14.8452411 L55.988543,14.8452411 C61.9436328,14.8452411 66.8160664,19.7754506 66.8160664,25.8011542 L66.8160664,53.1150949 L71.1724766,53.1150949 C77.1275664,53.1150949 82,48.1848854 82,42.1591818 L82,11.1173202 C82,5.09145455 77.1275664,0.161407115 71.1724766,0.161407115 Z" id="Path" fill="#54549A"></path>
                        <path d="M63.495707,14.3443281 L17.8396445,14.3443281 C16.7448164,14.3443281 15.6869844,14.5122174 14.6888906,14.8217431 L14.6888906,14.8452411 L55.988543,14.8452411 C61.9436328,14.8452411 66.8160664,19.7754506 66.8160664,25.8011542 L66.8160664,53.1150949 L71.1723164,53.1150949 C72.2671445,53.1150949 73.3249766,52.9472055 74.3230703,52.6376798 L74.3230703,25.3002411 C74.3230703,19.2745375 69.4507969,14.3443281 63.495707,14.3443281 L63.495707,14.3443281 Z" id="Path" fill="#3F3F87"></path>
                        <path d="M56.4835859,14.3443281 L10.8275234,14.3443281 C4.87243359,14.3443281 0,19.2745375 0,25.3002411 L0,56.3419407 C0,62.3676443 4.87243359,67.2978538 10.8275234,67.2978538 L38.2296172,67.2978538 C39.4043633,67.2978538 40.2813789,68.4040435 40.0126367,69.5611186 C39.2860078,72.6915415 38.174043,76.0020079 36.5301992,79.3956087 C35.7920391,80.9197391 37.4712773,82.4691502 38.8976289,81.5759012 C43.0218125,78.9932253 48.8896172,74.6707233 53.8312383,68.5601028 C54.480832,67.7567945 55.4577852,67.2976917 56.4835859,67.2976917 C62.4386758,67.2976917 67.3111094,62.3674822 67.3111094,56.3417787 L67.3111094,25.3000791 C67.3111094,19.2745375 62.4386758,14.3443281 56.4835859,14.3443281 Z" id="Path" fill="#B5B5FB"></path>
                        <path d="M47.0247578,69.5611186 C47.2933398,68.4038814 46.4164844,67.2978538 45.2417383,67.2978538 L38.2296172,67.2978538 C39.4043633,67.2978538 40.2812188,68.4038814 40.0126367,69.5611186 C39.2860078,72.6915415 38.174043,76.0020079 36.5301992,79.3956087 C35.7920391,80.9197391 37.4712773,82.4691502 38.8976289,81.5759012 C40.4799727,80.5849328 42.3193672,79.3369447 44.2643047,77.8311265 C45.5186484,74.9849486 46.4102383,72.2084545 47.0247578,69.5611186 Z" id="Path" fill="#A3A3F5"></path>
                        <path d="M7.01212109,56.3419407 L7.01212109,25.3002411 C7.01212109,19.2745375 11.8845547,14.3443281 17.8396445,14.3443281 L10.8275234,14.3443281 C4.87243359,14.3443281 0,19.2745375 0,25.3002411 L0,56.3419407 C0,62.3676443 4.87243359,67.2978538 10.8275234,67.2978538 L17.8396445,67.2978538 C11.8843945,67.2978538 7.01212109,62.3678063 7.01212109,56.3419407 Z" id="Path" fill="#A3A3F5"></path>
                        <g id="Group" transform="translate(11.371094, 37.920949)" fill="#FFFFFF">
                            <ellipse id="Oval" cx="3.63778906" cy="3.7916087" rx="3.59294531" ry="3.63554941"></ellipse>
                            <ellipse id="Oval" cx="15.2427109" cy="3.7916087" rx="3.59294531" ry="3.63554941"></ellipse>
                            <ellipse id="Oval" cx="26.8474727" cy="3.7916087" rx="3.59294531" ry="3.63554941"></ellipse>
                            <ellipse id="Oval" cx="38.4523945" cy="3.7916087" rx="3.59294531" ry="3.63554941"></ellipse>
                        </g>
                    </g>
                </g>
            </g>
        </g>
    </g>
</svg>