<?xml version="1.0" encoding="UTF-8"?>
<svg width="150px" height="150px" viewBox="0 0 150 150" version="1.1" xmlns="http://www.w3.org/2000/svg" xmlns:xlink="http://www.w3.org/1999/xlink">
    <!-- Generator: Sketch 57.1 (83088) - https://sketch.com -->
    <title>Group 19</title>
    <desc>Created with Sketch.</desc>
    <g id="mockup-fixed" stroke="none" stroke-width="1" fill="none" fill-rule="evenodd">
        <g id="Desktop-HD" transform="translate(-648.000000, -1293.000000)">
            <g id="Group-19" transform="translate(648.000000, 1293.000000)">
                <rect id="Rectangle-Copy-2" fill="#E0EEFF" x="0" y="0" width="150" height="150" rx="75"></rect>
                <g id="Group-2" transform="translate(28.000000, 25.000000)">
                    <g>
                        <g id="elearning" transform="translate(0.000000, 28.785714)" fill-rule="nonzero">
                            <g>
                                <path d="M4.20740128,8.67012122 C2.03665054,8.67012122 0.277037615,10.4425429 0.277037615,12.6290953 L0.277037615,60.1360669 C0.277037615,62.3226192 2.03665054,64.0950409 4.20740128,64.0950409 L90.6739785,64.0950409 C92.8447292,64.0950409 94.6043421,62.3226192 94.6043421,60.1360669 L94.6043421,12.6290953 C94.6043421,10.4427819 92.8447292,8.67012122 90.6739785,8.67012122 L4.20740128,8.67012122 Z" id="Path" fill="#54549A"></path>
                                <path d="M82.8134884,0.752412093 L55.3014172,0.752412093 C50.960153,0.752412093 47.4409271,4.29725552 47.4409271,8.67012122 C47.4409271,4.29725552 43.9217013,0.752412093 39.580437,0.752412093 L12.0681286,0.752412093 C9.89737787,0.752412093 8.13776494,2.5248338 8.13776494,4.71138614 L8.13776494,48.2593837 L47.4406899,56.1773318 L86.7436148,48.2593837 L86.7436148,4.71138614 C86.7436148,2.5248338 84.9840019,0.752412093 82.8134884,0.752412093 Z" id="Path" fill="#FFFFFF"></path>
                                <path d="M31.7868488,16.5880693 L23.7918433,16.5880693 C22.7437147,16.5880693 21.8939192,15.7320878 21.8939192,14.6763296 L21.8939192,10.5820999 C21.8939192,9.52634165 22.7437147,8.67036018 23.7918433,8.67036018 L31.7868488,8.67036018 C32.8349774,8.67036018 33.6847729,9.52634165 33.6847729,10.5820999 L33.6847729,14.6763296 C33.6847729,15.7320878 32.8349774,16.5880693 31.7868488,16.5880693 Z" id="Path" fill="#D9D9F8"></path>
                                <path d="M39.5801998,26.2980344 L15.9984923,26.2980344 C15.015842,26.2980344 14.2191884,25.4955817 14.2191884,24.5057784 C14.2191884,23.5159752 15.015842,22.7135224 15.9984923,22.7135224 L39.5801998,22.7135224 C40.56285,22.7135224 41.3595037,23.5159752 41.3595037,24.5057784 C41.3595037,25.4955817 40.56285,26.2980344 39.5801998,26.2980344 Z" id="Path" fill="#5B7FA0"></path>
                                <path d="M39.5801998,34.2159825 L15.9984923,34.2159825 C15.015842,34.2159825 14.2191884,33.4135298 14.2191884,32.4237265 C14.2191884,31.4339233 15.015842,30.6314705 15.9984923,30.6314705 L39.5801998,30.6314705 C40.56285,30.6314705 41.3595037,31.4339233 41.3595037,32.4237265 C41.3595037,33.4135298 40.56285,34.2159825 39.5801998,34.2159825 Z" id="Path" fill="#5B7FA0"></path>
                                <path d="M39.5801998,42.1336917 L15.9984923,42.1336917 C15.015842,42.1336917 14.2191884,41.3312389 14.2191884,40.3414356 C14.2191884,39.3516324 15.015842,38.5491796 15.9984923,38.5491796 L39.5801998,38.5491796 C40.56285,38.5491796 41.3595037,39.3516324 41.3595037,40.3414356 C41.3595037,41.3312389 40.56285,42.1336917 39.5801998,42.1336917 Z" id="Path" fill="#5B7FA0"></path>
                                <path d="M71.0897737,16.5880693 L63.0947682,16.5880693 C62.0466396,16.5880693 61.1968441,15.7320878 61.1968441,14.6763296 L61.1968441,10.5820999 C61.1968441,9.52634165 62.0466396,8.67036018 63.0947682,8.67036018 L71.0897737,8.67036018 C72.1379023,8.67036018 72.9876978,9.52634165 72.9876978,10.5820999 L72.9876978,14.6763296 C72.9876978,15.7320878 72.1379023,16.5880693 71.0897737,16.5880693 Z" id="Path" fill="#D9D9F8"></path>
                                <path d="M78.8831247,26.2980344 L55.3014172,26.2980344 C54.318767,26.2980344 53.5221133,25.4955817 53.5221133,24.5057784 C53.5221133,23.5159752 54.318767,22.7135224 55.3014172,22.7135224 L78.8831247,22.7135224 C79.8657749,22.7135224 80.6624286,23.5159752 80.6624286,24.5057784 C80.6624286,25.4955817 79.8657749,26.2980344 78.8831247,26.2980344 Z" id="Path" fill="#5B7FA0"></path>
                                <path d="M78.8831247,34.2159825 L55.3014172,34.2159825 C54.318767,34.2159825 53.5221133,33.4135298 53.5221133,32.4237265 C53.5221133,31.4339233 54.318767,30.6314705 55.3014172,30.6314705 L78.8831247,30.6314705 C79.8657749,30.6314705 80.6624286,31.4339233 80.6624286,32.4237265 C80.6624286,33.4135298 79.8657749,34.2159825 78.8831247,34.2159825 Z" id="Path" fill="#5B7FA0"></path>
                                <path d="M78.8831247,42.1336917 L55.3014172,42.1336917 C54.318767,42.1336917 53.5221133,41.3312389 53.5221133,40.3414356 C53.5221133,39.3516324 54.318767,38.5491796 55.3014172,38.5491796 L78.8831247,38.5491796 C79.8657749,38.5491796 80.6624286,39.3516324 80.6624286,40.3414356 C80.6624286,41.3312389 79.8657749,42.1336917 78.8831247,42.1336917 Z" id="Path" fill="#5B7FA0"></path>
                                <path d="M90.6739785,8.67012122 L85.2174465,8.67012122 C87.3881973,8.67012122 89.1478102,10.4425429 89.1478102,12.6290953 L89.1478102,60.1358279 C89.1478102,62.3221413 87.3881973,64.094802 85.2174465,64.094802 L90.6739785,64.094802 C92.8447292,64.094802 94.6043421,62.3223803 94.6043421,60.1358279 L94.6043421,12.6290953 C94.6043421,10.4425429 92.8447292,8.67012122 90.6739785,8.67012122 Z" id="Path" fill="#AFAFD5"></path>
                                <path d="M82.8134884,0.752412093 L77.3569565,0.752412093 C79.5277072,0.752412093 81.2873201,2.5248338 81.2873201,4.71138614 L81.2873201,49.3586341 L86.743852,48.2593837 L86.743852,4.71138614 C86.7436148,2.5248338 84.9840019,0.752412093 82.8134884,0.752412093 Z" id="Path" fill="#F5F7FF"></path>
                                <path d="M47.4406899,56.1770929 C47.4406899,51.8042272 50.9599157,48.2591448 55.30118,48.2591448 L86.7436148,48.2591448 L86.7436148,52.2181188 C86.7436148,54.4046711 84.9840019,56.1770929 82.8132511,56.1770929 L47.4406899,56.1770929 Z" id="Path" fill="#BEC8F7"></path>
                                <path d="M81.2870829,48.2591448 L81.2870829,52.2181188 C81.2870829,54.4046711 79.52747,56.1770929 77.3567192,56.1770929 L47.4406899,56.1770929 L82.8132511,56.1770929 C84.9840019,56.1770929 86.7436148,54.4046711 86.7436148,52.2181188 L86.7436148,48.2591448 L81.2870829,48.2591448 Z" id="Path" fill="#A2B6F4"></path>
                                <path d="M39.5801998,0.752412093 L34.1234306,0.752412093 C38.4646949,0.752412093 41.9839207,4.29725552 41.9839207,8.67012122 L41.9839207,55.0778425 L47.4406899,56.1770929 L47.4406899,8.67012122 C47.4406899,4.29725552 43.921464,0.752412093 39.5801998,0.752412093 Z" id="Path" fill="#D3DCFB"></path>
                                <path d="M47.4406899,56.1770929 C47.4406899,51.8042272 43.921464,48.2591448 39.5801998,48.2591448 L8.13776494,48.2591448 L8.13776494,52.2181188 C8.13776494,54.4046711 9.89737787,56.1770929 12.0681286,56.1770929 L47.4406899,56.1770929 Z" id="Path" fill="#BEC8F7"></path>
                                <path d="M41.984158,56.1770929 L47.4409271,56.1770929 C47.4409271,51.8042272 43.9217013,48.2591448 39.580437,48.2591448 L34.1236679,48.2591448 C38.4646949,48.2591448 41.984158,51.8042272 41.984158,56.1770929 Z" id="Path" fill="#A2B6F4"></path>
                                <g id="Group" transform="translate(26.266974, 8.534866)" fill="#C1C1E5">
                                    <path d="M44.8228001,0.135255587 L39.3662681,0.135255587 C40.4143968,0.135255587 41.2641923,0.991237058 41.2641923,2.04699533 L41.2641923,6.14146393 C41.2641923,7.19722221 40.4143968,8.05320368 39.3662681,8.05320368 L44.8228001,8.05320368 C45.8709287,8.05320368 46.7207242,7.19722221 46.7207242,6.14146393 L46.7207242,2.0472343 C46.7207242,0.991237058 45.8709287,0.135255587 44.8228001,0.135255587 L44.8228001,0.135255587 Z" id="Path"></path>
                                    <path d="M5.51987514,0.135255587 L0.0633432184,0.135255587 C1.11147183,0.135255587 1.96126736,0.991237058 1.96126736,2.04699533 L1.96126736,6.14146393 C1.96126736,7.19722221 1.11147183,8.05320368 0.0633432184,8.05320368 L5.51987514,8.05320368 C6.56800375,8.05320368 7.41779928,7.19722221 7.41779928,6.14146393 L7.41779928,2.0472343 C7.41779928,0.991237058 6.56800375,0.135255587 5.51987514,0.135255587 L5.51987514,0.135255587 Z" id="Path"></path>
                                </g>
                            </g>
                        </g>
                        <g id="qa" transform="translate(20.988372, 0.000000)">
                            <g>
                                <path d="M28.8871274,0.216718266 C30.3318548,0.216718266 31.5032384,1.39951287 31.5032384,2.85867029 L31.5032384,18.7100635 C31.5032384,20.1692209 30.3320127,21.3520155 28.8871274,21.3520155 L24.9630398,21.3520155 C24.2405971,21.3520155 23.6550632,21.9434925 23.6550632,22.6729118 L23.6550632,24.7677196 C23.6550632,25.9446138 22.2461816,26.5338583 21.4222021,25.7017399 L17.4981145,21.7388916 C17.2528788,21.4912335 16.9201604,21.3520155 16.57323,21.3520155 L2.7264908,21.3520155 C1.28160543,21.3520155 0.110379768,20.1692209 0.110379768,18.7100635 L0.110379768,2.85867029 C0.110379768,1.39951287 1.28160543,0.216718266 2.7264908,0.216718266 L28.8871274,0.216718266 Z" id="Path" fill="#65E1A3" fill-rule="nonzero"></path>
                                <path d="M15.806888,17.2641421 C12.2688928,17.2641421 9.39049162,14.3573092 9.39049162,10.7843669 C9.39049162,7.21142458 12.2688928,4.30459164 15.806888,4.30459164 C19.3448833,4.30459164 22.2232845,7.21142458 22.2232845,10.7843669 C22.2232845,14.3573092 19.3448833,17.2641421 15.806888,17.2641421 Z M15.806888,6.69649351 C13.5749744,6.69649351 11.7591562,8.53024774 11.7591562,10.7842074 C11.7591562,13.0381671 13.5749744,14.8719213 15.806888,14.8719213 C18.0388017,14.8719213 19.8546199,13.0381671 19.8546199,10.7842074 C19.8546199,8.53024774 18.0388017,6.69649351 15.806888,6.69649351 Z" id="Shape" fill="#FFFFFF" fill-rule="nonzero"></path>
                                <path d="M21.0389522,17.2641421 C20.735921,17.2641421 20.432732,17.1474095 20.2015503,16.9137849 L16.2774627,12.9509366 C15.8149415,12.4838467 15.8149415,11.7265201 16.2774627,11.2595897 C16.739984,10.7924999 17.4899032,10.7923404 17.9522665,11.2595897 L21.8763541,15.222438 C22.3388753,15.6895279 22.3388753,16.4468545 21.8763541,16.9137849 C21.6451724,17.1472501 21.3419833,17.2641421 21.0389522,17.2641421 Z" id="Path" fill="#FFFFFF" fill-rule="nonzero"></path>
                                <path d="M34.1193494,23.993808 C32.674622,23.993808 31.5032384,25.1766026 31.5032384,26.6357601 L31.5032384,42.4871533 C31.5032384,43.9461512 32.6744641,45.1291053 34.1193494,45.1291053 L38.043437,45.1291053 C38.7658797,45.1291053 39.3514136,45.7205823 39.3514136,46.4500016 L39.3514136,48.5448094 C39.3514136,49.7217036 40.7602953,50.310948 41.5844326,49.4788296 L45.5085202,45.5159813 C45.7537559,45.2683233 46.0864743,45.1291053 46.4334047,45.1291053 L60.279986,45.1291053 C61.7248714,45.1291053 62.896097,43.9463107 62.896097,42.4871533 L62.896097,26.6357601 C62.896097,25.1766026 61.7248714,23.993808 60.279986,23.993808 L34.1193494,23.993808 Z" id="Path" fill="#FF6C6C" fill-rule="nonzero"></path>
                                <path d="M52.4327583,41.0416694 C51.9983452,41.0416694 51.5800391,40.7993148 51.3725441,40.3802256 L47.1995888,31.9520367 L43.0266335,40.3802256 C42.7341824,40.9710648 42.0231093,41.2105899 41.4375754,40.9150905 C40.8526732,40.6197507 40.6154909,39.9013349 40.9080999,39.3104958 L46.140322,28.7428472 C46.3410268,28.337632 46.7509637,28.0816814 47.1995888,28.0816814 C47.6482138,28.0816814 48.0583086,28.337632 48.2588556,28.7428472 L53.4910776,39.3104958 C53.7835287,39.9013349 53.5465044,40.6197507 52.9614442,40.9150905 C52.791532,41.0008858 52.610724,41.0416694 52.4327583,41.0416694 L52.4327583,41.0416694 Z" id="Path" fill="#FFFFFF" fill-rule="nonzero"></path>
                                <path d="M51.1236764,38.3992799 L43.2755012,38.3992799 C42.621276,38.3992799 42.0911689,37.8637771 42.0911689,37.2032492 C42.0911689,36.5427213 42.621276,36.0072185 43.2755012,36.0072185 L51.1236764,36.0072185 C51.7779015,36.0072185 52.3080086,36.5427213 52.3080086,37.2032492 C52.3080086,37.8637771 51.7779015,38.3992799 51.1236764,38.3992799 Z" id="Path" fill="#FFFFFF" fill-rule="nonzero"></path>
                                <g id="Group" transform="translate(39.319831, 23.914073)" fill="#F74242" fill-rule="nonzero">
                                    <path d="M2.5565786,21.6019087 L0.0315821939,24.1518461 L0.0315821939,24.6307367 C0.0315821939,25.8076309 1.44046386,26.3968754 2.26460121,25.564757 L6.1886888,21.6019087 C6.43392454,21.3542506 6.76664295,21.2150326 7.11357335,21.2150326 L3.48146314,21.2150326 C3.13453274,21.2150326 2.80181433,21.3540911 2.5565786,21.6019087 L2.5565786,21.6019087 Z" id="Path"></path>
                                    <path d="M20.9601546,0.0797353782 L17.3280444,0.0797353782 C18.7729298,0.0797353782 19.9441554,1.26252998 19.9441554,2.7216874 L19.9441554,18.5730806 C19.9441554,20.0320785 18.7729298,21.2150326 17.3280444,21.2150326 L20.9601546,21.2150326 C22.40504,21.2150326 23.5762657,20.032238 23.5762657,18.5730806 L23.5762657,2.7216874 C23.5762657,1.26252998 22.4048821,0.0797353782 20.9601546,0.0797353782 Z" id="Path"></path>
                                </g>
                                <g id="Group" transform="translate(19.896782, 0.152930)" fill="#57CF97" fill-rule="nonzero">
                                    <path d="M0.126170865,22.5199818 L0.126170865,24.135899 L1.52526205,25.5488099 C2.34924149,26.3809283 3.75812316,25.7915244 3.75812316,24.6147897 L3.75812316,22.5199818 C3.75812316,21.7904031 4.34381495,21.1990855 5.06609972,21.1990855 L1.43398951,21.1990855 C0.71186265,21.1989261 0.126170865,21.7904031 0.126170865,22.5199818 L0.126170865,22.5199818 Z" id="Path"></path>
                                    <path d="M8.99034522,0.0637883026 L5.35823502,0.0637883026 C6.80312039,0.0637883026 7.97434605,1.2465829 7.97434605,2.70574032 L7.97434605,18.5571335 C7.97434605,20.0162909 6.80312039,21.1990855 5.35823502,21.1990855 L8.99034522,21.1990855 C10.4350727,21.1990855 11.6064563,20.0162909 11.6064563,18.5571335 L11.6064563,2.70574032 C11.6064563,1.2465829 10.4352306,0.0637883026 8.99034522,0.0637883026 Z" id="Path"></path>
                                </g>
                            </g>
                        </g>
                    </g>
                </g>
            </g>
        </g>
    </g>
</svg>