<?xml version="1.0" encoding="utf-8"?>
<!-- Generator: Adobe Illustrator 23.0.6, SVG Export Plug-In . SVG Version: 6.00 Build 0)  -->
<svg version="1.1" id="Layer_1" xmlns="http://www.w3.org/2000/svg" xmlns:xlink="http://www.w3.org/1999/xlink" x="0px" y="0px"
	 viewBox="0 0 1280 411" style="enable-background:new 0 0 1280 411;" xml:space="preserve">
<style type="text/css">
	.st0{fill-rule:evenodd;clip-rule:evenodd;fill:#D4E2F3;stroke:#D4E2F3;}
	.st1{fill-rule:evenodd;clip-rule:evenodd;fill:#FF7B6A;}
	.st2{fill-rule:evenodd;clip-rule:evenodd;fill:#A03E3E;}
	.st3{fill-rule:evenodd;clip-rule:evenodd;fill:#FF5542;}
	.st4{fill-rule:evenodd;clip-rule:evenodd;fill:#F2F3F4;}
	.st5{fill-rule:evenodd;clip-rule:evenodd;fill:#333333;}
	.st6{fill-rule:evenodd;clip-rule:evenodd;fill:#434370;}
	.st7{fill-rule:evenodd;clip-rule:evenodd;fill:#FAF6F9;}
	.st8{fill-rule:evenodd;clip-rule:evenodd;fill:#FFFFFF;}
	.st9{fill-rule:evenodd;clip-rule:evenodd;fill:#D8D8D8;}
	.st10{enable-background:new    ;}
	.st11{fill-rule:evenodd;clip-rule:evenodd;fill:#19232D;}
	.st12{fill-rule:evenodd;clip-rule:evenodd;fill:#D62222;}
	.st13{fill-rule:evenodd;clip-rule:evenodd;fill:#8F7200;}
	.st14{fill-rule:evenodd;clip-rule:evenodd;fill:#B02B19;}
	.st15{fill-rule:evenodd;clip-rule:evenodd;fill:#BE9700;}
	.st16{fill-rule:evenodd;clip-rule:evenodd;fill:#907200;}
	.st17{fill-rule:evenodd;clip-rule:evenodd;fill:#FBC800;}
	.st18{fill-rule:evenodd;clip-rule:evenodd;fill:#4486CA;}
	.st19{fill-rule:evenodd;clip-rule:evenodd;fill:#F2513F;}
	.st20{fill-rule:evenodd;clip-rule:evenodd;fill:#909091;}
	.st21{fill-rule:evenodd;clip-rule:evenodd;fill:#6C6F71;}
	.st22{fill-rule:evenodd;clip-rule:evenodd;fill:#BDC2C6;}
	.st23{fill-rule:evenodd;clip-rule:evenodd;fill:#FCFCFD;}
	.st24{fill-rule:evenodd;clip-rule:evenodd;fill:#888D91;}
	.st25{fill-rule:evenodd;clip-rule:evenodd;fill:#D7DCE1;}
	.st26{fill-rule:evenodd;clip-rule:evenodd;fill:#094788;}
	.st27{fill-rule:evenodd;clip-rule:evenodd;fill:#EBF1FF;}
	.st28{fill:#00DD80;}
	.st29{fill:#00AA63;}
	.st30{fill:#FFFFFF;}
	.st31{fill:#E1EBF0;}
	.st32{fill:#B4D2D7;}
	.st33{fill:#6FA5AA;}
	.st34{fill:#9B7ED0;}
	.st35{fill:#5F45A9;}
	.st36{fill:#734BBD;}
	.st37{fill:#E3E7EA;}
	.st38{fill-rule:evenodd;clip-rule:evenodd;fill:#32325C;}
	.st39{fill-rule:evenodd;clip-rule:evenodd;fill:#FFAC73;}
	.st40{fill-rule:evenodd;clip-rule:evenodd;fill:#E3784E;}
	.st41{fill-rule:evenodd;clip-rule:evenodd;fill:#9ACADE;}
	.st42{fill-rule:evenodd;clip-rule:evenodd;fill:#66A3B5;}
	.st43{fill-rule:evenodd;clip-rule:evenodd;fill:#5B1800;}
	.st44{fill-rule:evenodd;clip-rule:evenodd;fill:#471100;}
	.st45{fill-rule:evenodd;clip-rule:evenodd;fill:#FCCBA9;}
	.st46{fill-rule:evenodd;clip-rule:evenodd;fill:#7C250A;}
	.st47{fill-rule:evenodd;clip-rule:evenodd;fill:#EFC16F;}
	.st48{fill-rule:evenodd;clip-rule:evenodd;fill:#F96E43;}
	.st49{fill:none;stroke:#471100;stroke-width:1.431;stroke-linecap:round;}
	.st50{fill-rule:evenodd;clip-rule:evenodd;fill:#366078;}
	.st51{fill-rule:evenodd;clip-rule:evenodd;fill:#3E708A;}
	.st52{fill-rule:evenodd;clip-rule:evenodd;fill:#4B86A6;}
	.st53{fill-rule:evenodd;clip-rule:evenodd;fill:#376279;}
	.st54{fill-rule:evenodd;clip-rule:evenodd;fill:#264454;}
	.st55{fill-rule:evenodd;clip-rule:evenodd;fill:#E55D4C;}
	.st56{fill-rule:evenodd;clip-rule:evenodd;fill:#B4B4B4;}
	.st57{fill-rule:evenodd;clip-rule:evenodd;fill:#FEFEFE;}
	.st58{fill-rule:evenodd;clip-rule:evenodd;fill:#32596F;}
	.st59{fill-rule:evenodd;clip-rule:evenodd;fill:#EBEBEB;}
	.st60{fill-rule:evenodd;clip-rule:evenodd;fill-opacity:0.2538;}
	.st61{fill-rule:evenodd;clip-rule:evenodd;fill:#0A253F;}
	.st62{fill-rule:evenodd;clip-rule:evenodd;fill:#0B2D4F;}
	.st63{fill-rule:evenodd;clip-rule:evenodd;fill:#164072;}
	.st64{fill-rule:evenodd;clip-rule:evenodd;fill:#FFD629;}
	.st65{fill-rule:evenodd;clip-rule:evenodd;fill:#FFF42C;}
	.st66{fill-rule:evenodd;clip-rule:evenodd;fill:#D4E2F3;}
	.st67{fill-rule:evenodd;clip-rule:evenodd;fill:#D77B00;}
	.st68{fill-rule:evenodd;clip-rule:evenodd;fill:#EFA300;}
	.st69{fill-rule:evenodd;clip-rule:evenodd;fill:#EDEDED;}
	.st70{fill-rule:evenodd;clip-rule:evenodd;fill:#B0B0B0;}
	.st71{fill-rule:evenodd;clip-rule:evenodd;fill:#FFC611;}
	.st72{fill-rule:evenodd;clip-rule:evenodd;fill:#EB8022;}
	.st73{fill-rule:evenodd;clip-rule:evenodd;fill:#AC0000;}
	.st74{fill-rule:evenodd;clip-rule:evenodd;fill:#DB1D1D;}
	.st75{fill-rule:evenodd;clip-rule:evenodd;fill:#1D65AF;}
	.st76{fill:#0D0D6D;}
	.st77{fill:#009243;}
	.st78{fill:none;}
	.st79{fill:#F04733;}
	.st80{fill:#FDD100;}
	.st81{fill:#2278F4;}
	.st82{fill:#282828;}
	.st83{font-family:'material';}
	.st84{font-size:27px;}
	.st85{fill:#FFDA00;}
	.st86{fill:none;stroke:#471100;stroke-width:0.96;stroke-linecap:round;}
	.st87{fill-rule:evenodd;clip-rule:evenodd;fill:#494949;}
	.st88{fill-rule:evenodd;clip-rule:evenodd;fill:#606060;}
	.st89{fill-rule:evenodd;clip-rule:evenodd;fill:#474747;}
	.st90{fill-rule:evenodd;clip-rule:evenodd;fill:#515151;}
</style>
<title>Group 28</title>
<desc>Created with Sketch.</desc>
<g id="mockup-fixed">
	<g id="Desktop-HD" transform="translate(-88.000000, -2378.000000)">
		<g transform="translate(89.000000, 2355.000000)">
			<path id="Path-3" class="st0" d="M94.5,295.7c-59-3.7-90.4-1.3-94.1,7c-5.5,12.5,47,2.5,47,15.1s-30.5,8.5-21.5,22.6
				s171-2.3,150,11.2s-93.6,58.2,181.6,58.2s714.4,5.5,749.4-7c23.3-8.4,4-18.9-58-31.6c-14.3-10.4,0.2-15.6,43.5-15.6
				c65,0,127.1,4.5,127.1-9.5c0-14.1-31-28.6,14.2-28.8c45.2-0.2,77-22.6-14-22.6C1159,294.7,783.9,295,94.5,295.7z"/>
			<g id="Group-35" transform="translate(472.000000, 384.000000)">
				<g>
					<polygon id="Fill-1" class="st1" points="0,6.5 55.9,38.8 55.8,37.5 0,5.2 					"/>
					<polygon id="Fill-2" class="st2" points="55.8,37.5 55.9,38.8 64.9,33.5 64.8,32.3 					"/>
					<polygon id="Fill-3" class="st3" points="9,0 0,5.2 55.8,37.5 64.8,32.3 					"/>
					<g id="Group-34" transform="translate(6.139535, 0.298308)">
						<path id="Fill-4" class="st4" d="M58,31.4l-3.1,1.8c-0.3,0.2-0.8,0.2-1,0.1c-0.3-0.1-0.2-0.4,0.1-0.6l3.1-1.8L58,31.4z"/>
						<path id="Fill-6" class="st4" d="M54.2,29.3l-3.1,1.8c-0.3,0.2-0.8,0.2-1,0.1c-0.3-0.1-0.2-0.4,0.1-0.6l3.1-1.8L54.2,29.3z"/>
						<path id="Fill-8" class="st4" d="M50.5,27.1l-3.1,1.8c-0.3,0.2-0.8,0.2-1,0.1c-0.3-0.1-0.2-0.4,0.1-0.6l3.1-1.8L50.5,27.1z"/>
						<path id="Fill-10" class="st4" d="M46.7,25l-3.1,1.8c-0.3,0.2-0.8,0.2-1,0.1c-0.3-0.1-0.2-0.4,0.1-0.6l3.1-1.8L46.7,25z"/>
						<path id="Fill-12" class="st4" d="M43,22.8l-3.1,1.8c-0.3,0.2-0.8,0.2-1,0.1c-0.3-0.1-0.2-0.4,0.1-0.6l3.1-1.9L43,22.8z"/>
						<path id="Fill-14" class="st4" d="M39.2,20.7L36,22.6c-0.3,0.2-0.8,0.2-1,0.1c-0.3-0.1-0.2-0.4,0.1-0.6l3.2-1.9L39.2,20.7z"/>
						<path id="Fill-16" class="st4" d="M35.5,18.5l-3.2,1.9c-0.3,0.2-0.8,0.2-1,0.1c-0.3-0.1-0.2-0.4,0.1-0.6l3.2-1.9L35.5,18.5z"
							/>
						<path id="Fill-18" class="st4" d="M31.8,16.4l-3.2,1.9c-0.3,0.2-0.8,0.2-1,0.1c-0.3-0.1-0.2-0.4,0.1-0.6l3.2-1.9L31.8,16.4z"
							/>
						<path id="Fill-20" class="st4" d="M28,14.2l-3.2,1.9c-0.3,0.2-0.8,0.2-1,0.1c-0.3-0.1-0.2-0.4,0.1-0.6l3.2-1.9L28,14.2z"/>
						<path id="Fill-22" class="st4" d="M24.3,12.1L21,14c-0.3,0.2-0.8,0.2-1,0.1c-0.3-0.1-0.2-0.4,0.1-0.6l3.2-1.9L24.3,12.1z"/>
						<path id="Fill-24" class="st4" d="M20.5,9.9l-3.2,1.9c-0.3,0.2-0.8,0.2-1,0.1c-0.3-0.1-0.2-0.4,0.1-0.6l3.3-1.9L20.5,9.9z"/>
						<path id="Fill-26" class="st4" d="M16.8,7.8l-3.3,1.9c-0.3,0.2-0.8,0.2-1,0.1c-0.3-0.1-0.2-0.4,0.1-0.6l3.3-1.9L16.8,7.8z"/>
						<path id="Fill-28" class="st4" d="M13,5.6L9.8,7.5C9.4,7.7,9,7.8,8.7,7.6C8.4,7.5,8.5,7.2,8.8,7l3.3-1.9L13,5.6z"/>
						<path id="Fill-30" class="st4" d="M9.3,3.5L6,5.4C5.7,5.6,5.2,5.6,5,5.5C4.7,5.3,4.7,5.1,5.1,4.9L8.4,3L9.3,3.5z"/>
						<path id="Fill-32" class="st4" d="M5.6,1.3l-3.3,2C2,3.5,1.5,3.5,1.3,3.4C0.9,3.2,1,2.9,1.3,2.7l3.3-2L5.6,1.3z"/>
					</g>
				</g>
			</g>
			<g id="Group-6" transform="translate(54.000000, 69.000000)">
				<g>
					
						<g id="Group-37-Copy" transform="translate(240.869565, 131.928571) rotate(-90.000000) translate(-240.869565, -131.928571) translate(109.869565, -108.071429)">
						<g id="Group-37" transform="translate(0.000000, 0.000000)">
							<path class="st5" d="M6.4,404.7c-0.4,0.3-1.2,0.5-2.3,0.7c12.1-7.5,13-15.4,13-17.4c0.7,0.4,1.3,0.7,1.4,1
								C20.7,395.6,8.2,403.3,6.4,404.7"/>
							<g id="Group-5" transform="translate(0.000000, 0.060784)">
								<g id="Clip-4">
								</g>
								<path class="st6" d="M36.8,478.8C16.5,478.8,0,462,0,441.3L-0.1,27.1c0-9.4,7.6-17,17-17l0,0h229c9.4,0,17,7.6,17,17l0,0
									L262,441.3l0,0c0,20.7-16.5,37.5-36.8,37.5H36.8z"/>
							</g>
							<path class="st7" d="M228.8,438.4H33.2c-10.2,0-18.5-8.3-18.5-18.6V76.7c0-10.3,8.3-18.6,18.5-18.6h195.6
								c10.2,0,18.5,8.3,18.5,18.6v343.1C247.3,430.1,239,438.4,228.8,438.4"/>
							<path class="st7" d="M215.4,418h-70.9c-3.9,0-7.1,3.2-7.1,7.1s3.2,7.1,7.1,7.1h70.9c3.9,0,7.1-3.2,7.1-7.1
								S219.3,418,215.4,418"/>
							<path class="st7" d="M192.3,322.3h-33.1c-2.1,0-3.8-1.7-3.8-3.8c0-2.1,1.7-3.8,3.8-3.8h33.1c2.1,0,3.8,1.7,3.8,3.8
								C196.1,320.6,194.4,322.3,192.3,322.3"/>
							<path class="st7" d="M150.4,318.5c0,3.9-3.2,7.1-7,7.1c-3.9,0-7-3.2-7-7.1s3.2-7.1,7-7.1
								C147.2,311.5,150.4,314.6,150.4,318.5"/>
							<path class="st7" d="M192.3,364.2h-33.1c-2.1,0-3.8-1.7-3.8-3.8c0-2.1,1.7-3.8,3.8-3.8h33.1c2.1,0,3.8,1.7,3.8,3.8
								C196.1,362.5,194.4,364.2,192.3,364.2"/>
							<path class="st7" d="M150.4,360.4c0,3.9-3.2,7.1-7,7.1c-3.9,0-7-3.2-7-7.1s3.2-7.1,7-7.1S150.4,356.5,150.4,360.4"/>
							<path class="st7" d="M192.3,406h-33.1c-2.1,0-3.8-1.7-3.8-3.8c0-2.1,1.7-3.8,3.8-3.8h33.1c2.1,0,3.8,1.7,3.8,3.8
								C196.1,404.3,194.4,406,192.3,406"/>
							<path class="st7" d="M150.4,402.3c0,3.9-3.2,7.1-7,7.1c-3.9,0-7-3.2-7-7.1s3.2-7.1,7-7.1
								C147.2,395.2,150.4,398.4,150.4,402.3"/>
							<path class="st7" d="M199.5,343.3h-33.1c-2.1,0-3.8-1.7-3.8-3.8c0-2.1,1.7-3.8,3.8-3.8h33.1c2.1,0,3.8,1.7,3.8,3.8
								C203.3,341.6,201.6,343.3,199.5,343.3"/>
							<path class="st7" d="M223.9,339.5c0,3.9-3.2,7.1-7,7.1c-3.9,0-7-3.2-7-7.1s3.2-7.1,7-7.1
								C220.8,332.4,223.9,335.6,223.9,339.5"/>
							<path class="st7" d="M199.5,385.1h-33.1c-2.1,0-3.8-1.7-3.8-3.8c0-2.1,1.7-3.8,3.8-3.8h33.1c2.1,0,3.8,1.7,3.8,3.8
								S201.6,385.1,199.5,385.1"/>
							<path class="st7" d="M223.9,381.3c0,3.9-3.2,7.1-7,7.1c-3.9,0-7-3.2-7-7.1s3.2-7.1,7-7.1
								C220.8,374.3,223.9,377.4,223.9,381.3"/>
							<path class="st8" d="M133.6,464v-0.6h-8.4c-0.3,0-0.5-0.2-0.5-0.5v-8.4c0-0.3,0.2-0.5,0.5-0.5h8.4c0.3,0,0.5,0.2,0.5,0.5v8.4
								c0,0.3-0.2,0.5-0.5,0.5V464v0.6c0.9,0,1.6-0.7,1.6-1.6v-8.4c0-0.9-0.7-1.6-1.6-1.6h-8.4c-0.9,0-1.6,0.7-1.6,1.6v8.4
								c0,0.9,0.7,1.6,1.6,1.6h8.4V464z"/>
							<polygon class="st8" points="59.1,455.3 69.6,455.3 69.6,453.4 59.1,453.4 							"/>
							<polygon id="Fill-34" class="st8" points="59.1,459.5 69.6,459.5 69.6,457.6 59.1,457.6 							"/>
							<polygon id="Fill-35" class="st8" points="59.1,463.8 69.6,463.8 69.6,461.8 59.1,461.8 							"/>
							<polygon id="Fill-36" class="st8" points="194.6,453 186.2,459.1 195.2,464.3 195.7,463.3 188.3,459 195.2,453.9 							"/>
						</g>
					</g>
					<g id="Screenshot-eLearning---Login-Copy" transform="translate(27.666667, 15.246377)">
						<g id="Mask">
							<path class="st9" d="M13,0h390.2c7.2,0,13,5.8,13,13v207.5c0,7.2-5.8,13-13,13H13c-7.2,0-13-5.8-13-13V13C0,5.8,5.8,0,13,0z"
								/>
						</g>
						<g transform="matrix(1 0 0 1 0 -1.192093e-07)" class="st10">
							<g class="st10">
								
									<image style="overflow:visible;enable-background:new    ;" width="639" height="360" id="Screenshot-eLearning---Login" xlink:href="7E6D06213773815D.png"  transform="matrix(0.6648 0 0 0.6648 7.994038e-02 -2.0478)">
								</image>
							</g>
						</g>
					</g>
				</g>
			</g>
			<rect id="Rectangle" x="90" y="91" class="st8" width="106" height="25"/>
			
				<g id="Group-6-Copy" transform="translate(967.500000, 252.000000) scale(-1, 1) translate(-967.500000, -252.000000) translate(727.000000, 69.000000)">
				<g>
					
						<g transform="translate(240.869565, 131.928571) rotate(-90.000000) translate(-240.869565, -131.928571) translate(109.869565, -108.071429)">
						<g transform="translate(0.000000, 0.000000)">
							<path class="st5" d="M6.4,415.7c-0.4,0.3-1.2,0.5-2.3,0.7c12.1-7.5,13-15.4,13-17.4c0.7,0.4,1.3,0.7,1.4,1
								C20.7,406.6,8.2,414.3,6.4,415.7"/>
							<g transform="translate(0.000000, 0.060784)">
								<path class="st6" d="M36.8,489.8C16.5,489.8,0,473,0,452.3L-0.1,41.1c0-11,8.9-20,20-20l0,0h222c11,0,20,9,20,20l0.1,411.2
									l0,0c0,20.7-16.5,37.5-36.8,37.5L36.8,489.8L36.8,489.8z"/>
							</g>
							<path class="st7" d="M228.8,449.4H33.2c-10.2,0-18.5-8.3-18.5-18.6V87.7c0-10.3,8.3-18.6,18.5-18.6h195.6
								c10.2,0,18.5,8.3,18.5,18.6v343.1C247.3,441.1,239,449.4,228.8,449.4"/>
							<path class="st7" d="M215.4,429h-70.9c-3.9,0-7.1,3.2-7.1,7.1s3.2,7.1,7.1,7.1h70.9c3.9,0,7.1-3.2,7.1-7.1
								S219.3,429,215.4,429"/>
							<path class="st7" d="M192.3,333.3h-33.1c-2.1,0-3.8-1.7-3.8-3.8c0-2.1,1.7-3.8,3.8-3.8h33.1c2.1,0,3.8,1.7,3.8,3.8
								C196.1,331.6,194.4,333.3,192.3,333.3"/>
							<path class="st7" d="M150.4,329.5c0,3.9-3.2,7.1-7,7.1c-3.9,0-7-3.2-7-7.1s3.2-7.1,7-7.1
								C147.2,322.5,150.4,325.6,150.4,329.5"/>
							<path class="st7" d="M192.3,375.2h-33.1c-2.1,0-3.8-1.7-3.8-3.8c0-2.1,1.7-3.8,3.8-3.8h33.1c2.1,0,3.8,1.7,3.8,3.8
								C196.1,373.5,194.4,375.2,192.3,375.2"/>
							<path class="st7" d="M150.4,371.4c0,3.9-3.2,7.1-7,7.1c-3.9,0-7-3.2-7-7.1s3.2-7.1,7-7.1S150.4,367.5,150.4,371.4"/>
							<path class="st7" d="M192.3,417h-33.1c-2.1,0-3.8-1.7-3.8-3.8c0-2.1,1.7-3.8,3.8-3.8h33.1c2.1,0,3.8,1.7,3.8,3.8
								C196.1,415.3,194.4,417,192.3,417"/>
							<path class="st7" d="M150.4,413.3c0,3.9-3.2,7.1-7,7.1c-3.9,0-7-3.2-7-7.1s3.2-7.1,7-7.1
								C147.2,406.2,150.4,409.4,150.4,413.3"/>
							<path class="st7" d="M199.5,354.3h-33.1c-2.1,0-3.8-1.7-3.8-3.8c0-2.1,1.7-3.8,3.8-3.8h33.1c2.1,0,3.8,1.7,3.8,3.8
								C203.3,352.6,201.6,354.3,199.5,354.3"/>
							<path class="st7" d="M223.9,350.5c0,3.9-3.2,7.1-7,7.1c-3.9,0-7-3.2-7-7.1s3.2-7.1,7-7.1
								C220.8,343.4,223.9,346.6,223.9,350.5"/>
							<path class="st7" d="M199.5,396.1h-33.1c-2.1,0-3.8-1.7-3.8-3.8c0-2.1,1.7-3.8,3.8-3.8h33.1c2.1,0,3.8,1.7,3.8,3.8
								S201.6,396.1,199.5,396.1"/>
							<path class="st7" d="M223.9,392.3c0,3.9-3.2,7.1-7,7.1c-3.9,0-7-3.2-7-7.1s3.2-7.1,7-7.1
								C220.8,385.3,223.9,388.4,223.9,392.3"/>
							<path class="st8" d="M133.6,475v-0.6h-8.4c-0.3,0-0.5-0.2-0.5-0.5v-8.4c0-0.3,0.2-0.5,0.5-0.5h8.4c0.3,0,0.5,0.2,0.5,0.5v8.4
								c0,0.3-0.2,0.5-0.5,0.5V475v0.6c0.9,0,1.6-0.7,1.6-1.6v-8.4c0-0.9-0.7-1.6-1.6-1.6h-8.4c-0.9,0-1.6,0.7-1.6,1.6v8.4
								c0,0.9,0.7,1.6,1.6,1.6h8.4V475z"/>
							<polygon class="st8" points="59.1,466.3 69.6,466.3 69.6,464.4 59.1,464.4 							"/>
							<polygon class="st8" points="59.1,470.5 69.6,470.5 69.6,468.6 59.1,468.6 							"/>
							<polygon class="st8" points="59.1,474.8 69.6,474.8 69.6,472.8 59.1,472.8 							"/>
							<polygon class="st8" points="194.6,464 186.2,470.1 195.2,475.3 195.7,474.3 188.3,470 195.2,464.9 							"/>
						</g>
					</g>
					<g transform="translate(27.666667, 15.246377)">
						<g>
							<path class="st9" d="M24,0h390.2c7.2,0,13,5.8,13,13v207.5c0,7.2-5.8,13-13,13H24c-7.2,0-13-5.8-13-13V13C11,5.8,16.8,0,24,0
								z"/>
						</g>
						
							<image style="overflow:visible;enable-background:new    ;" width="639" height="360" xlink:href="7E6D06213773815F.png"  transform="matrix(-0.6648 0 0 0.6648 433.8826 -2.0478)">
						</image>
						<g transform="translate(210.481251, 117.614907) scale(-1, 1) translate(-210.481251, -117.614907) ">
						</g>
						<polygon class="st8" points="42,238 237,238 237,238 						"/>
						<rect x="39.3" y="236.8" class="st8" width="212" height="-59"/>
					</g>
					<g id="Group-177" transform="translate(129.000000, 302.000000)">
						<g>
							<polygon class="st11" points="46.5,6.2 46.4,10.5 44.7,11.5 44.7,7.2 							"/>
							<polygon class="st12" points="63.9,5.5 63.9,9.8 59.6,12.3 59.7,8 							"/>
							<polygon class="st12" points="47,8.5 47,12.8 44.7,11.5 44.7,7.2 							"/>
							<g id="Group-45" transform="translate(0.000000, 0.446283)">
								<path class="st13" d="M70,8.2l-0.3,0.2v4.3l0.3-0.2c0.6-0.4,0.9-0.8,0.9-1.3V6.9C71,7.3,70.6,7.8,70,8.2"/>
								<path class="st14" d="M59.7,7.5v4.3c-0.6,0.4-0.9,0.8-0.9,1.3V8.8C58.7,8.4,59,7.9,59.7,7.5"/>
								<path class="st15" d="M59.7,10.2v4.3c-0.6-0.4-1-0.9-1-1.3V8.9C58.7,9.3,59,9.8,59.7,10.2"/>
								<polygon class="st13" points="69.7,8.4 69.7,12.7 65.4,15.2 65.4,10.8 								"/>
								<polygon class="st16" points="60.8,10.8 60.8,15.2 59.7,14.5 59.7,10.2 								"/>
								<path class="st17" d="M70,5.5c1.3,0.7,1.3,1.9,0,2.7l-0.3,0.2l-4.2,2.5c-1.3,0.7-3.3,0.7-4.6,0l-1.1-0.6
									c-1.3-0.7-1.3-1.9,0-2.7L64,5.1l0.3-0.2c1.3-0.7,3.3-0.7,4.6,0L70,5.5z"/>
								<path class="st15" d="M65.4,10.8v4.3c-1.3,0.7-3.3,0.7-4.6,0v-4.3C62.1,11.6,64.2,11.6,65.4,10.8"/>
								<polygon class="st12" points="95.7,23.4 95.7,27.7 91.5,30.2 91.5,25.9 								"/>
								<path class="st13" d="M101.8,26.5l-0.3,0.2V31l0.3-0.2c0.6-0.4,0.9-0.8,0.9-1.3v-4.3C102.8,25.7,102.5,26.2,101.8,26.5"/>
								<path class="st14" d="M91.5,25.9v4.3c-0.6,0.4-0.9,0.8-0.9,1.3v-4.3C90.5,26.7,90.8,26.2,91.5,25.9"/>
								<path class="st15" d="M91.5,28.6v4.3c-0.6-0.4-1-0.9-1-1.3v-4.3C90.5,27.7,90.9,28.2,91.5,28.6"/>
								<polygon class="st13" points="101.5,26.7 101.5,31 97.2,33.5 97.2,29.2 								"/>
								<polygon class="st16" points="92.6,29.2 92.6,33.5 91.5,32.9 91.5,28.6 								"/>
								<path class="st17" d="M101.8,23.9c1.3,0.7,1.3,1.9,0,2.7l-0.3,0.2l-4.3,2.5c-1.3,0.7-3.3,0.7-4.6,0l-1.1-0.6
									c-1.3-0.7-1.3-1.9,0-2.7l4.3-2.5l0.3-0.2c1.3-0.7,3.3-0.7,4.6,0L101.8,23.9z"/>
								<path class="st15" d="M97.2,29.2v4.3c-1.3,0.7-3.3,0.7-4.6,0v-4.3C93.9,29.9,96,29.9,97.2,29.2"/>
								<polygon class="st12" points="97.6,37.2 97.6,41.5 47,12.4 47,8 								"/>
								<path class="st12" d="M108.6,33.5l-5.1,2.9l-1.3,0.8l-2.3,1.3v4.3l2.3-1.3l1.3-0.8l5.1-2.9c0.6-0.4,0.9-0.8,0.9-1.3v-4.3
									C109.6,32.7,109.2,33.1,108.6,33.5"/>
								<polygon id="Fill-38" class="st12" points="99.9,38.5 99.9,42.9 97.6,41.5 97.6,37.2 								"/>
								<path id="Fill-40" class="st18" d="M46.5,5.7l-1.7,1L47,8l50.6,29.2l2.3,1.3l-32.8,19c-1.3,0.7-3.3,0.7-4.6,0L12,28.4
									c-1.3-0.7-1.3-1.9,0-2.7L46.5,5.7z"/>
								<g id="Group-44" transform="translate(32.812500, 0.000000)">
									<g id="Clip-43">
									</g>
									<path id="Fill-42" class="st19" d="M75.8,30.8c1.3,0.7,1.3,1.9,0,2.7l-5.1,2.9l-1.3,0.8l-2.3,1.3l-2.3-1.3L14.2,8l-2.3-1.3
										l1.7-1l0.6-0.3l1.3-0.8l5.1-2.9c1.3-0.7,3.3-0.7,4.6,0l5.9,3.4l-4.2,2.5c-1.3,0.7-1.3,1.9,0,2.7l1.1,0.6
										c1.3,0.7,3.3,0.7,4.6,0l4.2-2.5l26.1,15l-4.3,2.5c-1.3,0.7-1.3,1.9,0,2.7l1.1,0.6c1.3,0.7,3.3,0.7,4.6,0l4.3-2.5L75.8,30.8
										z"/>
								</g>
							</g>
							<polygon id="Fill-46" class="st20" points="44.4,18.6 44.4,20.7 39.3,17.8 39.3,15.7 							"/>
							<polygon id="Fill-47" class="st20" points="39.3,15.7 39.3,17.8 34.3,20.7 34.3,18.6 							"/>
							<polygon id="Fill-48" class="st21" points="39.4,21.5 39.4,23.7 34.3,20.7 34.3,18.6 							"/>
							<polygon id="Fill-49" class="st21" points="44.4,18.6 44.4,20.7 39.4,23.7 39.4,21.5 							"/>
							<polygon id="Fill-50" class="st20" points="38.4,22.1 38.4,24.2 33.3,21.3 33.3,19.2 							"/>
							<polygon id="Fill-51" class="st20" points="33.3,19.2 33.3,21.3 28.3,24.2 28.3,22.1 							"/>
							<polygon id="Fill-52" class="st20" points="50.8,22.3 50.8,24.4 45.7,21.5 45.7,19.3 							"/>
							<polygon id="Fill-53" class="st20" points="45.7,19.3 45.7,21.5 40.7,24.4 40.7,22.3 							"/>
							<polygon id="Fill-54" class="st22" points="38.4,22.1 33.4,25 28.3,22.1 33.3,19.2 							"/>
							<polygon id="Fill-55" class="st21" points="33.4,25 33.4,27.2 28.3,24.2 28.3,22.1 							"/>
							<polygon id="Fill-56" class="st21" points="38.4,22.1 38.4,24.2 33.4,27.2 33.4,25 							"/>
							<polygon id="Fill-57" class="st21" points="50.8,22.3 50.8,24.4 45.7,27.3 45.7,25.2 							"/>
							<polygon id="Fill-58" class="st22" points="50.8,22.3 45.7,25.2 40.7,22.3 45.7,19.3 							"/>
							<polygon id="Fill-59" class="st21" points="45.7,25.2 45.7,27.3 40.7,24.4 40.7,22.3 							"/>
							<polygon id="Fill-60" class="st20" points="32.4,25.6 32.4,27.7 27.3,24.8 27.3,22.6 							"/>
							<polygon id="Fill-61" class="st20" points="27.3,22.6 27.3,24.8 22.3,27.7 22.3,25.6 							"/>
							<polygon id="Fill-62" class="st20" points="44.8,25.7 44.7,27.9 39.7,25 39.7,22.8 							"/>
							<polygon id="Fill-63" class="st20" points="39.7,22.8 39.7,25 34.7,27.9 34.7,25.7 							"/>
							<polygon id="Fill-64" class="st20" points="57.1,25.9 57.1,28.1 52,25.2 52,23 							"/>
							<polygon id="Fill-65" class="st20" points="52,23 52,25.2 47,28.1 47,25.9 							"/>
							<polygon id="Fill-66" class="st20" points="69.5,26.1 69.5,28.2 64.4,25.3 64.4,23.2 							"/>
							<polygon id="Fill-67" class="st20" points="64.4,23.2 64.4,25.3 59.4,28.2 59.4,26.1 							"/>
							<polygon id="Fill-68" class="st21" points="32.4,25.6 32.4,27.7 27.4,30.6 27.4,28.5 							"/>
							<polygon id="Fill-69" class="st22" points="32.4,25.6 27.4,28.5 22.3,25.6 27.3,22.6 							"/>
							<polygon id="Fill-70" class="st21" points="27.4,28.5 27.4,30.6 22.3,27.7 22.3,25.6 							"/>
							<polygon id="Fill-71" class="st21" points="44.8,25.7 44.7,27.9 39.7,30.8 39.7,28.7 							"/>
							<polygon id="Fill-72" class="st21" points="39.7,28.7 39.7,30.8 34.7,27.9 34.7,25.7 							"/>
							<polygon id="Fill-73" class="st21" points="57.1,25.9 57.1,28.1 52.1,31 52.1,28.8 							"/>
							<polygon id="Fill-74" class="st22" points="57.1,25.9 52.1,28.8 47,25.9 52,23 							"/>
							<polygon id="Fill-75" class="st21" points="52.1,28.8 52.1,31 47,28.1 47,25.9 							"/>
							<polygon id="Fill-76" class="st21" points="69.5,26.1 69.5,28.2 64.4,31.2 64.4,29 							"/>
							<polygon id="Fill-77" class="st21" points="64.4,29 64.4,31.2 59.4,28.2 59.4,26.1 							"/>
							<polygon id="Fill-78" class="st20" points="38.7,29.2 38.7,31.4 33.7,28.5 33.7,26.3 							"/>
							<polygon id="Fill-79" class="st20" points="33.7,26.3 33.7,28.5 28.7,31.4 28.7,29.2 							"/>
							<polygon id="Fill-80" class="st20" points="51.1,29.4 51.1,31.6 46,28.6 46,26.5 							"/>
							<polygon id="Fill-81" class="st20" points="46,26.5 46,28.6 41,31.6 41,29.4 							"/>
							<polygon id="Fill-82" class="st20" points="63.5,29.6 63.5,31.7 58.4,28.8 58.4,26.7 							"/>
							<polygon id="Fill-83" class="st20" points="58.4,26.7 58.4,28.8 53.4,31.7 53.4,29.6 							"/>
							<polygon id="Fill-84" class="st20" points="75.8,29.8 75.8,31.9 70.7,29 70.8,26.8 							"/>
							<polygon id="Fill-85" class="st20" points="70.8,26.8 70.7,29 65.7,31.9 65.7,29.8 							"/>
							<polygon id="Fill-86" class="st21" points="38.7,29.2 38.7,31.4 33.7,34.3 33.7,32.1 							"/>
							<polygon id="Fill-87" class="st22" points="38.7,29.2 33.7,32.1 28.7,29.2 33.7,26.3 							"/>
							<polygon id="Fill-88" class="st21" points="33.7,32.1 33.7,34.3 28.7,31.4 28.7,29.2 							"/>
							<polygon id="Fill-89" class="st21" points="51.1,29.4 51.1,31.6 46.1,34.5 46.1,32.3 							"/>
							<polygon id="Fill-90" class="st21" points="46.1,32.3 46.1,34.5 41,31.6 41,29.4 							"/>
							<polygon id="Fill-91" class="st21" points="58.4,32.5 58.4,34.7 53.4,31.7 53.4,29.6 							"/>
							<polygon id="Fill-92" class="st21" points="63.5,29.6 63.5,31.7 58.4,34.7 58.4,32.5 							"/>
							<polygon id="Fill-93" class="st22" points="63.5,29.6 58.4,32.5 53.4,29.6 58.4,26.7 							"/>
							<polygon id="Fill-94" class="st22" points="75.8,29.8 70.8,32.7 65.7,29.8 70.8,26.8 							"/>
							<polygon id="Fill-95" class="st21" points="75.8,29.8 75.8,31.9 70.8,34.8 70.8,32.7 							"/>
							<polygon id="Fill-96" class="st21" points="70.8,32.7 70.8,34.8 65.7,31.9 65.7,29.8 							"/>
							<polygon id="Fill-97" class="st20" points="45.1,32.9 45.1,35 40,32.1 40,30 							"/>
							<polygon id="Fill-98" class="st20" points="40,30 40,32.1 35,35 35,32.9 							"/>
							<polygon id="Fill-99" class="st20" points="57.5,33.1 57.4,35.2 52.4,32.3 52.4,30.1 							"/>
							<polygon id="Fill-100" class="st20" points="52.4,30.1 52.4,32.3 47.4,35.2 47.4,33.1 							"/>
							<polygon id="Fill-101" class="st20" points="69.8,33.2 69.8,35.4 64.7,32.5 64.7,30.3 							"/>
							<polygon id="Fill-102" class="st20" points="64.7,30.3 64.7,32.5 59.7,35.4 59.7,33.2 							"/>
							<polygon id="Fill-103" class="st20" points="82.2,33.4 82.2,35.6 77.1,32.7 77.1,30.5 							"/>
							<polygon id="Fill-104" class="st20" points="77.1,30.5 77.1,32.7 72.1,35.6 72.1,33.4 							"/>
							<polygon id="Fill-105" class="st22" points="45.1,32.9 40.1,35.8 35,32.9 40,30 							"/>
							<polygon id="Fill-106" class="st21" points="40.1,35.8 40.1,38 35,35 35,32.9 							"/>
							<polygon id="Fill-107" class="st21" points="45.1,32.9 45.1,35 40.1,38 40.1,35.8 							"/>
							<polygon id="Fill-108" class="st3" points="57.5,33.1 52.4,36 47.4,33.1 52.4,30.1 							"/>
							<polygon id="Fill-109" class="st21" points="64.8,36.2 64.8,38.3 59.7,35.4 59.7,33.2 							"/>
							<polygon id="Fill-110" class="st21" points="69.8,33.2 69.8,35.4 64.8,38.3 64.8,36.2 							"/>
							<polygon id="Fill-111" class="st21" points="77.1,36.3 77.1,38.5 72.1,35.6 72.1,33.4 							"/>
							<polygon id="Fill-112" class="st22" points="82.2,33.4 77.1,36.3 72.1,33.4 77.1,30.5 							"/>
							<polygon id="Fill-113" class="st21" points="82.2,33.4 82.2,35.6 77.1,38.5 77.1,36.3 							"/>
							<polygon id="Fill-114" class="st20" points="51.4,36.6 51.4,38.7 46.4,35.8 46.4,33.6 							"/>
							<polygon id="Fill-115" class="st20" points="46.4,33.6 46.4,35.8 41.4,38.7 41.4,36.5 							"/>
							<polygon id="Fill-116" class="st20" points="63.8,36.7 63.8,38.9 58.7,36 58.7,33.8 							"/>
							<polygon id="Fill-117" class="st20" points="58.7,33.8 58.7,36 53.7,38.9 53.7,36.7 							"/>
							<polygon id="Fill-118" class="st20" points="76.2,36.9 76.1,39.1 71.1,36.1 71.1,34 							"/>
							<polygon id="Fill-119" class="st20" points="71.1,34 71.1,36.1 66.1,39.1 66.1,36.9 							"/>
							<polygon id="Fill-120" class="st20" points="88.5,37.1 88.5,39.2 83.4,36.3 83.5,34.2 							"/>
							<polygon id="Fill-121" class="st20" points="83.5,34.2 83.4,36.3 78.4,39.2 78.4,37.1 							"/>
							<polygon id="Fill-122" class="st21" points="51.4,36.6 51.4,38.7 46.4,41.6 46.4,39.5 							"/>
							<polygon id="Fill-123" class="st21" points="46.4,39.5 46.4,41.6 41.4,38.7 41.4,36.5 							"/>
							<polygon id="Fill-124" class="st22" points="51.4,36.6 46.4,39.5 41.4,36.5 46.4,33.6 							"/>
							<polygon id="Fill-125" class="st21" points="63.8,36.7 63.8,38.9 58.8,41.8 58.8,39.7 							"/>
							<polygon id="Fill-126" class="st21" points="58.8,39.7 58.8,41.8 53.7,38.9 53.7,36.7 							"/>
							<polygon id="Fill-127" class="st22" points="76.2,36.9 71.1,39.8 66.1,36.9 71.1,34 							"/>
							<polygon id="Fill-128" class="st21" points="76.2,36.9 76.1,39.1 71.1,42 71.1,39.8 							"/>
							<polygon id="Fill-129" class="st21" points="71.1,39.8 71.1,42 66.1,39.1 66.1,36.9 							"/>
							<polygon id="Fill-130" class="st12" points="88.5,37.1 88.5,39.2 83.5,42.2 83.5,40 							"/>
							<polygon id="Fill-131" class="st12" points="83.5,40 83.5,42.2 78.4,39.2 78.4,37.1 							"/>
							<polygon id="Fill-132" class="st20" points="57.8,40.2 57.8,42.4 52.7,39.5 52.7,37.3 							"/>
							<polygon id="Fill-133" class="st20" points="52.7,37.3 52.7,39.5 47.7,42.4 47.7,40.2 							"/>
							<polygon id="Fill-134" class="st20" points="70.1,40.4 70.1,42.5 65.1,39.6 65.1,37.5 							"/>
							<polygon id="Fill-135" class="st20" points="65.1,37.5 65.1,39.6 60.1,42.6 60.1,40.4 							"/>
							<polygon id="Fill-136" class="st20" points="82.5,40.6 82.5,42.7 77.4,39.8 77.4,37.6 							"/>
							<polygon id="Fill-137" class="st20" points="77.4,37.6 77.4,39.8 72.4,42.7 72.4,40.6 							"/>
							<polygon id="Fill-138" class="st21" points="57.8,40.2 57.8,42.4 52.8,45.3 52.8,43.1 							"/>
							<polygon id="Fill-139" class="st22" points="57.8,40.2 52.8,43.1 47.7,40.2 52.7,37.3 							"/>
							<polygon id="Fill-140" class="st21" points="52.8,43.1 52.8,45.3 47.7,42.4 47.7,40.2 							"/>
							<polygon id="Fill-141" class="st21" points="70.1,40.4 70.1,42.5 65.1,45.5 65.1,43.3 							"/>
							<polygon id="Fill-142" class="st21" points="65.1,43.3 65.1,45.5 60.1,42.6 60.1,40.4 							"/>
							<polygon id="Fill-143" class="st22" points="70.1,40.4 65.1,43.3 60.1,40.4 65.1,37.5 							"/>
							<polygon id="Fill-144" class="st12" points="77.5,43.5 77.5,45.6 72.4,42.7 72.4,40.6 							"/>
							<polygon id="Fill-145" class="st12" points="82.5,40.6 82.5,42.7 77.5,45.6 77.5,43.5 							"/>
							<polygon id="Fill-146" class="st20" points="76.5,44.1 76.5,46.2 71.4,43.3 71.4,41.1 							"/>
							<polygon id="Fill-147" class="st20" points="71.4,41.1 71.4,43.3 66.4,46.2 66.4,44.1 							"/>
							<polygon id="Fill-148" class="st12" points="76.5,44.1 76.5,46.2 71.5,49.1 71.5,47 							"/>
							<polygon id="Fill-149" class="st12" points="71.5,47 71.5,49.1 66.4,46.2 66.4,44.1 							"/>
							<polygon id="Fill-150" class="st22" points="44.4,18.6 39.4,21.5 34.3,18.6 39.3,15.7 							"/>
							<polygon id="Fill-151" class="st22" points="44.8,25.7 39.7,28.7 34.7,25.7 39.7,22.8 							"/>
							<polygon id="Fill-152" class="st22" points="69.5,26.1 64.4,29 59.4,26.1 64.4,23.2 							"/>
							<polygon id="Fill-153" class="st22" points="51.1,29.4 46.1,32.3 41,29.4 46,26.5 							"/>
							<polygon id="Fill-154" class="st22" points="69.8,33.2 64.8,36.2 59.7,33.2 64.7,30.3 							"/>
							<polygon id="Fill-155" class="st22" points="63.8,36.7 58.8,39.7 53.7,36.7 58.7,33.8 							"/>
							<path id="Fill-156" class="st23" d="M77.5,43.5L77.5,43.5l5-2.9l-5.1-2.9l-5,2.9l5-2.9l5.1,2.9L77.5,43.5z M65.1,43.3
								L60,40.4l5-2.9l5.1,2.9L65.1,43.3z M53.7,36.7l5-2.9l5.1,2.9l-5,2.9L53.7,36.7z M52.8,43.1l-5.1-2.9l5-2.9l5.1,2.9L52.8,43.1
								z M41.4,36.5l5-2.9l5.1,2.9l-5,2.9L41.4,36.5z M35,32.9l5-2.9l5.1,2.9l-5,2.9L35,32.9z M28.7,29.2l5-2.9l5.1,2.9l-5,2.9
								L28.7,29.2z M22.3,25.6l5-2.9l5.1,2.9l-5,2.9L22.3,25.6z M33.3,19.2l5.1,2.9l-5,2.9l-5.1-2.9L33.3,19.2z M39.3,15.7l5.1,2.9
								l-5,2.9l-5.1-2.9L39.3,15.7z M45.7,19.3l5.1,2.9l-5,2.9l-5.1-2.9L45.7,19.3z M39.7,28.7l-5.1-2.9l5-2.9l5.1,2.9L39.7,28.7z
								 M46,26.5l5.1,2.9l-5,2.9L41,29.4L46,26.5z M57.1,25.9l-5,2.9L47,25.9l5-2.9L57.1,25.9z M63.5,29.6l-5,2.9l-5.1-2.9l5-2.9
								L63.5,29.6z M64.4,23.2l5.1,2.9l-5,2.9l-5.1-2.9L64.4,23.2z M75.8,29.8l-5,2.9l-5.1-2.9l5-2.9L75.8,29.8z M64.8,36.2
								l-5.1-2.9l5-2.9l5.1,2.9L64.8,36.2z M71.1,39.8L66,36.9l5-2.9l5.1,2.9L71.1,39.8z M82.2,33.4l-5,2.9l-5.1-2.9l5-2.9
								L82.2,33.4z M78.4,37.1L78.4,37.1l5-2.9L78.4,37.1z M45.1,9.4l-27.6,16l43.4,25.1l4.8-2.8l4.8,2.8l22.8-13.3L45.1,9.4z"/>
							<polygon id="Fill-157" class="st12" points="71.5,46.1 71.4,47 66.4,44.1 66.4,43.2 							"/>
							<polygon id="Fill-158" class="st12" points="76.5,43.2 76.5,44.1 71.4,47 71.5,46.1 							"/>
							<polygon id="Fill-159" class="st3" points="71.5,46.1 76.5,43.2 71.4,40.3 66.4,43.2 							"/>
							<polygon id="Fill-160" class="st12" points="77.5,42.7 77.5,43.5 72.4,40.6 72.4,39.7 							"/>
							<polygon id="Fill-161" class="st12" points="82.5,39.7 82.5,40.6 77.5,43.5 77.5,42.7 							"/>
							<polygon id="Fill-162" class="st3" points="77.5,42.7 82.5,39.7 77.5,36.8 72.4,39.7 							"/>
							<polygon id="Fill-163" class="st12" points="83.5,39.1 83.5,40 78.4,37.1 78.4,36.2 							"/>
							<polygon id="Fill-164" class="st12" points="88.5,36.2 88.5,37.1 83.5,40 83.5,39.1 							"/>
							<polygon id="Fill-165" class="st3" points="83.5,39.1 88.5,36.2 83.5,33.3 78.4,36.2 							"/>
							<polygon id="Fill-166" class="st20" points="70.5,50.5 70.5,52.6 65.7,49.8 65.7,47.7 							"/>
							<polygon id="Fill-167" class="st20" points="65.7,47.7 65.7,49.8 60.9,52.6 60.9,50.5 							"/>
							<polygon id="Fill-168" class="st24" points="70.5,50.5 60.9,50.5 60.9,52.6 70.5,52.6 93.4,39.4 93.4,37.2 							"/>
							<polygon id="Fill-169" class="st24" points="17.4,25.4 17.4,27.6 60.9,52.6 60.9,50.5 							"/>
							<polygon id="Fill-170" class="st25" points="70.5,50.5 60.9,50.5 65.7,47.7 							"/>
							<polygon id="Fill-171" class="st12" points="52.3,35.3 52.3,36.2 47.2,33.3 47.2,32.4 							"/>
							<polygon id="Fill-172" class="st12" points="57.3,32.4 57.3,33.3 52.3,36.2 52.3,35.3 							"/>
							<polygon id="Fill-173" class="st3" points="52.3,35.3 57.3,32.4 52.3,29.5 47.2,32.4 							"/>
							<g id="Group-176" transform="translate(0.000000, 26.982868)">
								<g id="Clip-175">
								</g>
								<path id="Fill-174" class="st26" d="M67.2,31c-1.3,0.7-3.3,0.7-4.6,0L12,1.9c-0.7-0.4-1-0.9-1-1.4v4.3c0,0.5,0.3,1,1,1.3
									l50.6,29.2c1.3,0.7,3.3,0.7,4.6,0l32.8-19V12L67.2,31z"/>
							</g>
						</g>
					</g>
				</g>
			</g>
			<circle id="Oval" class="st27" cx="1112" cy="285" r="21"/>
			<g transform="translate(1101.000000, 274.000000)">
				<g id="Path">
					<path class="st28" d="M19.9,16c-0.7,1.7-1.7,3.3-3,4.5c-1.5,1.4-3.4,2.6-5.8,3.4c-0.1,0-0.2,0-0.2,0.1c-0.1,0-0.2,0-0.3,0l0,0
						c-0.1,0-0.2,0-0.3,0s-0.2,0-0.2-0.1c-2.4-0.8-4.3-1.9-5.8-3.4C3,19.3,2,17.7,1.3,16C-0.1,12.9,0,9.3,0,6.5l0,0C0,6.3,0,6,0,5.8
						c0-1.3,1.1-2.4,2.5-2.5c2.8-0.2,5-1.1,6.9-2.8l0,0C9.7,0.1,10.1,0,10.5,0s0.7,0.1,1,0.4l0,0c1.9,1.8,4.1,2.7,6.9,2.8
						c1.4,0.1,2.4,1.2,2.5,2.5c0,0.3,0,0.5,0,0.7l0,0C21,9.3,21.1,12.8,19.9,16z"/>
					<path class="st29" d="M19.9,16c-0.7,1.7-1.7,3.3-3,4.5c-1.5,1.4-3.4,2.6-5.8,3.4c-0.1,0-0.2,0-0.2,0.1c-0.1,0-0.2,0-0.3,0V0
						c0.4,0,0.7,0.1,1,0.4l0,0c1.9,1.8,4.1,2.7,6.9,2.8c1.4,0.1,2.4,1.2,2.5,2.5c0,0.3,0,0.5,0,0.7l0,0C21,9.3,21.1,12.8,19.9,16z"
						/>
					<path class="st30" d="M16.6,12c0,3.3-2.7,6-6.1,6l0,0c-3.4,0-6.1-2.7-6.1-6s2.8-6,6.1-6l0,0C13.9,6,16.6,8.7,16.6,12z"/>
					<path class="st31" d="M16.6,12c0,3.3-2.7,6-6.1,6V6C13.9,6,16.6,8.7,16.6,12z"/>
					<path class="st32" d="M13.3,11.1l-2.8,2.7l-0.6,0.6c-0.1,0.1-0.3,0.2-0.5,0.2S9,14.5,8.9,14.4l-1.3-1.3c-0.3-0.3-0.3-0.7,0-1
						s0.7-0.3,1,0l0.8,0.8l2.8-2.8c0.3-0.3,0.7-0.3,1,0C13.6,10.4,13.6,10.9,13.3,11.1z"/>
					<path class="st33" d="M13.3,11.1l-2.8,2.7v-2l1.7-1.7c0.3-0.3,0.7-0.3,1,0C13.6,10.4,13.6,10.9,13.3,11.1z"/>
				</g>
			</g>
			<circle class="st27" cx="1057" cy="285" r="21"/>
			<g transform="translate(1047.000000, 274.000000)">
				<g>
					<polygon class="st34" points="6.1,4.6 9.7,0.8 15.3,6.6 11.6,10.5 					"/>
					<path class="st35" d="M16,8.5c0-1.4-1.1-2.6-2.4-2.6h-3.1V2.6C10.4,1.2,9.3,0,8,0L3.5,11L8,22h8V8.5z"/>
					<polygon class="st36" points="0,0 8,0 8,22 0,22 					"/>
					<polygon class="st37" points="13,16.2 8,16.2 7.2,16.8 8,17.5 13,17.5 					"/>
					<polygon class="st30" points="5.5,16.2 8,16.2 8,17.5 5.5,17.5 					"/>
					<polygon class="st37" points="13,13.6 8,13.6 7.2,14.3 8,14.9 13,14.9 					"/>
					<polygon class="st30" points="5.5,13.6 8,13.6 8,14.9 5.5,14.9 					"/>
					<polygon class="st37" points="13,11 8,11 7.2,11.7 8,12.3 13,12.3 					"/>
					<g id="Group" transform="translate(3.045685, 11.042969)">
						<polygon class="st30" points="2.4,0 5,0 5,1.3 2.4,1.3 						"/>
						<polygon class="st30" points="0,0 1.2,0 1.2,1.3 0,1.3 						"/>
						<polygon class="st30" points="0,2.6 1.2,2.6 1.2,3.9 0,3.9 						"/>
						<polygon class="st30" points="0,5.2 1.2,5.2 1.2,6.4 0,6.4 						"/>
					</g>
				</g>
			</g>
			<circle id="Oval-Copy-3" class="st27" cx="996" cy="285" r="21"/>
			<g id="Group-7" transform="translate(322.000000, 31.000000)">
				
					<g transform="translate(311.000000, 170.000000) rotate(-90.000000) translate(-311.000000, -170.000000) translate(141.500000, -140.500000)">
					<g transform="translate(0.000000, 0.000000)">
						<path class="st5" d="M8.2,523.3c-0.5,0.3-1.6,0.7-3,1c15.7-9.8,16.8-19.9,16.9-22.4c1,0.6,1.6,0.9,1.8,1.3
							C26.7,511.5,10.7,521.5,8.2,523.3"/>
						<g transform="translate(0.000000, 0.078596)">
							<path class="st38" d="M0,598.9V38.4c0-11,9-20,20-20h298.9c11,0,20,9,20,20v560.5c0,11-9,20-20,20H20C9,618.9,0,610,0,598.9z
								"/>
						</g>
						<path class="st7" d="M296,566.8H43c-13.2,0-24-10.7-24-24V99.2c0-13.3,10.7-24,24-24h253c13.2,0,24,10.7,24,24v443.6
							C319.9,556.1,309.2,566.8,296,566.8"/>
						<path class="st7" d="M278.6,540.5h-91.8c-5.1,0-9.2,4.1-9.2,9.2s4.1,9.2,9.2,9.2h91.8c5.1,0,9.2-4.1,9.2-9.2
							S283.7,540.5,278.6,540.5"/>
						<path class="st7" d="M248.8,416.7H206c-2.7,0-4.9-2.2-4.9-4.9c0-2.7,2.2-4.9,4.9-4.9h42.8c2.7,0,4.9,2.2,4.9,4.9
							C253.6,414.6,251.5,416.7,248.8,416.7"/>
						<path class="st7" d="M194.5,411.9c0,5-4.1,9.1-9.1,9.1s-9.1-4.1-9.1-9.1s4.1-9.1,9.1-9.1C190.5,402.7,194.5,406.8,194.5,411.9
							"/>
						<path class="st7" d="M248.8,470.9H206c-2.7,0-4.9-2.2-4.9-4.9c0-2.7,2.2-4.9,4.9-4.9h42.8c2.7,0,4.9,2.2,4.9,4.9
							C253.6,468.7,251.5,470.9,248.8,470.9"/>
						<path class="st7" d="M194.5,466c0,5-4.1,9.1-9.1,9.1s-9.1-4.1-9.1-9.1s4.1-9.1,9.1-9.1C190.5,456.9,194.5,461,194.5,466"/>
						<path class="st7" d="M248.8,525H206c-2.7,0-4.9-2.2-4.9-4.9s2.2-4.9,4.9-4.9h42.8c2.7,0,4.9,2.2,4.9,4.9
							C253.6,522.8,251.5,525,248.8,525"/>
						<path class="st7" d="M194.5,520.1c0,5-4.1,9.1-9.1,9.1s-9.1-4.1-9.1-9.1s4.1-9.1,9.1-9.1C190.5,511,194.5,515.1,194.5,520.1"
							/>
						<path class="st7" d="M258.1,443.9h-42.8c-2.7,0-4.9-2.2-4.9-4.9c0-2.7,2.2-4.9,4.9-4.9h42.8c2.7,0,4.9,2.2,4.9,4.9
							C263,441.7,260.8,443.9,258.1,443.9"/>
						<path class="st7" d="M289.7,439c0,5-4.1,9.1-9.1,9.1s-9.1-4.1-9.1-9.1s4.1-9.1,9.1-9.1S289.7,433.9,289.7,439"/>
						<path class="st7" d="M258.1,498h-42.8c-2.7,0-4.9-2.2-4.9-4.9c0-2.7,2.2-4.9,4.9-4.9h42.8c2.7,0,4.9,2.2,4.9,4.9
							S260.8,498,258.1,498"/>
						<path class="st7" d="M289.7,493.1c0,5-4.1,9.1-9.1,9.1s-9.1-4.1-9.1-9.1s4.1-9.1,9.1-9.1S289.7,488,289.7,493.1"/>
						<path class="st8" d="M172.8,600v-0.7H162c-0.3,0-0.6-0.3-0.6-0.6v-10.8c0-0.3,0.3-0.6,0.6-0.6h10.8c0.3,0,0.6,0.3,0.6,0.6
							v10.8c0,0.3-0.3,0.6-0.6,0.6V600v0.7c1.2,0,2.1-0.9,2.1-2.1v-10.8c0-1.2-0.9-2.1-2.1-2.1H162c-1.2,0-2.1,0.9-2.1,2.1v10.8
							c0,1.2,0.9,2.1,2.1,2.1h10.8V600z"/>
						<polygon class="st8" points="76.4,588.7 90,588.7 90,586.2 76.4,586.2 						"/>
						<polygon class="st8" points="76.4,594.2 90,594.2 90,591.7 76.4,591.7 						"/>
						<polygon class="st8" points="76.4,599.7 90,599.7 90,597.2 76.4,597.2 						"/>
						<polygon class="st8" points="251.7,585.7 240.9,593.7 252.4,600.3 253.2,599.1 243.6,593.5 252.5,586.9 						"/>
					</g>
				</g>
				<g transform="translate(36.000000, 19.000000)">
					<g>
						<path class="st9" d="M13,0h511c7.2,0,13,5.8,13,13v276c0,7.2-5.8,13-13,13H13c-7.2,0-13-5.8-13-13V13C0,5.8,5.8,0,13,0z"/>
					</g>
					<g class="st10">
						<g class="st10">
							
								<image style="overflow:visible;enable-background:new    ;" width="641" height="362" xlink:href="7E6D06213773815A.png"  transform="matrix(0.8368 0 0 0.8368 0.3129 -0.7022)">
							</image>
						</g>
					</g>
					<rect x="9" y="6" class="st8" width="132" height="34"/>
				</g>
			</g>
			<g id="Group-72" transform="translate(219.000000, 150.000000)">
				<g>
					<path class="st39" d="M101.1,191.4c0,0-19.9,28-9,34.2s14.3-11.2,15.2-14.1c0.9-2.9,6.1-15,6.1-15L101.1,191.4z"/>
					<path class="st40" d="M94.3,207.1c4.2,2.7,8.6,4.4,12.6,5.6c0.1-0.5,0.2-0.8,0.3-1.1c0.4-1.3,1.6-4.4,2.9-7.5l-7.1-2.6
						c0,0-3.1-1-7.6-1.1c-4.9,8.8-10.3,21.3-3.4,25.3C88.2,219.7,92.4,206.5,94.3,207.1"/>
					<g transform="translate(88.706294, 213.484500)">
						<g id="Clip-6">
						</g>
						<path id="Fill-5" class="st5" d="M0.8,0.7c-1.3,5-1.1,9.5,2.5,11.5c6.9,3.9,10.8-1.6,12.9-6.9C10.6,5.4,4.1,2.4,0.8,0.7"/>
					</g>
					<path class="st39" d="M120.4,190.2c0,0-3.2,34.2,9.3,34.1s6.8-16.8,6.1-19.7s-2.2-16.1-2.2-16.1L120.4,190.2z"/>
					<path class="st40" d="M122.4,207c5,0.2,9.6-0.4,13.7-1.4c-0.1-0.5-0.2-0.8-0.3-1.1c-0.3-1.3-0.8-4.7-1.2-8l-7.4,1.2
						c0,0-3.2,0.7-7.1,2.8c0.1,10,1.8,23.6,9.6,23.6C123.4,221,120.4,207.5,122.4,207"/>
					<path class="st5" d="M121.8,215.6c1.4,5,3.8,8.7,7.9,8.7c7.9,0,8.5-6.8,7.7-12.4C132.5,214.8,125.5,215.4,121.8,215.6"/>
					<path class="st41" d="M106.4,150.9l17.1,1.7l11.8,47.9c0,0-17.6,16.7-43.5,0.5C97.2,176,105,157.1,106.4,150.9"/>
					<path class="st42" d="M124.3,155.6l-2.3-3.2l-15.5-1.6c-0.5,2-1.6,5.2-3,9.5c2.9,0.8,6.8,1.6,9.1,1.2c4.3-0.6-7,3.9,0.6,18.4
						c7.5,14.5,13.5,11.1,15.8,15c1.3,2.1,2.6,5.2,3.6,7.6c1.8-1.2,2.8-2.1,2.8-2.1L124.3,155.6z"/>
					<path class="st39" d="M165.4,54.9c0,0,16.7,48.3,18.6,55.5c1.9,7.2-10.1,26.1-34.7,35.1s-76.4,18.9-76.3-10s-7.6-83.6,14.3-95
						C109.3,28.9,143,13.2,165.4,54.9"/>
					<path class="st43" d="M31.2,164.5c11.3,0.9,25.1,7.1,22.4,18.8c-1.9,7.9-7.3,13.7-7.3,13.7s33.2-12.8,27.3-23
						c-1.2-2.1-3.1-4.1-5.4-5.9c-8.7-7.1-22.9-13.1-27.3-22.4c-12.6-27.2-14.4-80.4-9.8-86.1s19.8-18,19.8-18l5.5-7.7
						c0,0-1.9-0.7-5.1-1.2l0,0c-9.5-1.8-29.9-3.2-46.3,13c-19.3,19,25.1,84.2,21.4,98.8S19.9,163.6,31.2,164.5"/>
					<path class="st44" d="M36.4,152.9c3.4,5.7,25.3,13.3,31.8,15.3c-8.7-7.1-22.9-13.1-27.3-22.4c-12.6-27.2-14.4-80.4-9.8-86.1
						s19.8-18,19.8-18l5.5-7.7c0,0-1.9-0.7-5.1-1.2l0,0c0,0-15.7,16.9-36.2,25.7c-11.4,4.9-4.3,31.8,4.1,49.3
						C27.5,125.2,27.1,137.7,36.4,152.9"/>
					<path class="st40" d="M103,58.9c13.6-12.2,37.6-19.5,48.4-22.1c-20.9-17.7-46.3-5.7-64,3.6c-21.9,11.4-14.2,66.1-14.3,95
						c-0.1,22.9,32.3,21.4,58.1,15.4c3-1,5.8-1.9,8.4-2.4c0,0-32.4,0.9-43.8-11.1C84.2,125.1,85.9,74.2,103,58.9"/>
					<path class="st44" d="M115.3,47.9c0,0-10.6,2.3-18,13.8s-5,24.7-5,24.7s1.5-11.7,7.5-18.7C105.9,60.7,116.7,60.5,115.3,47.9"/>
					<path class="st44" d="M135.4,40.5c0,0,11.4-1.8,18.9,1.7s11.4,9.6,11.4,9.6s-7.1-5-14.1-4.3C144.8,48.1,138.7,45.9,135.4,40.5"
						/>
					<path class="st40" d="M138.6,108.5c0,0,6-0.5,10.4-2s7.5-2.8,7.5-2.8s-3.3,6.3-7.7,7C145.6,111.1,138.6,108.5,138.6,108.5"/>
					<path class="st45" d="M147.3,104.1c0.1,0.4-1.8,1.3-4.2,1.9s-4.5,0.7-4.6,0.3c-0.1-0.4,1.8-1.3,4.2-1.9
						C145.1,103.8,147.2,103.7,147.3,104.1"/>
					<path class="st45" d="M151,103.5c0,0.3-0.6,0.7-1.4,0.8c-0.8,0.1-1.6-0.1-1.6-0.4s0.6-0.7,1.4-0.8
						C150.2,103,150.9,103.1,151,103.5"/>
					<path class="st43" d="M75.4,146.7c-3.6-11-0.9-53.1,11.6-76.5C99.6,46.8,108.3,36,108.3,36s51.7,4.4,57.1,18.9
						c5.3,14.5,14.7,43.2,32.2,70.5c17,26.6,15.2,46.6,15.2,47.5c0.2-1,3.1-18-2.8-34.6c-6.1-17-18.5-33.5-28.7-54
						s-7.8-73.8-44.7-83.2C112.3-5,88.3,15.5,88.3,15.5S85,17,79.7,19.8c-0.3,0.1-0.5,0.2-0.8,0.4c-8.4,4.5-21,11.9-32.5,21
						c-13.9,11-26.2,24.6-28,39c-0.2,1.7-0.2,3.4-0.2,5.1c0,3.4,0.3,6.7,0.9,9.9C26.8,134.1,78.8,156.9,75.4,146.7"/>
					<path class="st43" d="M109.6,36.1c0,0-14.5,30.7-20.7,60.1s12,90.2,12,90.2S78.4,134,83,91.7c3-27.8,17.3-50.6,17.3-50.6
						l8.6-7.3L109.6,36.1z"/>
					<path class="st46" d="M112.9,29.6c0,0,33.1-2.1,48.2,4.8s15.8,48.1,21.2,62.8s8.7,18.5,8.7,18.5s-8.8-10.1-18.3-34.9
						c-9.5-24.7-9.8-34.6-26-41.7C130.6,31.8,112.9,29.6,112.9,29.6"/>
					<path class="st40" d="M67.4,151.5c12.1-3.2,11.9-5.5,11.9-5.5l-3-18.7c0,0-0.5-0.2-1.5-0.5c-5.9-1.7-27.4-7.4-34.9,1.3
						c-0.8,0.9-1.3,1.8-1.5,2.8c-0.3,1-0.4,2.1-0.2,3.1v0.1l0,0C39.8,143.5,57.5,154.1,67.4,151.5"/>
					<path id="Fill-44" class="st39" d="M38.3,134L38.3,134c0.3-0.4,2.9-3.9,11.2-5.1c8.8-1.3,22.1,2.6,22.1,2.6l3.2-4.7
						c-5.9-1.7-27.4-7.4-34.9,1.3c-0.8,0.9-1.3,1.8-1.5,2.8L38.3,134z"/>
					<path class="st46" d="M19.2,95.3c9.5-0.9,37-5.7,53.3-29.4c20-29,15.8-50.4,15.8-50.4S85,17,79.7,19.8
						c-0.3,0.1-0.5,0.2-0.8,0.4c-8.4,4.5-21,11.9-32.5,21c-13.9,11-26.2,24.6-28,39c-0.2,1.7-0.2,3.4-0.2,5.1
						C18.2,88.7,18.5,92.1,19.2,95.3"/>
					<path class="st47" d="M57.4,33.3l-8-0.9c0,0-9.9,9.9-14,13c-4.1,3.1-7.4,6.1-7.4,6.1l3.8,3.4L57.4,33.3z"/>
					<path class="st48" d="M118.4,115.2c2.1,4.9-0.2,10.5-5.1,12.5c-4.9,2.1-10.5-0.2-12.6-5c-2.1-4.9,0.2-10.5,5.1-12.5
						C110.7,108.1,116.3,110.3,118.4,115.2"/>
					<path class="st48" d="M179.1,98c1.8,4.2-0.2,9-4.3,10.7c-4.2,1.8-9-0.2-10.8-4.3c-1.8-4.2,0.2-9,4.3-10.7
						C172.5,91.9,177.3,93.8,179.1,98"/>
					<path id="Stroke-54" class="st49" d="M137.1,121.8c0,0,12.7,21.7,21.8-1.3"/>
					<path class="st8" d="M129.5,100.1c1.5,5.9-0.3,11.4-4.1,12.4c-3.8,1-8.1-3-9.6-8.9s0.3-11.4,4.1-12.4S128,94.2,129.5,100.1"/>
					<path class="st44" d="M119.8,91.2c-3.7,0.9-5.5,6.1-4.3,11.7c0.2-0.1,0.3-0.1,0.5-0.2c3.3-0.8,6.2-0.6,6.5,0.6
						s-2.2,2.8-5.5,3.6c-0.1,0-0.1,0-0.2,0c2,3.9,5.3,6.2,8.3,5.5c3.8-1,5.7-6.5,4.2-12.4C128,94.2,123.7,90.3,119.8,91.2"/>
					<path class="st44" d="M117.6,93.4c0,0-4.1,1.9-6-0.4c1.1,4.4,4.1,4.5,5.2,4.2C118,97,117.6,93.4,117.6,93.4"/>
					<path class="st8" d="M168.8,89.8c1.5,5.9-0.2,11.4-3.9,12.3c-3.6,0.9-7.8-3.1-9.3-9s0.2-11.4,3.9-12.3
						C163.1,79.8,167.3,83.9,168.8,89.8"/>
					<path class="st44" d="M159.5,80.7c-3.5,0.9-5.3,6-4.1,11.7c0.2,0,0.3-0.1,0.5-0.2c3.2-0.8,6-0.5,6.3,0.6
						c0.3,1.2-2.1,2.7-5.2,3.6c-0.1,0-0.1,0-0.2,0c2,3.9,5.4,6.5,8.3,5.8c3.7-0.9,5.3-6.7,3.8-12.6
						C167.3,83.8,163.1,79.8,159.5,80.7"/>
					<path class="st44" d="M162.4,82.4c0,0,4.5-0.5,4.9-3.5c1.4,4.4-1.1,6-2.2,6.4C163.9,85.7,162.4,82.4,162.4,82.4"/>
					<path class="st39" d="M109.4,160.6c2-0.2,3.7,1.5,3.7,3.5c0.1,2.9,1.1,8.5,7.6,9.6c8.8,1.5,7.8-2.2,13,0.1s4.1,12.9-2.5,13.7
						c-6.6,0.7-19,2.4-24.8-12.8C102.6,164.5,106.1,160.9,109.4,160.6"/>
					<path class="st40" d="M133.8,173.9c-5.2-2.3-4.3,1.4-13-0.1c-1.3-0.2-2.4-0.6-3.3-1.2c1.3,1.2,3.2,2.3,5.9,3.2
						c7.4,2.4,9.8,5.8,13.1,7.4C137.8,179.7,136.9,175.3,133.8,173.9"/>
				</g>
			</g>
			<path id="Path-2" class="st40" d="M0,0"/>
			<g id="Group-131" transform="translate(178.000000, 340.000000)">
				<g>
					<polygon class="st50" points="9.4,25.3 9.2,25.9 10.4,25.2 10.6,24.6 					"/>
					<g id="Group-11" transform="translate(5.454545, 17.228341)">
						<g id="Group-4">
							<g id="Clip-3">
							</g>
							<path class="st51" d="M0.6,1l1.2-0.7c0,0.1,0,0.1,0,0.2L0.6,1.2C0.6,1.1,0.6,1.1,0.6,1"/>
						</g>
						<g>
							<path class="st52" d="M0.6,1.2l1.2-0.7c0.1,2.3,1.4,5,3.2,6.8L3.8,8C2,6.2,0.7,3.5,0.6,1.2"/>
						</g>
						<g id="Group-10">
							<g id="Clip-9">
							</g>
							<path class="st51" d="M3.8,8L5,7.3l0.1,0.1L3.9,8.1C3.9,8.1,3.9,8.1,3.8,8"/>
						</g>
					</g>
					<polygon class="st53" points="5.5,17.9 6.1,18.2 7.3,17.5 6.7,17.2 					"/>
					<path id="Fill-13" class="st54" d="M6.1,18.2c0,2.4,1.4,5.3,3.3,7.1l-0.2,0.6c-2.2-2.1-3.7-5.3-3.7-8L6.1,18.2z"/>
					<polygon id="Fill-15" class="st50" points="20,19.3 19.8,19.8 21,19.1 21.2,18.6 					"/>
					<g id="Group-25" transform="translate(16.363636, 9.934224)">
						<g id="Group-18">
							<g id="Clip-17">
							</g>
							<path class="st51" d="M0.3,2.2l1.2-0.7c0,0.1,0,0.1,0,0.2L0.3,2.4C0.3,2.4,0.3,2.3,0.3,2.2"/>
						</g>
						<g id="Group-21">
							<g id="Clip-20">
							</g>
							<path id="Fill-19" class="st52" d="M0.3,2.4l1.2-0.7c0.1,2.3,1.4,5,3.2,6.8L3.5,9.2C1.7,7.5,0.4,4.7,0.3,2.4"/>
						</g>
						<g id="Group-24">
							<g id="Clip-23">
							</g>
							<path class="st51" d="M3.5,9.2l1.2-0.7l0.1,0.1L3.6,9.4C3.6,9.3,3.5,9.3,3.5,9.2"/>
						</g>
					</g>
					<polygon class="st53" points="16.1,11.8 16.7,12.2 17.9,11.5 17.3,11.1 					"/>
					<path id="Fill-27" class="st54" d="M16.7,12.2c0,2.4,1.4,5.3,3.3,7.1l-0.2,0.6c-2.2-2.1-3.7-5.3-3.7-8L16.7,12.2z"/>
					<polygon class="st50" points="29.6,14 29.4,14.6 30.6,13.9 30.8,13.3 					"/>
					<g id="Group-39" transform="translate(25.454545, 4.463635)">
						<g id="Group-32">
							<g id="Clip-31">
							</g>
							<path class="st51" d="M0.8,2.4L2,1.7c0,0.1,0,0.1,0,0.2L0.8,2.6C0.8,2.6,0.8,2.5,0.8,2.4"/>
						</g>
						<g>
							<g id="Clip-34">
							</g>
							<path class="st52" d="M0.8,2.6L2,1.9C2,4.2,3.3,7,5.2,8.7L4,9.4C2.1,7.7,0.8,4.9,0.8,2.6"/>
						</g>
						<g id="Group-38">
							<g id="Clip-37">
							</g>
							<path class="st51" d="M4,9.4l1.2-0.7l0.1,0.1L4.1,9.5C4.1,9.5,4,9.5,4,9.4"/>
						</g>
					</g>
					<polygon class="st53" points="25.6,6.5 26.2,6.9 27.4,6.2 26.8,5.9 					"/>
					<path class="st54" d="M26.2,6.9c0,2.4,1.4,5.3,3.3,7.1l-0.2,0.6c-2.2-2.1-3.7-5.3-3.7-8L26.2,6.9z"/>
					<polygon class="st55" points="0,28.3 56.1,61 56.1,59.3 0,26.7 					"/>
					<polygon class="st55" points="56.1,59.3 56.1,61 99.2,36 99.2,34.3 					"/>
					<polygon class="st55" points="0,26.6 56.1,59.3 99.2,34.3 43.2,1.7 					"/>
					<polygon class="st56" points="0,26.7 56.1,59.3 56.1,57.7 0,25 					"/>
					<polygon class="st56" points="56.1,57.7 56.1,59.3 99.2,34.3 99.2,32.7 					"/>
					<polygon class="st57" points="43.2,0 0,25 56.1,57.7 99.2,32.7 					"/>
					<polygon class="st3" points="48.1,9.5 46.2,8.3 11.7,28.3 13.7,29.5 					"/>
					<polygon class="st3" points="56.4,11 54.5,9.8 20,29.7 21.9,31 					"/>
					<polygon class="st3" points="59.5,15.3 57.5,14 23,34 25,35.2 					"/>
					<polygon class="st3" points="65.3,18.4 63.3,17.2 28.8,37.2 30.8,38.4 					"/>
					<g id="Group-61" transform="translate(12.727273, 6.287165)">
						<path class="st55" d="M3.9,12.6c-0.6-0.3-1.5-0.3-2.1,0s-0.6,0.9,0,1.2s1.5,0.3,2.1,0S4.5,13,3.9,12.6"/>
						<path class="st54" d="M3.9,12.6c-0.6-0.3-1.5-0.3-2.1,0s-0.6,0.9,0,1.2s1.5,0.3,2.1,0S4.5,13,3.9,12.6"/>
						<path class="st54" d="M14.2,6.5c-0.6-0.3-1.5-0.3-2.1,0c-0.6,0.3-0.6,0.9,0,1.2c0.6,0.3,1.5,0.3,2.1,0
							C14.7,7.4,14.7,6.8,14.2,6.5"/>
						<path class="st54" d="M23.4,1.1c-0.6-0.3-1.5-0.3-2.1,0s-0.6,0.9,0,1.2s1.5,0.3,2.1,0S24,1.5,23.4,1.1"/>
					</g>
					<g id="Group-68" transform="translate(5.454545, 13.581282)">
						<g id="Group-64">
							<g id="Clip-63">
							</g>
							<path class="st58" d="M2,1.6l1.2-0.7C2.7,1.3,2.3,1.8,2,2.5L0.8,3.2C1.1,2.5,1.5,2,2,1.6"/>
						</g>
						<g id="Group-67">
							<g id="Clip-66">
							</g>
							<path class="st51" d="M0.8,3.2L2,2.5C1.9,2.9,1.8,3.4,1.8,4L0.6,4.7C0.6,4.1,0.7,3.6,0.8,3.2"/>
						</g>
					</g>
					<g transform="translate(5.454545, 11.757753)">
						<g id="Group-71">
							<g id="Clip-70">
							</g>
							<path class="st58" d="M1.6,2.7L2.8,2C3.7,1.5,5,1.6,6.4,2.3L5.2,3C3.8,2.2,2.5,2.2,1.6,2.7"/>
						</g>
						<g id="Group-74">
							<g id="Clip-73">
							</g>
							<path class="st51" d="M5.2,3l1.2-0.7c0,0,0.1,0,0.1,0.1L5.3,3.1C5.3,3.1,5.2,3.1,5.2,3"/>
						</g>
					</g>
					<g id="Group-82" transform="translate(9.090909, 13.581282)">
						<g id="Group-78">
							<g id="Clip-77">
							</g>
							<path class="st51" d="M1.7,1.3l1.2-0.7C3.5,0.9,4,1.3,4.6,1.9L3.4,2.5C2.8,2,2.3,1.6,1.7,1.3"/>
						</g>
						<g id="Group-81">
							<g id="Clip-80">
							</g>
							<path class="st52" d="M3.4,2.5l1.2-0.7c1,1,1.9,2.2,2.5,3.6L5.9,6.1C5.2,4.7,4.4,3.5,3.4,2.5"/>
						</g>
					</g>
					<path class="st54" d="M10.8,14.9c1.7,1,3.2,2.7,4.2,4.8l-0.5,0.1c-0.9-1.9-2.3-3.4-3.7-4.3c-2.6-1.5-4.7-0.3-4.7,2.7l-0.6-0.3
						C5.5,14.5,7.9,13.2,10.8,14.9"/>
					<g id="Group-91" transform="translate(16.363636, 8.110694)">
						<g id="Group-87">
							<g id="Clip-86">
							</g>
							<path class="st58" d="M1.7,1.1l1.2-0.7c-0.6,0.3-1,0.8-1.2,1.5L0.5,2.6C0.8,1.9,1.1,1.4,1.7,1.1"/>
						</g>
						<g id="Group-90">
							<g id="Clip-89">
							</g>
							<path class="st51" d="M0.5,2.6l1.2-0.7C1.6,2.3,1.5,2.8,1.5,3.4L0.3,4.1C0.3,3.5,0.4,3,0.5,2.6"/>
						</g>
					</g>
					<g id="Group-98" transform="translate(16.363636, 6.287165)">
						<g id="Group-94">
							<g id="Clip-93">
							</g>
							<path class="st58" d="M1.2,2.1l1.2-0.7c1-0.5,2.2-0.4,3.7,0.3L4.9,2.4C3.5,1.7,2.2,1.6,1.2,2.1"/>
						</g>
						<g id="Group-97">
							<g id="Clip-96">
							</g>
							<path class="st51" d="M4.9,2.4l1.2-0.7l0.1,0.1L4.9,2.4C5,2.5,4.9,2.5,4.9,2.4"/>
						</g>
					</g>
					<g id="Group-105" transform="translate(20.000000, 6.287165)">
						<g id="Group-101">
							<g id="Clip-100">
							</g>
							<path class="st51" d="M1.4,2.5l1.2-0.7c0.6,0.3,1.1,0.8,1.7,1.3L3,3.8C2.5,3.3,1.9,2.8,1.4,2.5"/>
						</g>
						<g id="Group-104">
							<g id="Clip-103">
							</g>
							<path class="st52" d="M3,3.8l1.2-0.7c1,1,1.9,2.2,2.5,3.6L5.6,7.3C4.9,6,4,4.7,3,3.8"/>
						</g>
					</g>
					<path class="st54" d="M21.4,8.8c1.7,1,3.2,2.7,4.2,4.8l-0.5,0.1c-0.9-1.9-2.2-3.4-3.7-4.3c-2.6-1.5-4.7-0.3-4.7,2.7l-0.6-0.4
						C16.1,8.5,18.4,7.1,21.4,8.8"/>
					<g id="Group-114" transform="translate(25.454545, 2.640106)">
						<g id="Group-110">
							<g id="Clip-109">
							</g>
							<path class="st58" d="M2.2,1.2l1.2-0.7C2.8,0.8,2.4,1.4,2.2,2L1,2.7C1.2,2.1,1.6,1.5,2.2,1.2"/>
						</g>
						<g id="Group-113">
							<g id="Clip-112">
							</g>
							<path class="st51" d="M1,2.7L2.2,2C2.1,2.5,2,3,2,3.6L0.8,4.3C0.8,3.7,0.9,3.2,1,2.7"/>
						</g>
					</g>
					<g id="Group-121" transform="translate(25.454545, 0.816576)">
						<g id="Group-117">
							<g id="Clip-116">
							</g>
							<path class="st58" d="M1.7,2.3l1.2-0.7c0.9-0.5,2.2-0.5,3.6,0.3L5.4,2.6C3.9,1.8,2.7,1.8,1.7,2.3"/>
						</g>
						<g id="Group-120">
							<g id="Clip-119">
							</g>
							<path class="st51" d="M5.4,2.6l1.2-0.7L6.7,2L5.5,2.7C5.4,2.7,5.4,2.6,5.4,2.6"/>
						</g>
					</g>
					<g id="Group-128" transform="translate(30.909091, 2.640106)">
						<g id="Group-124">
							<g id="Clip-123">
							</g>
							<path class="st51" d="M0,0.9l1.2-0.7C1.8,0.5,2.3,1,2.9,1.5L1.7,2.1C1.2,1.6,0.6,1.2,0,0.9"/>
						</g>
						<g id="Group-127">
							<g id="Clip-126">
							</g>
							<path class="st52" d="M1.7,2.1l1.2-0.7c1,1,1.9,2.2,2.5,3.6L4.2,5.7C3.6,4.3,2.7,3.1,1.7,2.1"/>
						</g>
					</g>
					<path class="st54" d="M30.9,3.5c1.7,1,3.2,2.7,4.2,4.8l-0.5,0.1c-0.9-1.9-2.2-3.4-3.7-4.3c-2.6-1.5-4.7-0.3-4.7,2.7l-0.6-0.4
						C25.6,3.2,28,1.8,30.9,3.5"/>
				</g>
			</g>
			<circle class="st59" cx="117" cy="161" r="21"/>
			<path id="Path-4" class="st60" d="M1131,73c5.7,18.1,14,30.4,24.7,36.7c10.8,6.4,20.9,9.1,30.3,8.1V85.1L1131,73z"/>
			<g id="Group-14" transform="translate(1112.000000, 0.000000)">
				
					<g transform="translate(69.500000, 60.000000) rotate(22.000000) translate(-69.500000, -60.000000) translate(11.509554, 19.411765)">
					<path class="st61" d="M15.1,41.5l0,24.1c0,5,3.3,9.9,9.9,13.7c13.1,7.6,34.4,7.6,47.6,0c6.6-3.8,9.9-8.7,9.8-13.7l0-24.1
						L15.1,41.5z"/>
					<polygon class="st62" points="47.4,72.9 -10.2,39.7 -10.2,38.2 105.1,38.2 105.1,39.7 					"/>
					<g transform="translate(0.000000, 0.570000)">
						<polygon class="st63" points="47.4,70.8 -10.2,37.6 47.4,4.4 105.1,37.6 						"/>
					</g>
					<polygon class="st64" points="79.3,74.6 77.3,74.6 77.3,54.2 47,39 47.9,37.3 79.3,52.9 					"/>
					<path class="st64" d="M51.6,38.5c0,1.1-1.5,2-3.3,2c-1.8,0-3.3-0.9-3.3-2s1.5-2,3.3-2S51.6,37.4,51.6,38.5"/>
					<path class="st65" d="M80.7,83.7l0-10.1c0-1.3-1-2.3-2.3-2.3s-2.3,1-2.3,2.3l0,10.1H80.7z"/>
				</g>
			</g>
			<polygon id="Path-5" class="st66" points="619,402 673,433 715,402 			"/>
			<g transform="translate(626.000000, 337.000000)">
				<g>
					<polygon class="st67" points="4.3,67.8 10.1,67.8 10.1,57.7 4.3,57.7 					"/>
					<polygon class="st68" points="4.3,67.8 4.3,69.2 43.2,91.5 93.6,62.5 93.6,61.2 54.8,40.1 					"/>
					<polygon class="st67" points="4.3,67.8 43.2,90.2 93.6,61.2 54.8,38.8 					"/>
					<polygon class="st69" points="89.3,60.6 42.5,87.6 42.5,77.8 89.3,50.8 					"/>
					<polygon class="st70" points="42.5,87.6 6.3,66.8 6.3,56.7 42.5,77.5 					"/>
					<polygon class="st68" points="4.3,59.1 43.2,81.4 93.6,52.4 93.6,51.1 54.8,30 4.3,57.7 					"/>
					<polygon id="Fill-7" class="st71" points="4.3,57.7 43.2,80.1 93.6,51.1 54.8,28.7 					"/>
					<polygon class="st72" points="15.7,57.7 54.8,35.3 82.2,51.1 43.2,73.5 					"/>
					<g transform="translate(0.000000, 0.126417)">
						<path id="Fill-9" class="st68" d="M3.2,68.4l1.2,0.7V57.6l-1.2-0.7C2.2,60,2.1,63.8,3.2,68.4"/>
						<polygon id="Fill-11" class="st68" points="54.8,28.6 4.3,57.6 3.2,56.9 53.6,27.9 						"/>
						<g id="Clip-14">
						</g>
						<polygon class="st73" points="7.2,55.4 13,55.4 13,45.3 7.2,45.3 						"/>
						<polygon class="st74" points="7.2,56.7 46,79.1 96.5,50 96.5,48.7 57.6,27.7 7.2,55.4 						"/>
						<polygon class="st73" points="7.2,55.4 46,77.7 96.5,48.7 57.6,26.3 						"/>
						<polygon id="Fill-17" class="st69" points="92.2,48.2 45.4,75.1 45.4,65.3 92.2,38.4 						"/>
						<polygon class="st70" points="45.4,75.1 9.2,54.3 9.2,44.2 45.4,65.1 						"/>
						<polygon class="st74" points="7.2,46.6 46,69 96.5,39.9 96.5,38.6 57.6,17.5 7.2,45.3 						"/>
						<polygon class="st19" points="7.2,45.3 46,67.6 96.5,38.6 57.6,16.2 						"/>
						<polygon id="Fill-21" class="st74" points="18.6,45.3 57.6,22.8 85.1,38.6 46,61.1 						"/>
						<path class="st74" d="M6,56l1.2,0.7V45.3L6,44.6C5.1,47.7,5,51.4,6,56"/>
						<polygon id="Fill-23" class="st74" points="57.6,16.2 7.2,45.3 6,44.6 56.5,15.5 						"/>
						<polygon class="st75" points="49.3,64.8 0.8,47.8 0.8,46.3 39.1,11.5 87.7,27 87.7,28.5 						"/>
						<polygon id="Fill-25" class="st26" points="49.3,63.3 0.8,46.3 39.1,10 87.7,27 						"/>
						<polygon class="st26" points="3.1,39.2 2.2,39.2 2.2,46.8 3.1,45.7 						"/>
						<polygon class="st70" points="48.2,61 3.1,45.7 3.1,35.8 48.2,50.7 						"/>
						<polygon class="st69" points="84,27.4 48.2,61 48.2,50.7 84,17 						"/>
						<path class="st75" d="M2.2,48.3l-1.4-0.5c-0.9-3.9-1.1-7.4,0-10.1l1.4,0.6V48.3z"/>
						<polygon class="st75" points="49.3,56.3 0.8,39.3 0.8,37.7 39.1,3 87.7,18.5 87.7,20 						"/>
						<polygon class="st18" points="87.7,18.5 49.3,54.8 2.2,38.3 0.7,37.7 39.1,1.4 40.6,2 						"/>
						<polygon class="st75" points="12.1,35.3 40.6,8.4 76.3,20.9 47.8,47.8 						"/>
						<polygon class="st75" points="40.6,2 2.2,38.3 2.2,38.4 0.7,37.7 39.1,1.5 						"/>
					</g>
				</g>
			</g>
			<g id="elearning-e" transform="translate(90.000000, 91.000000)">
				<g transform="translate(4.556082, 3.084416)">
					<g transform="translate(22.454976, 0.000000)">
						<polygon class="st76" points="8.1,14.4 0.1,14.4 0.1,0.2 1.9,0.2 1.9,12.7 8.1,12.7 						"/>
						<path id="Shape" class="st76" d="M13.8,14.7c-1.4,0-2.6-0.5-3.5-1.5c-0.9-1-1.4-2.2-1.4-3.7s0.4-2.7,1.3-3.7
							c0.9-1,2-1.5,3.4-1.5s2.6,0.5,3.4,1.4c1,1,1.4,2.3,1.4,4v0.2h-7.6c0,0.9,0.3,1.7,1,2.3c0.6,0.6,1.3,0.9,2.2,0.9
							c1.2,0,2.1-0.6,2.7-1.7l1.6,0.8c-0.4,0.8-1,1.5-1.8,1.9C15.7,14.5,14.8,14.7,13.8,14.7z M10.9,8.4h5.6
							c-0.1-0.7-0.3-1.2-0.8-1.7c-0.5-0.4-1.2-0.7-2-0.7c-0.7,0-1.3,0.2-1.8,0.6C11.4,7.1,11.1,7.7,10.9,8.4z"/>
						<path class="st76" d="M23.7,4.4c1.3,0,2.4,0.4,3.2,1.1c0.8,0.7,1.2,1.7,1.2,3v6h-1.7V13h-0.1c-0.8,1.1-1.8,1.7-3,1.7
							c-1.1,0-2-0.3-2.7-0.9c-0.7-0.6-1.1-1.4-1.1-2.4s0.4-1.8,1.1-2.4c0.8-0.6,1.8-0.9,3-0.9c1.1,0,2,0.2,2.7,0.6V8.3
							c0-0.6-0.3-1.2-0.8-1.6C25,6.2,24.4,6,23.8,6c-1,0-1.8,0.4-2.4,1.3l-1.6-1C20.6,5,21.9,4.4,23.7,4.4z M21.3,11.4
							c0,0.5,0.2,0.9,0.6,1.2s0.9,0.5,1.4,0.5c0.8,0,1.4-0.3,2.1-0.8c0.6-0.6,0.9-1.2,0.9-2c-0.6-0.4-1.4-0.7-2.4-0.7
							c-0.7,0-1.4,0.2-1.9,0.5C21.6,10.5,21.3,10.9,21.3,11.4z"/>
						<path class="st76" d="M31.7,14.4h-1.8V4.7h1.7v1.6h0.1c0.2-0.5,0.6-1,1.1-1.3c0.6-0.4,1.1-0.5,1.7-0.5c0.5,0,1,0.1,1.3,0.2
							l-0.6,1.8c-0.2-0.1-0.6-0.1-1.1-0.1c-0.7,0-1.3,0.3-1.8,0.8c-0.5,0.6-0.8,1.2-0.8,1.9L31.7,14.4L31.7,14.4z"/>
						<path class="st76" d="M36.9,4.7h1.7V6h0.1C39,5.6,39.4,5.2,40,4.9s1.2-0.5,1.8-0.5c1.2,0,2.1,0.3,2.7,1c0.6,0.7,1,1.6,1,2.9
							v6.1h-1.8v-6c0-1.6-0.8-2.4-2.4-2.4c-0.7,0-1.3,0.3-1.8,0.9S38.7,8.2,38.7,9v5.4h-1.8V4.7L36.9,4.7z"/>
						<path class="st76" d="M49.8,1.4c0,0.4-0.1,0.7-0.4,0.9c-0.3,0.3-0.6,0.4-0.9,0.4c-0.4,0-0.7-0.1-0.9-0.4
							c-0.3-0.3-0.4-0.6-0.4-0.9s0.1-0.7,0.4-0.9c0.3-0.3,0.6-0.4,0.9-0.4c0.4,0,0.7,0.1,0.9,0.4C49.7,0.7,49.8,1,49.8,1.4z
							 M49.4,4.7v9.7h-1.8V4.7H49.4z"/>
						<path class="st76" d="M51.6,4.7h1.7V6h0.1c0.3-0.5,0.7-0.9,1.3-1.2s1.2-0.5,1.8-0.5c1.2,0,2.1,0.3,2.7,1c0.6,0.7,1,1.6,1,2.9
							v6.1h-1.8v-6c0-1.6-0.8-2.4-2.4-2.4c-0.7,0-1.3,0.3-1.8,0.9s-0.7,1.3-0.7,2.1v5.4h-1.8L51.6,4.7L51.6,4.7z"/>
						<path class="st76" d="M66.3,19c-0.5,0-1.1-0.1-1.5-0.2c-0.5-0.1-0.9-0.3-1.3-0.6c-0.4-0.3-0.7-0.5-1-0.9
							c-0.3-0.3-0.5-0.7-0.6-1.1l1.7-0.7c0.2,0.6,0.5,1,1,1.4c0.5,0.3,1.1,0.5,1.7,0.5c1,0,1.8-0.3,2.3-0.9s0.8-1.4,0.8-2.5v-1h-0.1
							c-0.3,0.5-0.8,0.9-1.4,1.2s-1.2,0.4-1.9,0.4c-1.3,0-2.4-0.5-3.3-1.5c-0.9-1-1.3-2.2-1.3-3.7c0-1.4,0.4-2.7,1.3-3.7
							c0.9-1,2-1.5,3.3-1.5c0.7,0,1.3,0.1,1.9,0.4s1.1,0.7,1.4,1.2h0.1V4.7h1.7V14c0,1.6-0.4,2.8-1.3,3.7C69,18.5,67.8,19,66.3,19z
							 M66.4,13c0.9,0,1.6-0.3,2.2-1c0.6-0.6,0.9-1.5,0.9-2.5S69.2,7.6,68.6,7c-0.6-0.7-1.3-1-2.2-1c-0.9,0-1.6,0.3-2.2,1
							s-0.9,1.5-0.9,2.5s0.3,1.9,0.9,2.5C64.8,12.7,65.5,13,66.4,13z"/>
					</g>
					<polygon class="st77" points="20.2,10 16.7,10 16.7,8.6 20.2,8.6 					"/>
					<path class="st78" d="M7.4,16.8c-2.1,0-3.9-0.7-5.3-2.2S0,11.3,0,9.1S0.7,5,2,3.5s3.1-2.2,5.2-2.2c2.2,0,3.9,0.7,5.2,2.1
						s1.9,3.3,1.9,5.9v0.3H2.8c0,1.4,0.5,2.6,1.4,3.4c0.9,0.9,2,1.3,3.3,1.3c1.7,0,3.1-0.9,4.1-2.6l2.4,1.2
						c-0.7,1.2-1.6,2.2-2.7,2.9C10.2,16.5,8.8,16.8,7.4,16.8z M3,7.3h8.3c-0.1-1-0.5-1.8-1.2-2.5s-1.7-1-3-1c-1,0-1.9,0.3-2.7,0.9
						C3.7,5.4,3.2,6.3,3,7.3z"/>
					<path class="st79" d="M5,1.7L6,4c0.4-0.1,0.8-0.2,1.2-0.2c1.2,0,2.2,0.3,3,1c0.7,0.7,1.2,1.5,1.2,2.5v2.3h2.9V9.3
						c0-2.5-0.6-4.5-1.9-5.9s-3-2.1-5.2-2.1C6.4,1.3,5.6,1.4,5,1.7z"/>
					<path class="st80" d="M2,3.5C0.7,5,0,6.9,0,9.1c0,2.1,0.6,3.8,1.8,5.2l1.7-2.1C3,11.5,2.8,10.6,2.7,9.6L3,7.3
						c0.2-1.1,0.7-1.9,1.5-2.5C4.9,4.4,5.4,4.1,5.9,4L5,1.6C3.9,2,2.9,2.6,2,3.5z"/>
					<path class="st77" d="M11.6,11.7c-1,1.7-2.4,2.6-4.1,2.6c-1.3,0-2.4-0.4-3.3-1.3c-0.3-0.2-0.5-0.5-0.7-0.8l-1.8,2.1
						c0.1,0.1,0.2,0.2,0.3,0.3c1.4,1.5,3.1,2.2,5.3,2.2c1.5,0,2.8-0.3,3.9-1c1.2-0.7,2.1-1.6,2.7-2.9L11.6,11.7z"/>
					<path class="st81" d="M3,7.3C2.8,8.2,2.8,9.6,2.8,9.6h8.6V7.3H3z"/>
				</g>
			</g>
			<g transform="translate(374.000000, 59.000000)">
				<g transform="translate(5.661927, 3.824675)">
					<g transform="translate(27.905213, 0.000000)">
						<polygon class="st76" points="10,17.8 0.2,17.8 0.2,0.3 2.4,0.3 2.4,15.7 10,15.7 						"/>
						<path class="st76" d="M17.2,18.2c-1.8,0-3.2-0.6-4.4-1.8c-1.1-1.2-1.7-2.7-1.7-4.6c0-1.8,0.6-3.4,1.7-4.6s2.5-1.8,4.3-1.8
							s3.2,0.6,4.3,1.7c1.1,1.2,1.6,2.8,1.6,4.8v0.2h-9.5c0,1.2,0.4,2.1,1.2,2.8c0.8,0.7,1.7,1.1,2.7,1.1c1.4,0,2.6-0.7,3.4-2.2l2,1
							c-0.5,1-1.3,1.8-2.3,2.4C19.5,18,18.4,18.2,17.2,18.2z M13.6,10.4h6.9c-0.1-0.8-0.4-1.5-1-2.1C18.8,7.8,18,7.5,17,7.5
							c-0.9,0-1.6,0.3-2.2,0.8C14.2,8.8,13.8,9.5,13.6,10.4z"/>
						<path class="st76" d="M29.4,5.4c1.7,0,3,0.4,4,1.3s1.5,2.1,1.5,3.7v7.4h-2.2v-1.7h-0.1c-0.9,1.4-2.2,2.1-3.7,2.1
							c-1.3,0-2.4-0.4-3.3-1.2c-0.9-0.8-1.3-1.8-1.3-2.9c0-1.2,0.5-2.2,1.4-3c0.9-0.7,2.2-1.1,3.8-1.1c1.3,0,2.5,0.2,3.3,0.7v-0.5
							c0-0.8-0.3-1.4-0.9-2c-0.6-0.5-1.4-0.8-2.2-0.8c-1.3,0-2.3,0.5-3,1.6l-2-1.2C25.6,6.2,27.3,5.4,29.4,5.4z M26.5,14.2
							c0,0.6,0.3,1.1,0.8,1.5c0.5,0.4,1.1,0.6,1.8,0.6c1,0,1.8-0.4,2.5-1.1c0.7-0.7,1.1-1.5,1.1-2.5c-0.7-0.6-1.7-0.8-3-0.8
							c-0.9,0-1.7,0.2-2.3,0.7C26.8,13,26.5,13.5,26.5,14.2z"/>
						<path class="st76" d="M39.4,17.8h-2.3v-12h2.2v2h0.1c0.2-0.6,0.7-1.2,1.4-1.6s1.4-0.7,2.1-0.7c0.7,0,1.2,0.1,1.7,0.3L43.9,8
							c-0.3-0.1-0.7-0.2-1.3-0.2c-0.9,0-1.6,0.3-2.2,1c-0.6,0.7-0.9,1.5-0.9,2.4L39.4,17.8L39.4,17.8z"/>
						<path class="st76" d="M45.8,5.8H48v1.7h0.1C48.5,6.9,49,6.4,49.7,6s1.5-0.6,2.2-0.6c1.5,0,2.6,0.4,3.4,1.3
							c0.8,0.8,1.2,2,1.2,3.6v7.5h-2.3v-7.4c0-2-1-2.9-3-2.9c-0.9,0-1.7,0.4-2.3,1.1S48,10.2,48,11.2v6.6h-2.3L45.8,5.8L45.8,5.8z"
							/>
						<path class="st76" d="M61.9,1.7c0,0.4-0.2,0.8-0.5,1.1s-0.7,0.5-1.1,0.5s-0.8-0.2-1.1-0.5s-0.5-0.7-0.5-1.1s0.2-0.8,0.5-1.1
							s0.7-0.5,1.1-0.5s0.8,0.2,1.1,0.5S61.9,1.3,61.9,1.7z M61.4,5.8v12h-2.3v-12C59.1,5.8,61.4,5.8,61.4,5.8z"/>
						<path class="st76" d="M64.1,5.8h2.2v1.7h0.1C66.7,6.9,67.2,6.4,68,6c0.7-0.4,1.5-0.6,2.2-0.6c1.5,0,2.6,0.4,3.4,1.3
							c0.8,0.8,1.2,2,1.2,3.6v7.5h-2.3v-7.4c0-2-1-2.9-3-2.9c-0.9,0-1.7,0.4-2.3,1.1c-0.6,0.7-0.9,1.6-0.9,2.6v6.6H64L64.1,5.8
							L64.1,5.8z"/>
						<path class="st76" d="M82.4,23.5c-0.7,0-1.3-0.1-1.9-0.3c-0.6-0.2-1.1-0.4-1.6-0.7c-0.5-0.3-0.9-0.7-1.2-1.1
							c-0.3-0.4-0.6-0.9-0.8-1.4l2.1-0.9c0.2,0.7,0.7,1.3,1.3,1.7c0.6,0.4,1.3,0.6,2.1,0.6c1.2,0,2.2-0.4,2.9-1.1c0.7-0.7,1-1.7,1-3
							v-1.2h-0.1c-0.4,0.6-1,1.1-1.7,1.5s-1.5,0.6-2.4,0.6c-1.6,0-2.9-0.6-4.1-1.8c-1.1-1.3-1.7-2.8-1.7-4.6s0.6-3.3,1.7-4.5
							s2.5-1.9,4.1-1.9c0.9,0,1.6,0.2,2.4,0.6c0.7,0.4,1.3,0.9,1.7,1.5h0.1V5.8h2.2v11.5c0,1.9-0.6,3.4-1.6,4.5
							C85.7,23,84.3,23.5,82.4,23.5z M82.5,16.2c1.1,0,2-0.4,2.7-1.2s1.1-1.8,1.1-3.1s-0.4-2.3-1.1-3.1s-1.6-1.2-2.7-1.2
							s-2,0.4-2.7,1.2s-1.1,1.9-1.1,3.1c0,1.3,0.4,2.3,1.1,3.1C80.5,15.8,81.4,16.2,82.5,16.2z"/>
					</g>
					<polygon class="st77" points="25.2,12.4 20.7,12.4 20.7,10.6 25.2,10.6 					"/>
					<path class="st78" d="M9.2,20.8c-2.7,0-4.8-0.9-6.6-2.7C0.9,16.3,0,14,0,11.2c0-2.7,0.8-5,2.5-6.9c1.7-1.8,3.8-2.7,6.4-2.7
						c2.7,0,4.8,0.9,6.4,2.6s2.4,4.1,2.4,7.3v0.4H3.5c0,1.8,0.6,3.2,1.8,4.3c1.1,1.1,2.5,1.6,4.1,1.6c2.2,0,3.9-1.1,5.1-3.2l3,1.5
						c-0.8,1.5-1.9,2.7-3.4,3.6C12.6,20.4,11,20.8,9.2,20.8z M3.7,9.1h10.4C14,7.8,13.5,6.8,12.6,6s-2.2-1.2-3.7-1.2
						C7.6,4.8,6.5,5.2,5.6,6C4.6,6.7,4,7.8,3.7,9.1z"/>
					<path class="st79" d="M6.2,2.1L7.4,5c0.5-0.1,1-0.2,1.5-0.2c1.5,0,2.8,0.4,3.7,1.2s1.4,1.9,1.5,3.1v2.8h3.6v-0.4
						c0-3.1-0.8-5.5-2.4-7.3c-1.6-1.7-3.7-2.6-6.4-2.6C7.9,1.7,7,1.8,6.2,2.1z"/>
					<path class="st80" d="M2.5,4.4C0.9,6.2,0,8.5,0,11.2c0,2.6,0.7,4.7,2.2,6.5l2.2-2.6c-0.6-0.9-0.9-2-0.9-3.3L3.8,9
						C4,7.8,4.6,6.7,5.6,5.9c0.5-0.5,1.1-0.8,1.8-1L6.2,2C4.8,2.5,3.6,3.3,2.5,4.4z"/>
					<path class="st77" d="M14.4,14.5c-1.2,2.2-2.9,3.2-5.1,3.2c-1.6,0-2.9-0.5-4.1-1.6c-0.3-0.3-0.6-0.6-0.8-1l-2.2,2.6
						c0.1,0.1,0.2,0.3,0.4,0.4c1.7,1.8,3.9,2.7,6.6,2.7c1.8,0,3.5-0.4,4.9-1.3s2.6-2,3.4-3.6L14.4,14.5z"/>
					<path class="st81" d="M3.7,9.1c-0.3,1.1-0.3,2.8-0.3,2.8H14V9.1H3.7z"/>
				</g>
			</g>
			<text transform="matrix(1 0 0 1 104 169)" class="st82 st83 st84"></text>
			<g transform="translate(1101.000000, 274.000000)">
				<g id="Path_1_">
					<path class="st85" d="M-95.6,14.6c-0.7,1.7-1.7,3.3-3,4.5c-1.5,1.4-3.4,2.6-5.8,3.4c-0.1,0-0.2,0-0.2,0.1c-0.1,0-0.2,0-0.3,0
						l0,0c-0.1,0-0.2,0-0.3,0s-0.2,0-0.2-0.1c-2.4-0.8-4.3-1.9-5.8-3.4c-1.3-1.2-2.3-2.8-3-4.5c-1.4-3.1-1.3-6.7-1.3-9.5l0,0
						c0-0.2,0-0.5,0-0.7c0-1.3,1.1-2.4,2.5-2.5c2.8-0.2,5-1.1,6.9-2.8l0,0c0.3-0.4,0.7-0.5,1.1-0.5s0.7,0.1,1,0.4l0,0
						c1.9,1.8,4.1,2.7,6.9,2.8c1.4,0.1,2.4,1.2,2.5,2.5c0,0.3,0,0.5,0,0.7l0,0C-94.5,7.9-94.4,11.4-95.6,14.6z"/>
					<path class="st85" d="M-95.6,14.6c-0.7,1.7-1.7,3.3-3,4.5c-1.5,1.4-3.4,2.6-5.8,3.4c-0.1,0-0.2,0-0.2,0.1c-0.1,0-0.2,0-0.3,0
						v-24c0.4,0,0.7,0.1,1,0.4l0,0c1.9,1.8,4.1,2.7,6.9,2.8c1.4,0.1,2.4,1.2,2.5,2.5c0,0.3,0,0.5,0,0.7l0,0
						C-94.5,7.9-94.4,11.4-95.6,14.6z"/>
				</g>
			</g>
			<g id="Group-89" transform="translate(854.000000, 140.000000)">
				<g>
					<g id="Group-49" transform="translate(0.000000, 0.524644)">
						<g id="Group-3" transform="translate(135.032258, 5.872881)">
							<g id="Clip-2">
							</g>
							<path class="st43" d="M18,23.9c-4-0.9-6.8-1.6-6.8-1.6L7.7,20c0-0.2,1-5.4-1.3-9.7c-2.3-4-5.3-8-5.7-8.5
								C1.2,2,9.8,6.1,11.5,10.2c1.7,4-0.4,9.8-0.5,10.4c0.6-0.5,7.6-6,19-6.2c13.1-0.2,15.3,6,15.3,6s-3.1-1.7-13.8-1.9
								c-13.7-0.2-18.1,3.8-18.1,3.8s0,0,0.1,0C13.7,22.4,15.4,22.9,18,23.9"/>
						</g>
						<path class="st43" d="M142.5,25.7l-7-4.8C139.6,23.3,142,25.2,142.5,25.7"/>
						<path class="st39" d="M156.4,122.7c-4.7,11.7-42.2,32-62.6,37.4c-2.6,0.7-4.9,1.2-6.7,1.5c-1.1,0.2-2.3,0.3-3.5,0.3
							c-6,0.2-13.1-1-19.9-2.8c-12.1-3.1-23-8.1-24.4-10c-2.5-3.3-1.3-8.8-1.5-21.9c-0.1-13.1-7.6-25.1-9.8-39.9
							c-1.2-8.3,0-16.4,1.3-21.9c0.9-4.2,2-6.8,2-6.8c4.3-8.4,14.6-40,53.8-40.4c39.2-0.5,62.4,14.3,69.7,28.9
							C162.2,61.6,161.7,109.5,156.4,122.7"/>
						<path class="st39" d="M27.1,65.9c0,0-0.5,59.1,5.5,74.3c7.3,18.5,34.6,21.8,54.6,21.4s65.5-12.1,61.2-36.8s-0.8-87.4-0.8-87.4
							L27.1,65.9z"/>
						<path class="st40" d="M82.4,123c0,0-7.5,1.6-13.4,1.5s-10.2-0.6-10.2-0.6s6.4,6.5,12,5.6C74.8,128.9,82.4,123,82.4,123"/>
						<path class="st40" d="M86.1,62.7c-17.3-4.8-41.4-0.8-52.7,1.7l114.1-27.1l0,0c0,0.7-3.5,62.8,0.8,87.4
							c3.9,22.3-32.7,33.9-54.6,36.3c0.1,0,22.9-15.2,27.7-31.3C126.4,113.7,108.5,68.8,86.1,62.7"/>
						<path class="st43" d="M82.7,60.8c0,0,10.9-1.5,21.9,6.8s13.3,21.8,13.3,21.8s-5.5-10.6-13.6-15.1C96,69.6,85.8,73.2,82.7,60.8
							"/>
						<path class="st43" d="M49.1,63.8c0,0-10.6,4.8-15,12s-4.2,14.4-4.2,14.4s3.2-8.2,9.4-11.5C45.5,75.4,49.3,70.2,49.1,63.8"/>
						<path class="st45" d="M70.2,121c0,0.6,2.6,0.9,5.8,0.8c3.2-0.1,5.7-0.7,5.7-1.3c0-0.6-2.6-0.9-5.8-0.8
							C72.7,119.9,70.2,120.5,70.2,121"/>
						<path class="st45" d="M65.4,121.6c0.1,0.4,1,0.6,2,0.5c1.1-0.2,1.9-0.6,1.8-1s-1-0.6-2-0.5C66.2,120.7,65.4,121.2,65.4,121.6"
							/>
						<path class="st40" d="M160.3,130.3c-12.4,2.6-13.3,0.4-13.3,0.4l-5.8-18.3c0,0,0.4-0.4,1.2-1.1c4.5-4.2,21.4-19.1,32-14.6
							c1.1,0.5,2,1.1,2.7,1.9s1.3,1.7,1.6,2.7v0.1l0,0C181.6,110.6,170.4,128.2,160.3,130.3"/>
						<path class="st39" d="M178.6,101.2L178.6,101.2c-0.4-0.2-4.4-2.2-12.4,0.5c-8.5,2.8-18.8,12.4-18.8,12.4l-5.1-2.8
							c4.5-4.2,21.4-19.1,32-14.7c1.1,0.5,2,1.1,2.6,1.9L178.6,101.2z"/>
						<g id="Group-28">
							<g id="Clip-27">
							</g>
							<path class="st43" d="M112.4,52.7c-0.7,0.1-13.5,13-16.5,1.4c-13.1,4.5-37.3,39-53.7,22.8C23.9,88,9.2,80.4,1.8,67.6
								c-7.4-12.9,5.9-81.8,71-62.9c39.9-3.7,67.5,8.7,71.4,20.9c17.1,0,49.1,41.8,24.9,70.3c-14,5.5-27.7,22.7-27.7,22.7
								s6.7-23.3,3.5-31.9C141.8,78,140.4,48.4,112.4,52.7"/>
						</g>
						<path id="Fill-29" class="st46" d="M138.3,46.3c0.5,3.7,6.8,27.9,18.7,36.3c2.7,1.9,12.2,7.7,16.1,7.7
							c5.4-8.8,5.9-20.9,3.1-29.9c-6.2-19.6-16.7-27.9-18-28.2L143,36.5C143,36.5,137.7,42.6,138.3,46.3"/>
						<path id="Fill-31" class="st46" d="M101.9,23.2c0,0-38.5-25-71.5-8.3C-2.6,31.7,6.1,66.6,6.1,66.6s-4-38.9,27.6-49.9
							C65.4,5.7,101.9,23.2,101.9,23.2"/>
						<path id="Fill-33" class="st46" d="M84.2,54.5c-2.2,3.1-4.6,5.9-7.3,8.6c-2.6,2.6-5.5,5.1-8.5,7.3c-3,2.2-6.3,4.2-9.8,5.7
							c-1.8,0.8-3.6,1.4-5.6,1.7c-1.9,0.3-4.2,0.2-5.7-1c1.9,0.4,3.6-0.2,5.2-0.9c1.6-0.7,3.1-1.6,4.7-2.5c3-1.9,5.9-4.1,8.9-6.2
							l8.9-6.5C77.9,58.5,81,56.3,84.2,54.5"/>
						<path class="st48" d="M95.5,121.7c0.2,5.2,4.5,9.3,9.7,9.1s9.3-4.5,9.1-9.7c-0.2-5.2-4.5-9.3-9.7-9.1S95.4,116.4,95.5,121.7"
							/>
						<path id="Fill-37" class="st48" d="M35.4,127.9c0.1,3.8,3.3,6.8,7.2,6.7c3.8-0.1,6.8-3.3,6.7-7.2c-0.1-3.8-3.3-6.8-7.2-6.7
							C38.3,120.9,35.3,124.1,35.4,127.9"/>
						<path id="Stroke-39" class="st86" d="M59.1,142.9c0,0,27.2,3.8,30.9-7.8"/>
						<path id="Fill-41" class="st8" d="M54.7,107c0.8,5.5-1.5,10.5-5.1,11s-7.2-3.5-8.1-9.1c-0.8-5.6,1.5-10.5,5.1-11
							C50.3,97.3,53.9,101.4,54.7,107"/>
						<path id="Fill-43" class="st44" d="M46.6,97.9c-3.7,0.5-6,5.5-5.1,11c0.1,0.8,0.3,1.6,0.5,2.3c0.6-0.2,1.3-0.4,2-0.5
							c2.8-0.4,5.1,0.2,5.3,1.3c0.2,1.1-1.9,2.3-4.7,2.8c-0.3,0-0.5,0.1-0.8,0.1c1.6,2.2,3.7,3.4,5.8,3.1c3.7-0.5,6-5.5,5.1-11
							C53.9,101.4,50.3,97.4,46.6,97.9"/>
						<path id="Fill-45" class="st8" d="M96.6,100.8c0.8,5.5-1.5,10.5-5.1,11s-7.2-3.5-8.1-9.1c-0.8-5.5,1.5-10.5,5.1-11
							C92.2,91.1,95.8,95.2,96.6,100.8"/>
						<path class="st44" d="M88.5,91.7c-3.7,0.5-6,5.5-5.1,11c0.1,0.8,0.3,1.6,0.5,2.3c0.6-0.2,1.3-0.4,2-0.5
							c2.8-0.4,5.1,0.2,5.3,1.3c0.2,1.1-1.9,2.3-4.7,2.8c-0.3,0-0.5,0.1-0.8,0.1c1.6,2.2,3.7,3.4,5.8,3.1c3.7-0.5,6-5.5,5.1-11
							C95.8,95.2,92.2,91.2,88.5,91.7"/>
					</g>
					<g id="Group-75" transform="translate(84.150538, 155.177186)">
						<g id="Group-52" transform="translate(0.000000, 1.957627)">
							<g id="Clip-51">
							</g>
							<path class="st87" d="M5.1,2.1c0,0-0.3,10.1,0.7,16.5s3.8,15.1,0.6,16.2c-3.1,1.1-8.3,1.1-9.4-1.1S-5.4,11.8-3.6,9.2
								C-1.7,6.5,0.2,7.7,0,3.9c0,0-0.5-2.4,0.6-2.6C1.6,1.2,5.1,1,5.1,2.1"/>
						</g>
						<g id="Group-55" transform="translate(0.000000, 27.406780)">
							<g id="Clip-54">
							</g>
							<path class="st88" d="M32.2,1.3c0,0,14.1,36.5,7,41.8s-17.9-2.3-21.3-24.7c0.8,15.8,0.9,28.1-6.9,28.4C3.3,47,2,38.7,1.9,25
								c0-13.6-1-18.2-1-18.2L32.2,1.3z"/>
						</g>
						<g id="Group-58" transform="translate(0.000000, 27.406780)">
							<g id="Clip-57">
							</g>
							<path class="st89" d="M32.2,1.3c0,0,14.1,36.5,7,41.8c-0.5,0.4-1,0.7-1.6,0.9c1.7-6.2-2.6-18.7-3-25.8
								c-0.5-9.5-7.4-5.7-7.4-5.7C19,16.2,7.3,14.8,1.6,13.7c-0.3-5-0.7-6.9-0.7-6.9L32.2,1.3z"/>
						</g>
						<path class="st41" d="M13.2,4.7c0,0-0.6,2.1-7.8,2.6C1.2,7.5,4.3,36.4,4.3,36.4s6.8,1.1,11.1,0.2C19.8,35.7,13.2,4.7,13.2,4.7
							"/>
						<path class="st88" d="M18.3,0.9c0,0-10.3,0-9.2,3.8S10.5,9,11,14.9S9.9,35,13.3,36.2s25.4,1.1,23.5-7.3
							c-1.9-8.1-3.6-22.5-12.2-23.2C16.4,5.2,20.8,2.1,18.3,0.9"/>
						<path class="st89" d="M19.2,2.3c-0.8,0.7-2.2,1.5-4.1,2c-3,0.7,2.6,0.3,6,0.9C19,4.5,19.3,3.3,19.2,2.3"/>
						<path class="st90" d="M22.4,5.5L22.4,5.5c0.5,0.2,0.7,0.2,0.8,0.1C22.9,5.6,22.6,5.6,22.4,5.5"/>
						<path class="st89" d="M18.9,33.9c-8.2-0.2-4.6-11.8-4.6-11.8S13,22.8,11,23.9c0,5.7,0.1,11.6,2.3,12.4
							c2.7,1,17.5,1.1,22.1-3.2C31,34.1,24.6,34.1,18.9,33.9"/>
						<path class="st5" d="M25.5,66.6c7.7,1.4,13.2-3.4,15.5-5.9c0.5,4.6,0.1,8.3-1.8,9.8C35.1,73.5,29.9,72.3,25.5,66.6"/>
						<path class="st5" d="M17.4,67.2c-1,4.2-2.9,6.8-6.4,6.9c-4.6,0.2-6.9-2.7-8-7.8C8.1,69.1,14.5,68,17.4,67.2"/>
						<path class="st89" d="M12,5.3c-0.7,0.2-1.9,0.2-2.6,0.2c0.2,0.5,0.3,1,0.4,1.4C11.1,6.5,13.1,5.1,12,5.3"/>
					</g>
					<g id="Group-88" transform="translate(68.494624, 161.050068)">
						<path class="st87" d="M30.2,5c0,0-1.9,9.6-10.7,8.3c-8.8-1.4-6.7-4.6-12.4-4c-5.7,0.5-8,10.9-2,13.7s17.2,8.3,27.5-4.3
							S32.9,2,30.2,5"/>
						<path class="st88" d="M30.1,2.6c0,0-1.9,9.6-10.7,8.3S12.7,6.3,7,6.9C1.3,7.4-1,17.7,5,20.6c6,2.8,17.2,8.3,27.5-4.3
							S32.8-0.4,30.1,2.6"/>
						<path class="st8" d="M15.3,22.1c2.6,0.2,5.1-0.1,7.5-1.1c8.2-3.3,11.9-12.8,12-12.9l-0.6-0.2c0,0.1-3.6,9.4-11.6,12.6
							c-4.4,1.8-9.4,1.4-14.7-1.1l-0.3,0.5C10.3,21.1,12.8,21.9,15.3,22.1"/>
						<path class="st8" d="M15.2,20.5c1.9,0.2,3.8-0.1,5.7-0.7C29,17.1,33.3,7.6,33.3,7.5l-0.5-0.2c0,0.1-4.3,9.4-12.1,12
							c-3.9,1.3-8,0.8-12.2-1.6l-0.3,0.5C10.5,19.5,12.9,20.3,15.2,20.5"/>
						<path class="st39" d="M7,6.8c2.9-0.3,3.8,0.4,5.1,1.4c-1.4,3.1-3.8,9-4.9,13.4c-0.8-0.4-1.6-0.7-2.2-1C-1,17.7,1.3,7.4,7,6.8"
							/>
						<path class="st40" d="M1.8,16.7c0.5,1.6,1.5,3,3.2,3.8c0.7,0.3,1.4,0.7,2.2,1c0.5-2.3,1.4-5,2.4-7.4l0,0
							C7.3,19.9,3.7,18.2,1.8,16.7"/>
					</g>
				</g>
			</g>
		</g>
	</g>
</g>
</svg>
