<?xml version="1.0" encoding="UTF-8"?>
<svg width="209px" height="43px" viewBox="0 0 209 43" version="1.1" xmlns="http://www.w3.org/2000/svg" xmlns:xlink="http://www.w3.org/1999/xlink">
    <!-- Generator: Sketch 57.1 (83088) - https://sketch.com -->
    <title>elearning-e</title>
    <desc>Created with Sketch.</desc>
    <g id="mockup-fixed" stroke="none" stroke-width="1" fill="none" fill-rule="evenodd">
        <g id="Desktop-HD" transform="translate(-616.000000, -3034.000000)">
            <g id="elearning-e" transform="translate(606.000000, 3027.000000)">
                <g transform="translate(10.129542, 6.909091)">
                    <g id="Group" transform="translate(49.924171, 0.000000)" fill="#0D0D6D" fill-rule="nonzero">
                        <polygon id="Path" points="17.9755956 32.2349091 0.269518167 32.2349091 0.269518167 0.535636364 4.32169668 0.535636364 4.32169668 28.3389091 17.9755956 28.3389091"></polygon>
                        <path d="M30.7478626,32.9436364 C27.5765924,32.9436364 24.9628088,31.852 22.9079589,29.6672727 C20.8520237,27.4832727 19.8249605,24.724 19.8249605,21.388 C19.8249605,18.0829091 20.8227204,15.3301818 22.8196872,13.1312727 C24.8162923,10.9327273 27.3707457,9.83309091 30.4837709,9.83309091 C33.6839826,9.83309091 36.2319242,10.8734545 38.1257867,12.9541818 C40.0196493,15.0352727 40.9667615,17.9501818 40.9667615,21.6981818 L40.9229874,22.1410909 L23.9654107,22.1410909 C24.0236556,24.2661818 24.7283823,25.9781818 26.0795908,27.2767273 C27.4297141,28.5756364 29.0450142,29.2243636 30.9247678,29.2243636 C33.5085245,29.2243636 35.5344329,27.9261818 37.0032164,25.3283636 L40.6147599,27.0992727 C39.6455798,28.9294545 38.3023302,30.3610909 36.5842875,31.3938182 C34.8662449,32.4269091 32.9206493,32.9436364 30.7478626,32.9436364 Z M24.2732765,18.7763636 L36.6501295,18.7763636 C36.5325545,17.2709091 35.9233349,16.0243636 34.822109,15.0352727 C33.7212449,14.0465455 32.2455877,13.552 30.395861,13.552 C28.8684708,13.552 27.5548863,14.0243636 26.4540221,14.9687273 C25.3524344,15.9138182 24.6256398,17.1821818 24.2732765,18.7763636 Z" id="Shape"></path>
                        <path d="M52.6378025,9.83309091 C55.632891,9.83309091 57.9963302,10.6374545 59.7295671,12.2458182 C61.4617188,13.8549091 62.3281564,16.0607273 62.3281564,18.8647273 L62.3281564,32.2352727 L58.4521596,32.2352727 L58.4521596,29.2247273 L58.2759779,29.2247273 C56.6024329,31.704 54.3706777,32.944 51.5810742,32.944 C49.2028025,32.944 47.2130711,32.2356364 45.6129652,30.8185455 C44.0121359,29.4018182 43.2126256,27.6309091 43.2126256,25.5061818 C43.2126256,23.2632727 44.0562717,21.4774545 45.7450111,20.1490909 C47.4333886,18.8210909 49.6868499,18.1567273 52.5057567,18.1567273 C54.9133318,18.1567273 56.895466,18.5996364 58.4521596,19.4847273 L58.4521596,18.5549091 C58.4521596,17.1381818 57.8939494,15.936 56.7786145,14.9469091 C55.6621943,13.9585455 54.356207,13.4636364 52.8584818,13.4636364 C50.5970616,13.4636364 48.8063033,14.4232727 47.4847599,16.3414545 L43.9169905,14.0836364 C45.8839305,11.2498182 48.7907472,9.83309091 52.6378025,9.83309091 Z M47.3964882,25.5941818 C47.3964882,26.6567273 47.8439968,27.5421818 48.7400995,28.2505455 C49.6354787,28.9589091 50.6849716,29.3134545 51.8893017,29.3134545 C53.5917883,29.3134545 55.1115814,28.6789091 56.4483191,27.4098182 C57.7839716,26.1410909 58.4521596,24.6501818 58.4521596,22.9381818 C57.1895845,21.9349091 55.4277678,21.4327273 53.1670711,21.4327273 C51.5221058,21.4327273 50.1495529,21.8312727 49.0486888,22.628 C47.9471011,23.4247273 47.3964882,24.4141818 47.3964882,25.5941818 Z" id="Shape"></path>
                        <path d="M70.5204234,32.2349091 L66.4682449,32.2349091 L66.4682449,10.5414545 L70.3442417,10.5414545 L70.3442417,14.0832727 L70.5204234,14.0832727 C70.9313934,12.932 71.775763,11.9512727 73.0528088,11.1389091 C74.3302164,10.3276364 75.5855561,9.92145455 76.8188278,9.92145455 C77.9927694,9.92145455 78.9916145,10.0985455 79.8139163,10.4527273 L78.5806445,14.3930909 C78.0810411,14.1869091 77.2880427,14.0832727 76.2020111,14.0832727 C74.6749826,14.0832727 73.345842,14.7032727 72.2160363,15.9425455 C71.0851453,17.1821818 70.5200616,18.6287273 70.5200616,20.2810909 L70.5200616,32.2349091 L70.5204234,32.2349091 Z" id="Path"></path>
                        <path d="M82.0156445,10.5414545 L85.8916414,10.5414545 L85.8916414,13.552 L86.0678231,13.552 C86.684278,12.4894545 87.6313902,11.604 88.9087978,10.8956364 C90.1862054,10.1872727 91.5142607,9.83309091 92.8951343,9.83309091 C95.5378594,9.83309091 97.5710032,10.5930909 98.9952891,12.1130909 C100.419213,13.6334545 101.131537,15.7952727 101.131537,18.5989091 L101.131537,32.2349091 L97.0793586,32.2349091 L97.0793586,18.8647273 C96.9910869,15.3229091 95.2144376,13.552 91.7497725,13.552 C90.1348341,13.552 88.7839874,14.2090909 87.6979558,15.5218182 C86.6112006,16.8352727 86.0681848,18.4072727 86.0681848,20.2370909 L86.0681848,32.2349091 L82.0160063,32.2349091 L82.0160063,10.5414545 L82.0156445,10.5414545 Z" id="Path"></path>
                        <path d="M110.689122,3.05927273 C110.689122,3.856 110.409836,4.53563636 109.852349,5.096 C109.294139,5.65672727 108.619077,5.93709091 107.826079,5.93709091 C107.033081,5.93709091 106.357295,5.65672727 105.799809,5.096 C105.241599,4.53563636 104.963398,3.85636364 104.963398,3.05927273 C104.963398,2.26218182 105.241961,1.58363636 105.799809,1.02254545 C106.357295,0.462181818 107.033081,0.181454545 107.826079,0.181454545 C108.619077,0.181454545 109.294139,0.462181818 109.852349,1.02254545 C110.409474,1.58363636 110.689122,2.26254545 110.689122,3.05927273 Z M109.851987,10.5414545 L109.851987,32.2352727 L105.799809,32.2352727 L105.799809,10.5414545 L109.851987,10.5414545 Z" id="Shape"></path>
                        <path d="M114.696441,10.5414545 L118.572438,10.5414545 L118.572438,13.552 L118.748619,13.552 C119.365074,12.4894545 120.312186,11.604 121.589594,10.8956364 C122.867002,10.1872727 124.195057,9.83309091 125.57593,9.83309091 C128.218656,9.83309091 130.251438,10.5930909 131.676085,12.1130909 C133.100009,13.6334545 133.811972,15.7952727 133.811972,18.5989091 L133.811972,32.2349091 L129.760155,32.2349091 L129.760155,18.8647273 C129.671883,15.3229091 127.895234,13.552 124.430569,13.552 C122.81563,13.552 121.464784,14.2090909 120.378752,15.5218182 C119.291997,16.8352727 118.748981,18.4072727 118.748981,20.2370909 L118.748981,32.2349091 L114.696803,32.2349091 L114.696803,10.5414545 L114.696441,10.5414545 Z" id="Path"></path>
                        <path d="M147.466594,42.5065455 C146.262264,42.5065455 145.132096,42.3516364 144.075006,42.0418182 C143.017916,41.732 142.05561,41.296 141.189896,40.7356364 C140.323096,40.1745455 139.582193,39.5105455 138.965738,38.7432727 C138.348921,37.9756364 137.878983,37.1196364 137.556284,36.1752727 L141.388507,34.5814545 C141.82878,35.8498182 142.592114,36.8683636 143.678869,37.636 C144.7649,38.4029091 146.027476,38.7869091 147.466956,38.7869091 C149.669046,38.7869091 151.386727,38.1229091 152.619998,36.7945455 C153.85327,35.4661818 154.469725,33.636 154.469725,31.3047273 L154.469725,29.2236364 L154.293905,29.2236364 C153.529848,30.3749091 152.494826,31.2825455 151.188477,31.9465455 C149.881766,32.6105455 148.464716,32.9425455 146.938049,32.9425455 C144.119142,32.9425455 141.696735,31.8356364 139.670826,29.6218182 C137.673498,27.3494545 136.675738,24.6043636 136.675738,21.3869091 C136.675738,18.1701818 137.673498,15.44 139.670826,13.1967273 C141.696735,10.9541818 144.119142,9.832 146.938049,9.832 C148.464716,9.832 149.881766,10.164 151.188477,10.828 C152.494826,11.492 153.529848,12.3996364 154.293905,13.5509091 L154.469725,13.5509091 L154.469725,10.5403636 L158.346084,10.5403636 L158.346084,31.3043636 C158.346084,34.7865455 157.361709,37.5170909 155.395131,39.4945455 C153.397441,41.5025455 150.754716,42.5065455 147.466594,42.5065455 Z M147.59864,29.2243636 C149.595245,29.2243636 151.224654,28.5018182 152.487591,27.0549091 C153.808773,25.6090909 154.469725,23.72 154.469725,21.388 C154.469725,19.1156364 153.809134,17.2418182 152.487591,15.7654545 C151.195351,14.2898182 149.56558,13.552 147.59864,13.552 C145.660641,13.552 144.03087,14.2901818 142.709327,15.7654545 C141.388145,17.2418182 140.727193,19.1156364 140.727193,21.388 C140.727193,23.6901818 141.387784,25.5647273 142.709327,27.0109091 C144.03087,28.4872727 145.660641,29.2243636 147.59864,29.2243636 Z" id="Shape"></path>
                    </g>
                    <polygon id="Path" fill="#009243" fill-rule="nonzero" points="45.0120664 22.3567273 37.0965529 22.3567273 37.0965529 19.2301818 45.0120664 19.2301818"></polygon>
                    <path d="M16.40009,37.6323636 C11.6464408,37.6323636 7.7281169,35.996 4.64801264,32.7210909 C1.5664613,29.4472727 0.0264091627,25.3112727 0.0264091627,20.3105455 C0.0264091627,15.3563636 1.52196367,11.2298182 4.51560506,7.93345455 C7.50816114,4.63781818 11.3378515,2.98909091 16.0039526,2.98909091 C20.8010142,2.98909091 24.620575,4.54836364 27.4597409,7.66763636 C30.2989068,10.7869091 31.718128,15.1570909 31.718128,20.7752727 L31.6522859,21.4389091 L6.23220063,21.4389091 C6.31974882,24.6243636 7.37611532,27.1905455 9.40130016,29.1374545 C11.4253997,31.0847273 13.846722,32.0570909 16.6641817,32.0570909 C20.5369226,32.0570909 23.5743381,30.1109091 25.7757046,26.2170909 L31.1895829,28.8716364 C29.737079,31.6152727 27.7234708,33.7610909 25.1480348,35.3090909 C22.5733223,36.8578182 19.6570995,37.6323636 16.40009,37.6323636 Z M6.69418009,16.3952727 L25.2475213,16.3952727 C25.0713397,14.1389091 24.1582338,12.2701818 22.5074803,10.7872727 C20.8570885,9.30545455 18.6452306,8.564 15.8722686,8.564 C13.5829921,8.564 11.6138815,9.27236364 9.96312796,10.6876364 C8.31201264,12.104 7.22272512,14.0054545 6.69418009,16.3952727 Z" id="Shape"></path>
                    <path d="M11.0187709,3.71418182 L13.178534,8.94036364 C14.0218183,8.69418182 14.9171975,8.56363636 15.8719068,8.56363636 C18.6448689,8.56363636 20.8570885,9.30472727 22.5071185,10.7869091 C24.157872,12.2698182 25.0709779,14.1385455 25.2471596,16.3949091 L25.2453507,21.4385455 L31.6519242,21.4385455 L31.7177662,20.7749091 C31.7177662,15.1567273 30.298545,10.7869091 27.4593791,7.66727273 C24.6202133,4.548 20.8006524,2.98872727 16.0035908,2.98872727 C14.2193444,2.98909091 12.5584613,3.23236364 11.0187709,3.71418182 Z" id="Path" fill="#F04733" fill-rule="nonzero"></path>
                    <path d="M4.51524329,7.93345455 C1.5216019,11.2298182 0.0260473934,15.3563636 0.0260473934,20.3105455 C0.0260473934,24.9654545 1.36242338,28.8705455 4.03264297,32.0290909 L7.92093997,27.3392727 C6.85987046,25.6909091 6.2951485,23.7254545 6.2325624,21.4392727 L6.69454186,16.3956364 C7.22308689,14.0061818 8.31237441,12.1047273 9.96312796,10.688 C10.9304992,9.85854545 12.0103807,9.27890909 13.1969842,8.93527273 L11.1124692,3.68327273 C8.58587204,4.45563636 6.38703791,5.87236364 4.51524329,7.93345455 Z" id="Path" fill="#FDD100" fill-rule="nonzero"></path>
                    <path d="M25.7757046,26.2170909 C23.5743381,30.1109091 20.5369226,32.0570909 16.6641817,32.0570909 C13.846722,32.0570909 11.4253997,31.0843636 9.40130016,29.1374545 C8.82427804,28.5829091 8.32865403,27.976 7.90900158,27.3207273 L3.99899842,31.9876364 C4.20773934,32.2363636 4.42226856,32.4818182 4.64765087,32.7210909 C7.72775513,35.996 11.646079,37.6323636 16.3997283,37.6323636 C19.6567378,37.6323636 22.5733223,36.8578182 25.1480348,35.3094545 C27.7234708,33.7614545 29.737079,31.6156364 31.1895829,28.872 L25.7757046,26.2170909 Z" id="Path" fill="#009243" fill-rule="nonzero"></path>
                    <path d="M6.69418009,16.3952727 C6.15442022,18.3796364 6.23220063,21.4389091 6.23220063,21.4389091 L25.2818894,21.4389091 L25.2297946,16.3952727 L6.69418009,16.3952727 Z" id="Path" fill="#2278F4" fill-rule="nonzero"></path>
                </g>
            </g>
        </g>
    </g>
</svg>